<svg xmlns="http://www.w3.org/2000/svg" viewBox="0 0 333.19 83.74"><defs><style>.cls-1{fill:#e2232e;fill-rule:evenodd;}.cls-2{fill:none;}</style></defs><title>Asset 13</title><g id="Layer_2" data-name="Layer 2"><g id="Layer_1-2" data-name="Layer 1"><polygon class="cls-1" points="37.86 27.13 49.01 27.13 46.92 39.36 56.61 39.36 58.7 27.13 69.85 27.13 63.9 61.88 52.76 61.88 54.96 48.97 45.28 48.97 43.07 61.88 31.92 61.88 37.86 27.13 37.86 27.13"/><path class="cls-1" d="M76.12,27.13H87.27l-3.33,20c-.61,4,.3,6.43,3.57,6.43s5-2.16,5.75-6.41l3.42-20h11.15L104,49.55C102.22,60,95.92,62.6,87.11,62.6,72.67,62.6,71.53,54,72.6,47.83l3.52-20.7Z"/><polygon class="cls-1" points="114.13 27.13 138.58 27.13 136.94 36.74 123.64 36.74 122.62 42.67 132.28 42.67 130.76 51.55 121.1 51.55 119.34 61.88 108.19 61.88 114.13 27.13 114.13 27.13"/><polygon class="cls-1" points="143.35 27.13 167.8 27.13 166.16 36.74 152.85 36.74 151.84 42.67 161.49 42.67 159.97 51.55 150.32 51.55 148.55 61.88 137.41 61.88 143.35 27.13 143.35 27.13"/><polygon class="cls-1" points="290.94 36.74 286.64 61.88 275.49 61.88 279.79 36.74 270.76 36.74 272.41 27.13 301.27 27.13 299.63 36.74 290.94 36.74 290.94 36.74"/><path class="cls-1" d="M172.57,27.13h15.5c5.06,0,8.87,2.23,10.67,5.61,2.12,4,1.13,11.35-1.48,15a12.77,12.77,0,0,1-10.44,5.17H179.5l-1.54,9H166.62l5.95-34.75Zm9.76,9.19L181,44.15h3.34c3.77,0,4.32-2.43,4.6-3.67a3.46,3.46,0,0,0-3.73-4.16Z"/><path class="cls-1" d="M220.84,35.64c3.93,0,4.71,3.86,3.93,8.86-.82,5.24-2.81,8.94-6.53,8.94-4,0-5.14-3.93-4.36-8.93.9-5.36,2.94-8.87,7-8.87Zm.71-9.22c11.87,0,16.49,8.32,15.28,18.31s-7,17.87-19.64,17.87c-11.51,0-16.5-8.22-15.3-18.21s6.62-18,19.66-18Z"/><path class="cls-1" d="M246.28,28.72a19.54,19.54,0,0,1,9.8-2.39c5.58.07,11.18,2.17,12.21,7.7l-10,2.64A3.67,3.67,0,0,0,255,34.53c-2.28,0-3.57,2-2.27,3.39,1.28,1.21,4.68,2,6.22,2.65a12.69,12.69,0,0,1,4.33,2.64,10,10,0,0,1,2.95,7.63c-.27,8.57-7.78,11.74-15.37,11.73-6.61,0-13.08-2.67-13.68-8.33l9.72-2.61c1.2,1.71,2.28,2.7,4.54,2.7a2.61,2.61,0,0,0,2.66-1.56c.36-1-.09-2.37-2.14-3.05A26.59,26.59,0,0,1,245.22,47c-3.27-2.21-4.56-6.27-4.11-10a10.92,10.92,0,0,1,5.17-8.27Z"/><rect class="cls-2" width="333.19" height="83.74"/></g></g></svg>