<?xml version="1.0" standalone="no"?>
<!DOCTYPE svg PUBLIC "-//W3C//DTD SVG 20010904//EN"
 "http://www.w3.org/TR/2001/REC-SVG-20010904/DTD/svg10.dtd">
<svg version="1.0" class="messenger" xmlns="http://www.w3.org/2000/svg"
 width="40.000000pt" height="40.000000pt" viewBox="0 0 40.000000 40.000000"
 preserveAspectRatio="xMidYMid meet">

<g transform="translate(0.000000,40.000000) scale(0.100000,-0.100000)" stroke="none">
<path d="M127 385 c-22 -7 -50 -24 -64 -37 -32 -29 -63 -94 -63 -133 0 -35 30
-104 53 -124 10 -8 17 -28 17 -47 0 -37 10 -41 49 -20 14 8 40 12 60 9 82 -11
168 36 202 112 23 51 23 89 0 140 -43 95 -151 137 -254 100z m82 -149 l22 -24
47 26 47 25 -52 -54 -52 -53 -26 24 -25 24 -38 -19 c-20 -11 -41 -21 -47 -23
-5 -3 12 19 40 47 27 28 52 51 55 51 4 0 17 -11 29 -24z"/>
</g>
</svg>
