<svg xmlns="http://www.w3.org/2000/svg" viewBox="0 0 248.94 83.74"><defs><style>.cls-1{fill:#d1067f;fill-rule:evenodd;}.cls-2{fill:none;}</style></defs><title>Asset 15</title><g id="Layer_2" data-name="Layer 2"><g id="Layer_1-2" data-name="Layer 1"><path class="cls-1" d="M58.59,45.3H47.52v6h4c0,2.25-1.16,5.8-3.92,5.8-3.77,0-4.08-4.55-4.08-11.84,0-6.59.5-11.94,3.91-11.94,3,0,3.28,2.59,3.51,6.79h7.82c0-7.89-3.55-13.38-11.51-13.38-9.86,0-12.46,9.94-12.46,19.38,0,10.29,3.42,17.59,11.79,17.59a9.18,9.18,0,0,0,7-3.45l1.28,2.7h3.66Z"/><path class="cls-1" d="M153,26.66c-9.54,0-12.45,9.39-12.45,18.48S143.48,63.62,153,63.62s12.45-9.39,12.45-18.48S162.55,26.66,153,26.66M153,57c-3.74,0-3.74-4.9-3.74-11.89s0-11.89,3.74-11.89,3.73,4.89,3.73,11.89S156.75,57,153,57"/><path class="cls-1" d="M214.09,37.41c0-7-4.67-10.09-10.75-10.09H191.29V62.89h8.1V47.51h2.69l4,15.38h8l-5.35-17.28a8.79,8.79,0,0,0,5.35-8.2M201,41.53h-1.57V33.64h1.35c2.69,0,5.25.3,5.25,4,0,2.85-2,3.89-5,3.89"/><polygon class="cls-1" points="68.12 27.34 60.02 27.34 60.02 62.91 79.1 62.91 79.1 54.89 68.12 54.89 68.12 27.34"/><polygon class="cls-1" points="126.14 27.35 123.22 44.18 120.3 27.36 107.01 27.36 107.01 62.93 115.17 62.93 115.17 35.76 115.26 35.76 120.34 62.93 123.81 62.93 123.81 62.92 126.09 62.92 131.17 35.75 131.26 35.75 131.26 62.92 139.42 62.92 139.42 27.35 126.14 27.35"/><path class="cls-1" d="M181.6,27.34V52c0,2.7-.8,5-3.48,5s-3.47-2.3-3.47-5V27.34h-8.09V51.63c0,7.64,3.17,12,10.6,12,.34,0,.67,0,1,0s.56,0,.9,0c7.32,0,10.65-4.39,10.65-12V27.34Z"/><path class="cls-1" d="M99.14,27.36H86.89L80.06,62.93h8.18l1.27-7.19h7l1.25,7.19H106ZM90.63,49.44l2.31-14.12L95.4,49.44Z"/><rect class="cls-2" width="248.94" height="83.74"/></g></g></svg>