<svg xmlns="http://www.w3.org/2000/svg" viewBox="0 0 303.32 83.74"><defs><style>.cls-1{fill:#d1067f;}.cls-2{fill:none;}</style></defs><title>Asset 14</title><g id="Layer_2" data-name="Layer 2"><g id="Layer_1-2" data-name="Layer 1"><path class="cls-1" d="M47.47,50.12h5.79V57L53,57c-.28,0-.59,0-1,.06l-.94,0a9.39,9.39,0,0,1-7.25-2.9c-1.76-1.91-2.65-4.9-2.65-8.87a16,16,0,0,1,.69-4.93,10.25,10.25,0,0,1,1.89-3.52,8.09,8.09,0,0,1,2.87-2.16,9,9,0,0,1,3.57-.7,9.73,9.73,0,0,1,3.15.53A12.85,12.85,0,0,1,56,35.82a15.23,15.23,0,0,1,2,1.47c.62.54,1.11,1.23,1.46,1.23h.14V31.13A29,29,0,0,0,55.07,29a18.19,18.19,0,0,0-5.86-.8c-4.66,0-8.35,1.58-11,4.69s-4,7.34-4,12.52c0,5.51,1.37,9.81,4,12.81A13.91,13.91,0,0,0,49,62.76a23.52,23.52,0,0,0,6.13-.85c2-.54,3.37-1.11,5-1.69V44.32H47.47Z"/><path class="cls-1" d="M75.11,36.39a10.23,10.23,0,0,0-8.23,3.49c-2,2.33-2.94,5.61-2.94,9.75s1,7.36,2.94,9.71a10.21,10.21,0,0,0,8.23,3.5,10.15,10.15,0,0,0,8.24-3.5c1.94-2.35,2.92-5.62,2.92-9.71s-1-7.38-2.93-9.73a10.14,10.14,0,0,0-8.23-3.51m4.3,17.13a7.61,7.61,0,0,1-1,2.42A3.47,3.47,0,0,1,77,57.26a4.2,4.2,0,0,1-1.8.43,4.33,4.33,0,0,1-2-.43,3.71,3.71,0,0,1-1.49-1.38,8.23,8.23,0,0,1-.9-2.38,17.14,17.14,0,0,1-.34-3.82,18.12,18.12,0,0,1,.36-3.94,7.4,7.4,0,0,1,1-2.5,3.54,3.54,0,0,1,1.48-1.34,4.37,4.37,0,0,1,1.79-.35A4,4,0,0,1,77,42a3.68,3.68,0,0,1,1.49,1.41,7.72,7.72,0,0,1,.94,2.49,18.69,18.69,0,0,1,.32,3.83,18.41,18.41,0,0,1-.31,3.84"/><path class="cls-1" d="M100,36.39a10.2,10.2,0,0,0-8.22,3.49c-2,2.33-2.94,5.61-2.94,9.75s1,7.36,2.94,9.71a10.17,10.17,0,0,0,8.22,3.5,10.17,10.17,0,0,0,8.25-3.5c1.94-2.35,2.92-5.62,2.92-9.71s-1-7.38-2.93-9.73A10.15,10.15,0,0,0,100,36.39m4.3,17.13a7.61,7.61,0,0,1-1,2.42,3.56,3.56,0,0,1-1.48,1.32,4.13,4.13,0,0,1-1.8.43,4.39,4.39,0,0,1-2-.43,3.77,3.77,0,0,1-1.49-1.38,8,8,0,0,1-.89-2.38,17.14,17.14,0,0,1-.34-3.82,17.51,17.51,0,0,1,.36-3.94,7.41,7.41,0,0,1,1-2.5,3.52,3.52,0,0,1,1.5-1.34,4.32,4.32,0,0,1,1.78-.35,4.15,4.15,0,0,1,1.87.39,3.78,3.78,0,0,1,1.49,1.42,7.63,7.63,0,0,1,.93,2.49,17.94,17.94,0,0,1,.33,3.83,17.71,17.71,0,0,1-.32,3.84"/><path class="cls-1" d="M128.56,38.4l-.36-.24a16.59,16.59,0,0,0-2.54-1.27,8,8,0,0,0-2.75-.4,7.19,7.19,0,0,0-3.51.92A8.89,8.89,0,0,0,116.57,40a14.19,14.19,0,0,0-2,4.17,19.59,19.59,0,0,0-.74,5.69c0,3.95.73,7.13,2.16,9.46a6.46,6.46,0,0,0,5.78,3.49,7.11,7.11,0,0,0,1.85-.22,7.89,7.89,0,0,0,1.59-.66,10.13,10.13,0,0,0,1.46-1.06c.57-.48,1.06-.93,1.5-1.33l.41-.44v3.17h6.33V27.47h-6.33Zm0,17-.05.08a6.35,6.35,0,0,1-1.76,1.15,4.74,4.74,0,0,1-1.93.44,3.7,3.7,0,0,1-3.44-1.8,11.24,11.24,0,0,1-1-5.56A10.68,10.68,0,0,1,121.63,44a4.37,4.37,0,0,1,4-2.11,6.23,6.23,0,0,1,1.47.2,4.76,4.76,0,0,1,1.38.51l.11.07Z"/><polygon class="cls-1" points="158.59 41.15 148.05 41.15 148.05 29.04 141.21 29.04 141.21 62.22 148.05 62.22 148.05 46.95 158.59 46.95 158.59 62.22 165.43 62.22 165.43 29.04 158.59 29.04 158.59 41.15"/><path class="cls-1" d="M181.65,36.39A10.61,10.61,0,0,0,173.11,40c-2,2.41-3.07,5.7-3.07,9.77s1.1,7.36,3.27,9.6,5.32,3.35,9.41,3.35a19.28,19.28,0,0,0,2.86-.18,20.84,20.84,0,0,0,2.3-.53,14.47,14.47,0,0,0,1.92-.65c.42-.21.91-.42,1.43-.64V54.85h-.45c-.3,0-.67.41-1.12.72a15.14,15.14,0,0,1-1.6.89,11.44,11.44,0,0,1-2.18.8,10.5,10.5,0,0,1-5.08,0,5.79,5.79,0,0,1-2.17-1.06,5.43,5.43,0,0,1-1.54-2,9.14,9.14,0,0,1-.67-3.17v-.38h15.35V48.28c0-3.82-1-6.8-2.61-8.84s-4.21-3-7.5-3m-5.26,10v-.18a6.5,6.5,0,0,1,1.31-3.86,4.15,4.15,0,0,1,3.35-1.45,3.67,3.67,0,0,1,3.14,1.43,6.62,6.62,0,0,1,1.06,3.88v.18Z"/><path class="cls-1" d="M211.77,38.59c-1.69-1.41-4.5-2.13-8.23-2.13a27.11,27.11,0,0,0-7.56,1.2v5.6h.1A20.25,20.25,0,0,1,199.25,42a10,10,0,0,1,2.94-.51,8.81,8.81,0,0,1,4.3.85,3.42,3.42,0,0,1,1.6,3.13v.39l-.36,0c-2,.15-3.92.37-5.64.63a13.45,13.45,0,0,0-4.41,1.42,6.91,6.91,0,0,0-2.75,2.66A8.9,8.9,0,0,0,194,55a8.27,8.27,0,0,0,1.86,5.53,6,6,0,0,0,4.68,2.17,8.19,8.19,0,0,0,2.38-.26,8.57,8.57,0,0,0,1.76-.77,7.26,7.26,0,0,0,1.44-1c.39-.36.67-.77,1.15-1.24l.32-.41v3.21h6.85V45a8,8,0,0,0-2.64-6.45m-5.88,18.67a4.35,4.35,0,0,1-1.93.51,4.07,4.07,0,0,1-2.62-.73,3.23,3.23,0,0,1-.94-2.66,3.63,3.63,0,0,1,.56-2.11,3.25,3.25,0,0,1,1.53-1.18,8.14,8.14,0,0,1,2.18-.6c.73-.1,1.55-.22,2.72-.35l.17,0v5.69l.06.08a5.83,5.83,0,0,1-1.73,1.39"/><rect class="cls-1" x="219.67" y="27.46" width="6.32" height="34.76"/><path class="cls-1" d="M238.63,30.09h-6.32V37h-2.64v5.26h2.64v12.1c0,2.94.65,5.07,1.88,6.33s3.24,1.91,6,1.91a19.9,19.9,0,0,0,3.11-.19,13.39,13.39,0,0,0,2.2-.46V57h-.33a7.85,7.85,0,0,0-1.25.38,4.84,4.84,0,0,1-1.52.24,3.91,3.91,0,0,1-2.19-.53,2.64,2.64,0,0,1-1.08-1.4,6,6,0,0,1-.39-1.87c0-.67-.08-1.45-.08-2.33V42.21h6.84V37h-6.84Z"/><path class="cls-1" d="M267.32,38.83a5.84,5.84,0,0,0-5-2.34,6.89,6.89,0,0,0-3.45.88,18.17,18.17,0,0,0-3.35,2.54l-.53.45V27.47h-6.32V62.22H255v-18l.17-.08a8.11,8.11,0,0,1,1.95-1.19,5,5,0,0,1,1.86-.39,4.05,4.05,0,0,1,1.92.41A2.7,2.7,0,0,1,262,44.3a8.93,8.93,0,0,1,.32,2.34c.06,1,0,2.06,0,3.09V62.22h6.85V45.79a11.71,11.71,0,0,0-1.86-7"/><rect class="cls-2" width="303.32" height="83.74"/></g></g></svg>