<svg xmlns="http://www.w3.org/2000/svg" viewBox="0 0 228.26 83.74"><defs><style>.cls-1{fill:#ffc4e3;fill-rule:evenodd;}.cls-2{fill:none;}</style></defs><title>Asset 11</title><g id="Layer_2" data-name="Layer 2"><g id="Layer_1-2" data-name="Layer 1"><polygon class="cls-1" points="34.01 25.06 48.13 25.06 48.13 25.46 44.66 25.46 55.2 54.32 64.1 25.46 60.6 25.46 60.6 25.06 68.22 25.06 68.22 25.46 64.85 25.46 52.31 65.35 37.73 25.46 34.01 25.46 34.01 25.06"/><path class="cls-1" d="M129.09,24.36V38.22h-.32a25,25,0,0,0-2.9-7.79c-1.74-2.82-4.51-6-8.13-6-8.3,0-9.06,14.88-9.06,20.55,0,5.08.41,10.32,2.26,15.08,1.29,3.34,3.16,5,6.63,5a8.52,8.52,0,0,0,7.15-3.79,3.74,3.74,0,0,0,.41-2V48.53H121.5v-.42h13.28v.42h-3.1v16h-.28a4.14,4.14,0,0,0-3.6-2.16,6.9,6.9,0,0,0-3.27,1l-.9.49a15,15,0,0,1-6.22,1.55c-10.31,0-15.79-11-15.79-20.1,0-6.66,2.54-13.79,7.94-17.95A14.05,14.05,0,0,1,118,24.09a10,10,0,0,1,3.56.82l.82.32a8.92,8.92,0,0,0,3,.69,6,6,0,0,0,3.36-1.56Z"/><path class="cls-1" d="M133.05,25.06h14.17v.4h-3.76V56.22c0,4.82,5,7.75,9.3,7.75,4.68,0,8.61-3.25,8.61-8V25.46h-4.44v-.4h36.56V39.33h-.27c-.43-3.78-1.15-7.65-3.75-10.6s-6.2-3.27-9.87-3.27h-4V43.81a22.44,22.44,0,0,0,2.47.15c5,0,6.27-3.43,6.48-7.67H185v16.1h-.37c-.62-3.85-2.32-8-6.83-8-.71,0-1.41,0-2.12.1V64.15h5.94a12.07,12.07,0,0,0,8.31-3.49,12.63,12.63,0,0,0,3.6-6.78,35.22,35.22,0,0,0,.44-4.35h.32v15H165.67v-.4H169V25.46h-7v30.6c0,6.33-6,9.13-11.64,9.13-6.38,0-13.4-3.09-13.4-10.38V25.46h-3.88Z"/><path class="cls-1" d="M93.24,30.4c-2.86-3.54-7.31-6.2-12-6.2-5,0-9.59,2.8-12.61,6.72a23.11,23.11,0,0,0-4.54,14A23.22,23.22,0,0,0,69,59.52c2.91,3.58,7.39,6.21,12.08,6.21,5,0,9.52-2.85,12.51-6.74a23.16,23.16,0,0,0,4.55-14A23.27,23.27,0,0,0,93.24,30.4M81.15,65.13c-7.81,0-9.85-14.39-9.85-20.17s2-20.16,9.85-20.16S91,39.2,91,45,89,65.13,81.15,65.13"/><rect class="cls-2" width="228.26" height="83.74"/></g></g></svg>