<svg xmlns="http://www.w3.org/2000/svg" viewBox="0 0 300.26 83.74"><defs><style>.cls-1{fill:#fff;}.cls-2{fill:none;}</style></defs><title>Asset 16</title><g id="Layer_2" data-name="Layer 2"><g id="Layer_1-2" data-name="Layer 1"><path class="cls-1" d="M43.72,39.2l.09-.09a7.79,7.79,0,0,1,7-3.81C56.19,35.3,61,39.43,61,47.93c0,6.75-3,13.16-10.24,13.16a7.73,7.73,0,0,1-7-3.7l-.09-.09v3.05H37.41V27.54h6.31ZM48.93,41c-4,0-5.44,3.8-5.44,7.22,0,2.75.82,7.5,5.44,7.5s5.44-4.75,5.44-7.5C54.37,44.78,53,41,48.93,41"/><path class="cls-1" d="M76.49,35.3c7.82,0,12.44,5.4,12.44,12.9S84.31,61.09,76.49,61.09,64.06,55.7,64.06,48.2s4.75-12.9,12.43-12.9m0,20.4c4.57,0,5.85-3.65,5.85-7.5s-1.28-7.5-5.85-7.5c-4.34,0-5.86,3.8-5.86,7.5s1.52,7.5,5.86,7.5"/><path class="cls-1" d="M115.52,60.35h-6.18V57.3l-.08.09a7.71,7.71,0,0,1-7,3.7C95,61.09,92,54.68,92,47.93c0-8.5,4.76-12.63,10.11-12.63a7.81,7.81,0,0,1,7,3.81l.08.09V27.54h6.31ZM104,55.7c4.61,0,5.43-4.75,5.43-7.5C109.44,44.78,108,41,104,41s-5.44,3.8-5.44,7.22c0,2.75.82,7.5,5.44,7.5"/><path class="cls-1" d="M134.07,60c-2.87,8.36-3.56,10.1-9.82,10.1-.82,0-1.47,0-2.47-.14V64.79c.51,0,1.37.15,1.87.15a3.46,3.46,0,0,0,3.57-3.31L118.31,36h7.09L130.6,54h.1l5-17.92h6.76Z"/><polygon class="cls-1" points="157.79 39.37 157.79 47.64 166.05 47.64 166.05 52.09 157.79 52.09 157.79 60.35 153.34 60.35 153.34 52.09 145.07 52.09 145.07 47.64 153.34 47.64 153.34 39.37 157.79 39.37"/><path class="cls-1" d="M184.55,43.33v-.79a4.53,4.53,0,0,0-.4-1.95A3.1,3.1,0,0,0,183,39.27a8,8,0,0,0-1.3-.68,8.92,8.92,0,0,0-3.39-.68A5,5,0,0,0,174.81,39a3.84,3.84,0,0,0-1.3,3,3,3,0,0,0,1.36,2.64,14.48,14.48,0,0,0,5,1.61c3,.57,5.18,1.34,6.4,2.29a4.78,4.78,0,0,1,1.84,4A7.49,7.49,0,0,1,184.89,59a13.84,13.84,0,0,1-8.49,2.41,20.44,20.44,0,0,1-3.27-.33,28.4,28.4,0,0,1-3.58-.9q.31-2.12.45-3.63a34.9,34.9,0,0,0,.09-3.56h1.54v2.26a3.46,3.46,0,0,0,.27,1.35,3.24,3.24,0,0,0,.68,1,6.88,6.88,0,0,0,1.78,1.18,9.11,9.11,0,0,0,3.72.72,7.44,7.44,0,0,0,4.55-1.26,4.09,4.09,0,0,0,1.68-3.43A3.25,3.25,0,0,0,183,52a13.42,13.42,0,0,0-4.86-1.61c-3-.57-5.15-1.37-6.38-2.42a5.67,5.67,0,0,1-1.81-4.56,6.2,6.2,0,0,1,2.61-5.19,11.24,11.24,0,0,1,6.89-2,17.23,17.23,0,0,1,3.38.37,22.78,22.78,0,0,1,3.46,1c-.13,1.1-.21,2-.25,2.85s0,1.77,0,2.89Z"/><path class="cls-1" d="M194.74,57.81a13.1,13.1,0,0,1-3.28-9.22,11.63,11.63,0,0,1,3.64-8.89,13,13,0,0,1,9.37-3.45,11.55,11.55,0,0,1,8.47,3.23,11.18,11.18,0,0,1,3.28,8.35,13.47,13.47,0,0,1-3.63,9.75,12.42,12.42,0,0,1-9.37,3.79,11,11,0,0,1-8.48-3.56M209.55,57a12.63,12.63,0,0,0,1.86-7.32c0-3.65-.74-6.52-2.21-8.63a6.91,6.91,0,0,0-6-3.17,6.11,6.11,0,0,0-5.08,2.39,10.54,10.54,0,0,0-1.86,6.56c0,4,.74,7.1,2.19,9.39a6.82,6.82,0,0,0,6,3.46A5.88,5.88,0,0,0,209.55,57"/><path class="cls-1" d="M227.29,36.76V52.12c0,2.29.42,3.87,1.24,4.77s2.29,1.36,4.37,1.36a6,6,0,0,0,4.39-2.09,10.47,10.47,0,0,0,1.65-2.24,4.52,4.52,0,0,0,.36-.88,3.86,3.86,0,0,0,.12-.91V43.78a8.7,8.7,0,0,0-.36-3.31c-.22-.43-.83-.64-1.8-.64h-2V38.39c1.59-.25,2.92-.52,4.05-.8s2.45-.73,4-1.28l.48.41V55a8.35,8.35,0,0,0,.34,3.1c.22.43.79.67,1.72.71l1.95.16v1.53c-1.66-.1-3.08-.16-4.26-.16s-2.65.06-4.3.16c.08-.91.15-1.71.21-2.41l.07-2.24a57.81,57.81,0,0,1-4.88,4.31,7.75,7.75,0,0,1-4.52,1.2c-2.48,0-4.29-.59-5.39-1.74S223,56.57,223,54V43.78a9.24,9.24,0,0,0-.35-3.31c-.24-.43-.85-.64-1.8-.64h-2V38.39c1.57-.27,2.91-.54,4-.8s2.44-.73,4-1.28l.47.41Z"/><path class="cls-1" d="M254.27,55V29a4.64,4.64,0,0,0-.31-2.1c-.21-.31-.64-.47-1.34-.47h-2.55V24.93a38.45,38.45,0,0,0,4-.71c1.11-.27,2.44-.67,4-1.2l.48.44h0V55a8.1,8.1,0,0,0,.36,3.09c.25.42.86.65,1.84.72l2.1.16V60.5c-2.5-.09-4.64-.15-6.45-.15s-4,.06-6.43.15V59l2.08-.16c1-.07,1.6-.3,1.85-.72a7.82,7.82,0,0,0,.37-3.09"/><rect class="cls-2" width="300.26" height="83.74"/></g></g></svg>