<svg xmlns="http://www.w3.org/2000/svg" viewBox="0 0 317.87 83.74"><defs><style>.cls-1,.cls-2{fill:#fff;}.cls-1{fill-rule:evenodd;}.cls-3{fill:none;}</style></defs><title>Asset 9</title><g id="Layer_2" data-name="Layer 2"><g id="Layer_1-2" data-name="Layer 1"><path class="cls-1" d="M150.76,28.63a9.14,9.14,0,0,0-9.84-3.23c-3.59.81-6.09,4.53-6.95,7.85-1.73,6.3-1.64,13.89-.73,20.55.73,4.09,2.2,8.8,6.56,10.48,3.19,1.25,7.42.81,9.88-1.73,4.06-4.27,4.45-10.18,4.74-16,.13-6-.21-11.73-2.8-16.66ZM147,54.74c-.47,1.73-.9,4.06-3,4.54a2.77,2.77,0,0,1-2.77-1c-1.55-2.24-1.6-5.14-1.77-7.94-.25-6-.65-12.39,1.21-17.73a3.23,3.23,0,0,1,2.42-1.86A2.83,2.83,0,0,1,146,32.26c1.21,2.2,1.25,4.91,1.55,7.51a66.09,66.09,0,0,1-.52,15"/><path class="cls-1" d="M70.87,25.13a9.54,9.54,0,0,0-8.24,5.79,36.7,36.7,0,0,0-2.37,13.72c.17,6.13.13,12.39,3.66,17.09,2,2.68,5,3.59,8.2,3.25a9.3,9.3,0,0,0,7.38-5.4C81.57,55,82,49.74,82,44.43s-.44-10.5-2.89-14.8a9,9,0,0,0-8.25-4.5M74,57.07a3.41,3.41,0,0,1-2.55,2.37,2.55,2.55,0,0,1-2.33-.68c-1.3-1.25-1.38-2.94-1.72-4.53a70.52,70.52,0,0,1,.34-19c.44-1.68.82-4,2.94-4.4a2.92,2.92,0,0,1,3.19,1.77c1.56,3.67,1.42,8,1.47,12.25-.13,4.24,0,8.51-1.34,12.26"/><path class="cls-1" d="M99.1,46c-2.94-3.15-7.9-4.74-8.94-9.19-.21-2.16-.39-4.88,1.77-6a2.56,2.56,0,0,1,1.94,0,3.85,3.85,0,0,1,1.65,2.82,32.43,32.43,0,0,1,.25,4.67h6.13a17,17,0,0,0-1.38-8.87A8.17,8.17,0,0,0,96.76,26a9.43,9.43,0,0,0-9.52,1c-3.42,2.84-4.32,7.51-3.37,11.7,1.11,4.87,6.38,7.5,9.83,10.87A6.94,6.94,0,0,1,96,56c-.18,1.52-.86,3.24-2.5,3.63a2.69,2.69,0,0,1-2.38-.56c-2-2.07-1.55-5.36-1.55-8.25,0,0-4.28,0-6.35,0-.3,3.89,0,8,2.37,11,2.38,2.76,6,3.53,9.5,2.9A9,9,0,0,0,102,58c1.12-4.18.43-9-2.89-12"/><path class="cls-1" d="M186.74,25.26c-3.27.17-6.21,2.86-7.37,5.79-2.19,5.39-2.33,11.83-2.07,18,.52,5.92,1.12,12.78,7.39,15.42,3.22,1.11,7.28.6,9.74-2,3.59-4,4.19-9.19,4.58-14.49.12-6-.09-12.05-2.34-17.14a9.39,9.39,0,0,0-9.93-5.66m4.84,30.25c-.43,1.44-1,3.21-2.54,3.77a3,3,0,0,1-3.28-1.09c-1-1.29-1-3-1.38-4.57a70.46,70.46,0,0,1,0-18.12c.3-1.69.82-3.46,2.42-4.41a2.89,2.89,0,0,1,3.23.61c1.61,2.11,1.69,4.87,2,7.55a67.91,67.91,0,0,1-.52,16.26"/><path class="cls-1" d="M58.75,48.71H52.31c-.21,3.35,0,6.85-1.42,9.65a2.35,2.35,0,0,1-2.5,1.13c-1.21-.3-1.82-1.6-2.2-2.67-1.56-6.09-1.47-13.47-.91-19.91.26-2,.48-4,1.94-5.55a2.54,2.54,0,0,1,2.21-.28c1.37.66,1.8,2.13,2.07,3.47.34,1.89.34,4,.56,6h6.38a22,22,0,0,0-2.32-11,8.62,8.62,0,0,0-9.72-3.92c-4.49.9-6.51,5.64-7.3,9.57,0,.44-.29.95-.07,1.3-.06,0-.18,0-.18.13A61.22,61.22,0,0,0,38.33,47c.39,5.34.61,10.79,3.75,15,2.34,3,6.31,3.67,9.8,2.64,5.61-2.07,6.69-8.2,7-13.56a9.13,9.13,0,0,0-.12-2.4"/><path class="cls-1" d="M117.48,48.18l-.13.25c-1.55-7.37-3.1-14.92-4.53-22.35H104v38h5.84V38l3.26,16.26c.69,3.28,2,9.88,2,9.88h4.66l5.26-25V64.12h5.72V26.05h-8.57Z"/><path class="cls-1" d="M167.5,26.05l-11.22,0v38h6.54V50.77h3.73a9,9,0,0,0,6.91-3c3.75-3.88,4-10.43,2.24-15.37-1.34-3.23-4.57-6.21-8.2-6.33m1,17.9c-1.38,1.68-3.52,1.6-5.59,1.6V31.61c.09-.13-.06-.34.19-.31,2.38-.21,4.93.18,6,2.51,1.37,3,1.5,7.46-.61,10.14"/><polygon class="cls-1" points="207.96 26.05 201.49 26.05 201.49 64.1 214.57 64.1 214.57 59.01 207.96 59.01 207.96 26.05"/><rect class="cls-2" x="216.16" y="26.05" width="6.38" height="38.11"/><polygon class="cls-1" points="241.03 26.05 223.65 26.05 223.65 31.52 229.26 31.52 229.26 64.14 235.49 64.14 235.49 31.45 241.03 31.45 241.03 26.05"/><path class="cls-1" d="M244.41,26.05,238.2,64.17h6.29l1.73-10.64h5.66l1.8,10.63h6L253.3,26.05Zm2.5,22.2,2-13.79,0-.17c.73,4.61,2.07,14,2.07,14Z"/><path class="cls-1" d="M274.21,26.05V49.3s-6.06-23.25-6.06-23.25H261V64.12h5.39v-24c.26.78,6.31,24,6.31,24h6.83V26.05Z"/><rect class="cls-3" width="317.87" height="83.74"/></g></g></svg>