<svg xmlns="http://www.w3.org/2000/svg" viewBox="0 0 186.89 83.74"><defs><style>.cls-1{fill:#d1067f;fill-rule:evenodd;}.cls-2{fill:none;}</style></defs><title>Asset 18</title><g id="Layer_2" data-name="Layer 2"><g id="Layer_1-2" data-name="Layer 1"><polygon class="cls-1" points="64.39 41.16 64.39 7.86 84.97 7.86 85.58 16.94 74.08 16.94 74.08 21.18 83.76 21.18 83.76 30.26 74.08 30.26 74.08 41.16 64.39 41.16 64.39 41.16"/><polygon class="cls-1" points="144.9 41.16 134.61 23.6 144.29 7.86 133.4 7.86 129.77 15.13 125.53 7.86 114.63 7.86 124.32 24.21 114.63 41.16 124.92 41.16 129.77 32.68 134.61 41.16 144.9 41.16 144.9 41.16"/><path class="cls-1" d="M105,31.47l.6-13.92a3.24,3.24,0,0,0-3-3,2.86,2.86,0,0,0-3,3V31.47a2.86,2.86,0,0,0,3,3,2.77,2.77,0,0,0,2.42-3ZM85.58,24.81a16.92,16.92,0,0,1,17-16.95,17.32,17.32,0,0,1,17,17c0,9.08-7.87,16.35-17,16.35-9.69,0-17-7.27-17-16.35Z"/><polygon class="cls-1" points="68.02 46.6 87.39 46.6 87.39 53.87 75.29 53.87 75.29 58.1 85.58 58.1 85.58 64.76 75.29 64.76 75.29 69.61 87.39 69.61 87.39 76.87 68.02 76.87 68.02 46.6 68.02 46.6"/><polygon class="cls-1" points="89.21 46.6 96.47 46.6 100.11 64.16 103.74 46.6 110.4 46.6 114.03 64.16 117.66 46.6 124.32 46.6 117.05 76.87 110.4 76.87 106.76 59.32 103.13 76.87 95.87 76.87 89.21 46.6 89.21 46.6"/><path class="cls-1" d="M129.77,66c.6,3,2.42,4.24,5.44,4.24a2.22,2.22,0,0,0,2.43-2.42c0-2.42-1.82-1.82-4.85-3-6-1.81-9.08-4.23-9.08-9.08,0-6,4.24-10.29,11.5-10.29,4.85,0,8.48,3,10.3,7.87l-6.66,1.82c-1.21-1.82-2.43-3-4.24-3a2.77,2.77,0,0,0-3,2.42c0,1.82,1.82,1.82,4.84,3a18.48,18.48,0,0,1,7.27,3,9.24,9.24,0,0,1,2.42,6,12.72,12.72,0,0,1-2.42,6.66,12.32,12.32,0,0,1-9.08,3.63c-6.66,0-10.9-3-12.11-9.08L129.77,66Z"/><polygon class="cls-1" points="58.34 46.6 58.34 61.74 49.26 46.6 40.78 46.6 40.78 76.87 48.05 76.87 48.05 59.32 58.94 76.87 66.21 76.87 66.21 46.6 58.34 46.6 58.34 46.6"/><rect class="cls-2" width="186.89" height="83.74"/></g></g></svg>