<svg xmlns="http://www.w3.org/2000/svg" viewBox="0 0 422.81 83.74"><defs><style>.cls-1{fill:#fff;}.cls-2{fill:none;}</style></defs><title>Asset 19</title><g id="Layer_2" data-name="Layer 2"><g id="Layer_1-2" data-name="Layer 1"><path class="cls-1" d="M38.78,51.54V37.73l-4.15,1.86a13.71,13.71,0,0,0-.88,5.81,14.3,14.3,0,0,0,2.81,7.25l2.22-1.11M50.94,23.11a7.16,7.16,0,0,1,3.85,1.66,5,5,0,0,1,1.13,4.87A5,5,0,0,1,53.5,33,6.46,6.46,0,0,1,50,34v6.66l3.24,2.62L50,45.9V55a14.69,14.69,0,0,0,5.26-6s.08-.23.27-.66a11.94,11.94,0,0,1-1.19,6.27,11.69,11.69,0,0,1-4.85,5.49,13.08,13.08,0,0,1-9.81,1.69,13.92,13.92,0,0,1-9.15-6.32,15.16,15.16,0,0,1-2.22-8.53c.13-6.14,4.69-11.43,10-13.4A5.44,5.44,0,0,1,40.08,33c-.42.29-.9.66-1.5,1a11.09,11.09,0,0,0-3.77,5.05L45,34.53v14.3L36.79,53A10.75,10.75,0,0,0,43,56.52a9.8,9.8,0,0,0,6.59-1.35V45.9L46.4,43.29l3.22-2.61V34a43.39,43.39,0,0,1-5.14-1.09c-1.83-.45-7.95-2.17-8.91-2.31a3.63,3.63,0,0,0-2.86.54A2.86,2.86,0,0,0,31.85,34a3.05,3.05,0,0,0,.88,1.25,2.68,2.68,0,0,1-1-.41,4.68,4.68,0,0,1-2.14-3.72,6.17,6.17,0,0,1,2.58-5.49,7.76,7.76,0,0,1,5.41-1.37c3,.43,7.06,2.14,10.67,3a4.47,4.47,0,0,0,3.46-.12,1.7,1.7,0,0,0,.61-2.31c-.77-1.33-2.24-1.3-3.49-1.53A5.14,5.14,0,0,1,50.94,23.11Z"/><path class="cls-1" d="M90.75,48l-4.65,3.4V40L90.75,48m-.13-10.89-5.24,3.16c-2.11,1.25-4.94,2.63-4.94,2.63V56l-1.88,1.51.25.29,1.84-1.48,5.76,5.21,10-7.94-.24-.28-5.54,4.34L86.1,53.42V51.83l9.14-6.72Z"/><path class="cls-1" d="M64.36,66.52a9.32,9.32,0,0,0,6.43-.9,8.89,8.89,0,0,0,4.64-8.22l.13-4.78V42.18l2-1.52-.23-.29-2,1.47-4.5-5-5.77,4.95V25l-7.21,5.58a1.87,1.87,0,0,1,1.37,1.83V55.94l-3,2.27.21.32,1.47-1.1L62,61.24l6.46-5.14-.23-.29L66.7,57l-1.61-1.59,0-13.15L67,40.67l2.81,3.49s0,8.51,0,11.33c0,3,0,6.77-1.61,8.58a6.14,6.14,0,0,1-3.83,2.45"/><path class="cls-1" d="M109.21,65.33c-2.58-.3-3.66-1.86-3.63-3.1a2.81,2.81,0,0,1,2.3-2.55,5.1,5.1,0,0,1,4.53,2.11l6-6.59-.29-.26-1.6,1.79a10.4,10.4,0,0,0-6.24-3.35V33.3l15.49,28.22s.15.32.79.32.41-.45.41-.45V33a7.13,7.13,0,0,0,4.11-1.7c3-3.07,1.77-6.41,1.44-6.74a3.24,3.24,0,0,1-3.18,2.94,5.48,5.48,0,0,1-4-1.81l-6,6.8.28.25,1.71-2A7.34,7.34,0,0,0,126.56,33V49.47L115.07,28.6A5.94,5.94,0,0,0,110,25.34,5.39,5.39,0,0,0,104.82,30c-.27,2.44,0,3,0,3s.42-2.73,2.11-2.7c1.51,0,2.3,1.41,2.91,2.46v6c-1.56.1-5.63.28-5.88,4.51a4.92,4.92,0,0,0,1.82,3.78,3.75,3.75,0,0,0,2,.71,1.85,1.85,0,0,1-.93-2.08c.36-1.25,2.94-1.45,3-.93v8.53c-1.24,0-5.22.12-7,3.53a5.75,5.75,0,0,0,.14,6,6,6,0,0,0,6.22,2.45"/><path class="cls-1" d="M142.06,48l-4.64,3.4V40L142.06,48m-.13-10.89s-3.13,1.9-5.24,3.16-4.93,2.63-4.93,2.63V56l-1.89,1.51.25.29L132,56.35l5.76,5.21,10-7.94-.24-.28L142,57.68l-4.55-4.26V51.83l9.14-6.72Z"/><path class="cls-1" d="M155.93,61.66,151,57.58l-2.15,1.56-.22-.31,2.19-1.6V45.82c.11-4.7-4.3-3.53-4.06-8.52.1-2.19,2.22-3.84,3.29-4.39a6,6,0,0,1,2.39-.58s-2,1.25-1.52,3.06c.75,2.79,5.51,3,5.6,6.75V55.08l3.52,2.82.92-.72v-14l-1.89-1.88L164,37l4.46,3.95-1.7,1.85V55.18l4.18,3.44.74-.47V43.2l-1.9-1.78L174.64,37l4.58,3.78L181,39.11l.25.29L177.18,43V55.2l-10.52,6.49-5.39-4.26-5.34,4.23"/><path class="cls-1" d="M371.33,48l-4.65,3.4V40L371.33,48m-.13-10.89L366,40.22c-2.11,1.25-4.94,2.63-4.94,2.63V56l-1.88,1.51.25.29,1.84-1.48L367,61.56l10-7.94-.24-.28-5.53,4.34-4.56-4.26V51.83l9.15-6.72Z"/><polyline class="cls-1" points="324.17 42.58 324.41 42.86 326.3 41.23 329.1 44.41 329.1 55.3 327.74 56.54 332.1 61.47 336.58 57.06 334.74 55.15 334.74 41.98 335.86 41.09 338.95 44.71 338.95 55.57 337.79 56.73 341.9 61.35 346.29 56.95 344.68 55.26 344.63 42.03 345.82 41.07 349.05 44.62 349.05 55.42 347.99 56.48 352.53 61.43 358.62 55.81 358.36 55.53 356.88 56.89 354.61 54.38 354.61 42.05 356.8 40.38 356.57 40.08 354.38 41.75 350.24 37.1 344.31 41.78 340.16 37.27 334.43 41.75 330.25 37.29 324.17 42.58"/><polyline class="cls-1" points="311.76 42.24 312.01 42.52 313.6 41.15 316.1 44.1 316.1 56.55 314.34 58.08 314.58 58.37 316.43 56.79 320.45 61.43 326.26 56.24 326.02 55.96 324.31 57.46 321.9 54.69 321.9 42.52 323.93 40.77 323.69 40.48 321.76 42.14 317.53 37.21 311.76 42.24"/><polyline class="cls-1" points="313.44 31.93 317.81 27.92 321.37 31.87 316.98 35.86 313.44 31.93"/><path class="cls-1" d="M295.39,51.54V37.73l-4.15,1.86a13.63,13.63,0,0,0-.87,5.81,14.21,14.21,0,0,0,2.8,7.25l2.22-1.11m12.17-28.43a7.16,7.16,0,0,1,3.84,1.66,5,5,0,0,1,1.13,4.87,5,5,0,0,1-2.42,3.4,6.46,6.46,0,0,1-3.5,1v6.66l3.24,2.62-3.24,2.61V55a14.69,14.69,0,0,0,5.26-6s.08-.23.27-.66A12,12,0,0,1,311,54.56a11.8,11.8,0,0,1-4.85,5.49,13.11,13.11,0,0,1-9.82,1.69,13.92,13.92,0,0,1-9.15-6.32,15.16,15.16,0,0,1-2.22-8.53c.13-6.14,4.69-11.43,10-13.4a5.38,5.38,0,0,1,1.8-.49c-.42.29-.9.66-1.5,1a11.16,11.16,0,0,0-3.77,5.05l10.23-4.57v14.3L293.4,53a10.79,10.79,0,0,0,6.24,3.55,9.8,9.8,0,0,0,6.59-1.35V45.9L303,43.29l3.22-2.61V34a42.77,42.77,0,0,1-5.13-1.09c-1.84-.45-8-2.17-8.92-2.31a3.63,3.63,0,0,0-2.86.54,2.86,2.86,0,0,0-.86,2.81,3.15,3.15,0,0,0,.88,1.25,2.68,2.68,0,0,1-1-.41,4.68,4.68,0,0,1-2.14-3.72,6.17,6.17,0,0,1,2.58-5.49,7.76,7.76,0,0,1,5.41-1.37c3,.43,7.06,2.14,10.67,3a4.47,4.47,0,0,0,3.46-.12,1.69,1.69,0,0,0,.61-2.31c-.77-1.33-2.24-1.3-3.49-1.53A5.18,5.18,0,0,1,307.56,23.11Z"/><path class="cls-1" d="M384.24,39.61v6.54l2.18,1.9s4.73-3.79,6.45-7.3c0,0-2.13,2.89-5,2a6.86,6.86,0,0,1-3.64-3.15M379,57s2.08-3.43,5.64-2.69,4.6,4.32,4.6,4.32V50.28l-2.39-2.07C384.19,50.84,379.53,54.64,379,57Zm3.4,6.3a4.31,4.31,0,0,1-4.24-3.49c-.68-2.92,1.34-4.89,4.4-8l-3.61-3.3v-6.3s2.65-1.32,4.73-2.62,4.21-2.71,4.21-2.71,1.55,2,3.3,1.8c2.74-.24,2.61-2.4,2.53-2.91.47.83,1.73,3.32-3.09,8.88l3.92,3.17V56a79.09,79.09,0,0,0-8.87,5.51s-2.41-3-4.5-1.57C379.72,60.88,380.37,62.52,382.35,63.26Z"/><path class="cls-1" d="M224.57,54l5.07,4.59v-14l-5.07-4.69V54M235,42.5l1.77-1.63.25.29-1.72,1.6v13s-3.27,1.73-5.55,3-4.72,2.8-4.72,2.8l-6-5-1.58,1.38-.26-.29,1.67-1.45v-14h0s2.83-1.28,5.22-2.62c2.13-1.21,4.52-2.6,4.52-2.6Z"/><path class="cls-1" d="M246.82,41.18l3.81-3.89a5.5,5.5,0,0,0,1,.7,2.74,2.74,0,0,0,2.49.15,4.79,4.79,0,0,0,1.29-1,6.16,6.16,0,0,1-3.14,6c-.74.36-2.91,1.05-5.18-1.71v14l2.42,2.13,2-1.67.23.3-6.3,5.26-4.8-4.36-1.73,1.62-.28-.3,2.63-2.37,0-12.08-2-2.67-1.73,1.52-.25-.27,6.11-5.49,3.41,4.09"/><path class="cls-1" d="M262.89,47l7-10.25a5.42,5.42,0,0,0,2.55,1.53c2.2.57,4.12-1.55,4.12-1.55-.37,2.74-1.76,5.85-4.63,6.33-2.52.42-4.87-1.55-4.87-1.55l-.46.71L276.42,57l2-1.71.25.28-6.71,5.87-9-14.43"/><path class="cls-1" d="M257.07,33.33c0-2.22-.91-3.58-2.1-3.48l7.69-5.4V55h0l2,2.14,1.54-1.34.24.29-6.19,5.41-4.2-3.94-1.68,1.48-.27-.29,2.94-2.55V33.33"/><path class="cls-1" d="M207.72,41.92a3.15,3.15,0,0,1-2.19,1,3.24,3.24,0,0,1-2.21-1V46.1a3.24,3.24,0,0,1,2.21-1,3.2,3.2,0,0,1,2.19.92V41.92m0-9-3-2.6-1.43,1.13v9.81a3.12,3.12,0,0,0,2.22,1.11,3,3,0,0,0,2.18-1.07Zm-4.4,27.8a3.82,3.82,0,0,0,3.1-.6,3.57,3.57,0,0,0,1.3-2.87V46.69a3,3,0,0,0-2.18-1.09,3.11,3.11,0,0,0-2.22,1.13ZM192.81,32.82c0-2.06-.83-3.21-2.19-3.24-2,0-2.42,2.71-2.42,2.71a5.17,5.17,0,0,1,1.42-4.05,5.71,5.71,0,0,1,5.78-1.89,4.87,4.87,0,0,1,3.87,5.13V59.9s1.13.14,1.91.31,1.77.43,1.77.43V26.36h.37V31l6.17-5L214,30l2.1-1.82.24.28-2.2,1.9V56.83c-.11,1.73-.39,3.48-2,4.49-3.64,2.15-8-.33-11.92-.9-2.9-.43-7.45-1-8.59,1.68a2.46,2.46,0,0,0,1,3.1c2.64,1.77,14.38-3,18.41-1.08,3.67,1.71,3.66,4.41,3.09,6.27-1,3.49-5.36,4.1-5.36,4.1s2.16-1.25,1.54-3.32c-.31-1-1-1.34-3.32-1.09-5,.58-11.05,3-15.1,1.32a6.27,6.27,0,0,1-3.41-6c.1-3.68,4.35-5.13,4.35-5.13V46.61c-.12-.54-2.39-.4-2.88.6a1.6,1.6,0,0,0,.93,2.21,3,3,0,0,1-2.57-1.14,4.29,4.29,0,0,1-.22-5.13c1.28-1.77,2.81-2.08,4.74-2.29Z"/><rect class="cls-2" width="422.81" height="83.74"/></g></g></svg>