<svg xmlns="http://www.w3.org/2000/svg" viewBox="0 0 235.15 83.74"><defs><style>.cls-1{fill:#fff;fill-rule:evenodd;}.cls-2{fill:none;}</style></defs><title>Asset 17</title><g id="Layer_2" data-name="Layer 2"><g id="Layer_1-2" data-name="Layer 1"><polygon class="cls-1" points="73.39 61.61 77.25 61.61 75.3 58.33 73.39 61.61"/><path class="cls-1" d="M106.29,58.42H101.4v2.27h4.89a1.16,1.16,0,0,0,.86-.26,1.46,1.46,0,0,0,.25-1,1,1,0,0,0-.27-.8A1.16,1.16,0,0,0,106.29,58.42Z"/><path class="cls-1" d="M35,52.56v16H200.49v-16ZM52.32,65.39H49.17V61.77H42.72v3.62H39.58V56.1h3.14v3.42h6.45V56.1h3.15Zm27,0-1-1.54H72.23l-1,1.54H67.9l5.49-9.29h3.92l5.39,9.29Zm30.72-3a1.65,1.65,0,0,1,.4,1.15v1.9h-3.08V64a.88.88,0,0,0-.28-.76A2.14,2.14,0,0,0,106,63H101.4v2.37H98.31V56.1h8.09a5.68,5.68,0,0,1,3.26.66,2.82,2.82,0,0,1,.87,2.39,3.28,3.28,0,0,1-.39,1.79,2,2,0,0,1-1.29.79A2.21,2.21,0,0,1,110.05,62.34Zm24.91,3h-3.71L126,56.1h3.33l3.76,6.67,4-6.67h3.25Zm31.87,0H156V56.1h10.75v2.27H159v1.4h7.3v2H159v1.42h7.87Zm23.82-3.25v3.25h-3.18V62.22L182,56.1h3.86L189,59.7l3.07-3.6h4Z"/><path class="cls-1" d="M34.8,39.45h3.41c0,.13,0,.31,0,.53,0,.52,0,.87,0,1.07a3.72,3.72,0,0,0,1.77,3.53c1.18.66,3.37,1,6.59,1h7.45c3.88,0,6.4-.36,7.58-1.09s1.76-2.1,1.76-4.14c0-1.7-.41-2.86-1.23-3.49s-2.5-1-5-1H45c-3.8,0-6.46-.55-8-1.67s-2.31-3-2.31-5.75.88-4.72,2.63-5.84,5-1.68,9.64-1.68h6.47a47.76,47.76,0,0,1,7.44.39,7.4,7.4,0,0,1,3.33,1.32,4.64,4.64,0,0,1,1.45,2.09A9.67,9.67,0,0,1,66.07,28v.78H62.66v-.42c0-1.77-.46-3-1.35-3.58s-2.81-.93-5.72-.93H45.86c-3,0-5,.32-6,.95a3.86,3.86,0,0,0-1.54,3.53c0,1.74.5,2.93,1.5,3.58s3.09,1,6.26,1H56.33a38.57,38.57,0,0,1,5.05.25,7.81,7.81,0,0,1,2.71.84,4.55,4.55,0,0,1,2.1,2.28,11.26,11.26,0,0,1,.62,4.27q0,4.48-2.55,6.27C62.55,48,59.48,48.57,55,48.57H45.36q-5.74,0-8.19-1.64c-1.63-1.09-2.44-2.91-2.44-5.44,0-.34,0-.92.05-1.73a2.41,2.41,0,0,1,0-.31Z"/><polygon class="cls-1" points="86.62 48.24 83.04 48.24 83.04 24.18 68.75 24.18 68.75 21.17 100.91 21.17 100.91 24.18 86.62 24.18 86.62 48.24 86.62 48.24"/><polygon class="cls-1" points="104.04 48.24 104.04 21.17 132.46 21.17 132.46 24.18 107.53 24.18 107.53 32.67 131.42 32.67 131.42 35.69 107.53 35.69 107.53 45.22 132.46 45.22 132.46 48.24 104.04 48.24 104.04 48.24"/><polygon class="cls-1" points="149.33 48.24 133.78 21.17 137.77 21.17 151.54 45.37 165.48 21.17 169.5 21.17 153.83 48.24 149.33 48.24 149.33 48.24"/><polygon class="cls-1" points="172.08 48.24 172.08 21.17 200.51 21.17 200.51 24.18 175.57 24.18 175.57 32.67 199.46 32.67 199.46 35.69 175.57 35.69 175.57 45.22 200.51 45.22 200.51 48.24 172.08 48.24 172.08 48.24"/><rect class="cls-2" width="235.15" height="83.74"/></g></g></svg>