<svg version="1.0" id="svg-text-with-you" xmlns="http://www.w3.org/2000/svg" viewBox="0 0 361.000000 212.000000"
 preserveAspectRatio="xMidYMid meet">

<g transform="translate(0.000000,212.000000) scale(0.100000,-0.100000)"
fill="#000000" stroke="none">
<path d="M1149 1865 c-104 -167 -160 -247 -174 -250 -11 -2 -72 -12 -135 -20
-129 -19 -475 -80 -532 -96 -29 -7 -38 -15 -38 -31 0 -23 -10 -24 215 7 61 8
127 15 147 15 49 0 68 9 68 30 0 18 45 28 219 46 56 6 64 5 58 -9 -3 -9 -34
-104 -68 -211 l-63 -196 -77 -79 c-83 -87 -131 -121 -168 -121 -22 0 -23 3
-18 45 4 25 28 99 53 165 39 99 45 122 34 135 -19 23 -48 18 -64 -12 -26 -52
-75 -202 -82 -253 -8 -63 8 -104 47 -121 45 -18 98 11 180 100 38 41 69 72 69
68 0 -4 -30 -105 -66 -225 -150 -494 -201 -759 -158 -820 19 -27 50 -31 38 -4
-18 40 -15 117 10 245 54 279 157 645 258 917 67 180 155 382 170 392 7 4 41
8 76 8 l62 0 -30 -52 c-46 -78 -126 -239 -171 -341 -79 -178 -165 -459 -152
-493 10 -26 39 -15 51 20 32 89 334 455 318 386 -4 -14 -9 -53 -13 -87 -6 -68
3 -81 50 -69 44 11 241 186 219 194 -7 2 -34 -16 -60 -40 -84 -78 -183 -147
-182 -125 0 1 9 36 20 77 24 90 25 124 5 140 -22 19 -49 4 -110 -62 -54 -58
-162 -189 -197 -238 -21 -30 4 42 78 224 39 96 59 131 104 180 30 34 93 112
139 174 l83 112 92 0 c54 0 97 -5 103 -11 13 -13 53 -2 53 15 0 28 -25 36
-117 36 -51 0 -93 3 -93 7 0 3 29 52 65 108 109 171 132 238 87 253 -25 8
-154 -135 -266 -295 l-50 -73 -73 0 -73 0 10 25 c11 29 122 235 186 346 24 42
44 83 44 92 0 48 -43 -6 -181 -228z m360 23 c-12 -24 -50 -91 -86 -150 -58
-98 -67 -108 -94 -108 -16 0 -29 2 -29 5 0 22 205 295 222 295 4 0 -1 -19 -13
-42z m-215 -350 c-50 -70 -154 -198 -160 -198 -5 0 1 13 69 135 64 115 64 115
99 115 l30 0 -38 -52z"/>
<path d="M3583 1768 c-14 -17 -185 -453 -215 -547 -21 -68 -29 -79 -102 -148
-167 -157 -200 -134 -131 87 39 125 41 138 21 146 -25 9 -56 -15 -195 -150
-80 -78 -136 -126 -139 -118 -4 13 57 144 100 214 27 43 17 73 -23 73 -20 0
-30 -12 -55 -64 -34 -71 -43 -76 -133 -87 l-61 -7 0 30 c0 17 -7 36 -15 43
-38 32 -164 -10 -187 -62 -9 -19 -46 -48 -121 -94 -60 -36 -110 -64 -112 -63
-2 2 10 58 26 124 16 66 29 123 29 128 0 20 -29 1 -96 -62 -130 -124 -275
-231 -314 -231 -19 0 -10 24 61 152 40 72 69 135 65 143 -17 45 -73 -17 -137
-152 -46 -96 -55 -133 -40 -162 25 -46 79 -21 256 119 70 55 129 99 131 98 2
-2 -11 -50 -29 -107 -25 -84 -37 -108 -62 -127 -16 -12 -95 -71 -175 -131
-162 -120 -350 -296 -416 -389 -117 -164 -134 -307 -42 -364 27 -17 44 -20 91
-17 228 19 435 302 596 814 l41 131 92 59 c146 93 136 91 127 31 -10 -64 5
-102 42 -106 31 -4 110 63 149 126 23 38 29 41 90 50 36 6 74 14 84 18 17 6
18 4 12 -17 -23 -79 -30 -131 -20 -147 25 -40 49 -26 200 117 81 77 149 139
150 138 2 -2 -10 -45 -27 -97 -33 -106 -36 -185 -8 -203 28 -17 78 11 163 92
l78 76 -7 -44 c-16 -95 20 -28 109 204 161 422 180 475 169 486 -7 7 -13 6
-20 -3z m-973 -573 c0 -23 -3 -25 -50 -25 -27 0 -50 2 -50 5 0 10 65 45 83 45
12 0 17 -8 17 -25z m-41 -86 c-30 -43 -87 -99 -101 -99 -12 0 -4 66 14 105 10
22 17 25 60 25 l49 0 -22 -31z m-449 -193 c0 -2 -20 -62 -45 -134 -93 -272
-188 -447 -310 -569 -149 -149 -315 -164 -315 -29 0 88 56 194 174 329 96 110
496 436 496 403z"/>
<path d="M666 1417 c-23 -17 -14 -53 15 -62 38 -12 65 35 37 63 -16 16 -30 15
-52 -1z"/>
<path d="M282 1253 c-30 -32 -91 -106 -135 -165 -45 -60 -83 -104 -85 -100 -1
5 11 51 27 103 41 135 44 154 28 167 -10 9 -18 9 -30 -1 -23 -17 -68 -178 -74
-264 -5 -62 -3 -74 11 -79 24 -9 50 18 158 163 51 67 96 123 99 123 3 0 -9
-38 -27 -84 -46 -114 -52 -163 -24 -198 12 -16 28 -28 36 -28 61 0 203 139
260 255 28 56 35 81 32 116 -2 36 -7 44 -22 44 -11 0 -21 -6 -23 -12 -3 -7 2
-13 11 -13 71 0 -146 -325 -231 -346 -14 -4 -29 -2 -35 4 -16 16 11 108 68
240 64 146 48 173 -44 75z"/>
<path d="M3280 921 c-16 -30 -12 -56 11 -77 21 -19 21 -18 45 9 29 34 31 63 5
77 -29 15 -49 12 -61 -9z"/>
</g>
</svg>
