<svg xmlns="http://www.w3.org/2000/svg" viewBox="0 0 294.89 83.74"><defs><style>.cls-1{fill:#735490;}.cls-2{fill:none;}</style></defs><title>Asset 12</title><g id="Layer_2" data-name="Layer 2"><g id="Layer_1-2" data-name="Layer 1"><path class="cls-1" d="M36.71,62.5c3-14,6-27.94,8.93-41.87.34,0,.61-.06.87-.06,6.06,0,12.12-.11,18.17.08C71,20.85,76.94,24.28,79,31a21.87,21.87,0,0,1,.65,9A28.46,28.46,0,0,1,75.41,53c-4,6.08-9.67,9.42-17,9.55-6.9.13-13.81,0-20.71,0C37.44,62.55,37.18,62.52,36.71,62.5Zm14.58-9.72c1.75,0,3.32,0,4.9,0a9.36,9.36,0,0,0,7-3c3.68-4.09,4.55-9,3.57-14.23-.65-3.45-3.13-5.14-6.67-5.19-1,0-2,.05-3,0-.81-.06-1.13.23-1.29,1-.53,2.75-1.15,5.49-1.73,8.24C53.15,43.94,52.23,48.3,51.29,52.78Z"/><path class="cls-1" d="M211.24,30.62c-.3,1.44-.58,2.82-.87,4.2l.18.14.75-.87c4-4.62,11.65-5.43,16.08-1.69a10.68,10.68,0,0,1,3.67,7.6c.49,6.11-.53,11.93-4.25,17-3.22,4.37-7.53,6.63-13.07,6.06a8.43,8.43,0,0,1-7.37-5.5c-.06-.16-.16-.31-.38-.72-.61,2.82-1.16,5.39-1.72,8s-1.06,5-1.64,7.43c-.07.29-.48.73-.73.74-3.58,0-7.16,0-10.92,0,.43-2,.82-3.94,1.23-5.84Q196,49.32,199.8,31.5c.16-.79.45-1,1.19-1,3.09,0,6.17,0,9.26,0C210.55,30.55,210.85,30.59,211.24,30.62Zm-3.37,17.86.06,1.05c.28,3.94,4,5.79,7.28,3.65s5.08-8.27,3.43-11.83a4,4,0,0,0-3.82-2.5,5.15,5.15,0,0,0-3.89,1.76A11.24,11.24,0,0,0,207.87,48.48Z"/><path class="cls-1" d="M183.73,30.6h11.53l-2.36,11c-1.4,6.58-2.82,13.16-4.17,19.75-.22,1.06-.59,1.43-1.72,1.39-2.81-.1-5.63,0-8.44,0H177.2c.34-1.73.66-3.31,1-4.9A13.14,13.14,0,0,1,173,62.36a12.09,12.09,0,0,1-10.2.06,8.66,8.66,0,0,1-4.93-9.13c.77-4.85,1.79-9.67,2.73-14.49.48-2.42,1-4.82,1.54-7.23.07-.33.17-.65.27-1h11.5c-.58,2.69-1.15,5.3-1.71,7.91q-1,4.85-2,9.71a5.66,5.66,0,0,0-.13.92c-.17,2.44.69,4.06,2.49,4.71A4.82,4.82,0,0,0,178.33,52a18.72,18.72,0,0,0,1.81-5c1.18-5.13,2.21-10.3,3.3-15.45C183.51,31.2,183.63,30.92,183.73,30.6Z"/><path class="cls-1" d="M96.88,52.21c.39,0,.72-.06,1.06-.06,2.93,0,5.86,0,8.79,0A1.1,1.1,0,0,1,108,53a4.44,4.44,0,0,0,1.58,2,5.71,5.71,0,0,0,5.2.51,2.87,2.87,0,0,0,1.44-1.58c.31-.84-.36-1.5-1.1-1.81-2-.82-4-1.51-6-2.31a34.72,34.72,0,0,1-3.46-1.58c-7-3.77-5.81-12.36-.57-15.83a16.92,16.92,0,0,1,8-2.63c4.65-.4,9.11.17,12.93,3.14a9.92,9.92,0,0,1,3.92,7.61h-2c-2.47,0-4.94,0-7.4,0a1,1,0,0,1-1.12-.81c-.83-2.49-5.3-3.41-7.18-1.54a1.67,1.67,0,0,0,.4,2.81,33.87,33.87,0,0,0,3.82,1.61c1.9.73,3.85,1.32,5.71,2.14,3,1.31,5.24,3.25,5.47,6.8a9.52,9.52,0,0,1-4.39,9.1c-4,2.63-8.47,3.07-13.09,2.71a17.29,17.29,0,0,1-8.59-2.73A10.3,10.3,0,0,1,96.88,52.21Z"/><path class="cls-1" d="M253.52,23.85c-.55,2.58-1.06,5-1.61,7.62h6.28c-.63,2.94-1.23,5.7-1.83,8.53-1.8,0-3.49,0-5.18,0-.79,0-1.16.19-1.32,1-.71,3.46-1.49,6.91-2.24,10.37-.5,2.31.13,3.29,2.46,3.58a26.23,26.23,0,0,0,3.21,0c-.54,2.5-1.06,4.93-1.61,7.35a.94.94,0,0,1-.6.57c-3.9.52-7.78.64-11.48-1-3-1.29-4.37-3.45-4-6.7.34-3.09,1.06-6.14,1.65-9.2.37-2,.81-3.91,1.25-6h-4.8c.65-2.92,1.26-5.68,1.88-8.49h4.76c.5-2.3,1-4.54,1.45-6.78.11-.53.21-.91.91-.91C246.23,23.86,249.77,23.85,253.52,23.85Z"/><path class="cls-1" d="M147.82,30.49c-.3,1.59-.56,3-.86,4.57,4.27-5,8.18-6.29,12.37-4.1l-2.14,9.76a29,29,0,0,0-3.24-.87c-6-.91-8.36,2.68-9.18,6.39-1.13,5.1-2.21,10.22-3.31,15.33-.08.33-.19.66-.29,1H129.68c.26-1.33.49-2.59.76-3.85q3-13.7,6-27.37c.07-.33.42-.85.65-.85C140.59,30.47,144.12,30.49,147.82,30.49Z"/><path class="cls-1" d="M97.92,30.42,95.17,43.37c-1.3,6.06-2.62,12.1-3.88,18.16-.16.8-.44,1.07-1.26,1.06-3.47,0-6.94,0-10.54,0,.69-3.26,1.36-6.4,2-9.54q2.31-10.81,4.65-21.64c.08-.36.47-.92.72-.93C90.5,30.4,94.12,30.42,97.92,30.42Z"/><path class="cls-1" d="M93.78,28.52a5.72,5.72,0,0,1-6-5.47,5.72,5.72,0,0,1,5.87-5.69,5.59,5.59,0,1,1,.1,11.16Z"/><rect class="cls-2" width="294.89" height="83.74"/></g></g></svg>