<svg xmlns="http://www.w3.org/2000/svg" viewBox="0 0 245.11 83.74"><defs><style>.cls-1{fill:#735490;fill-rule:evenodd;}.cls-2{fill:none;}</style></defs><title>Asset 1</title><g id="Layer_2" data-name="Layer 2"><g id="Layer_1-2" data-name="Layer 1"><path class="cls-1" d="M141.08,31.92a13.89,13.89,0,0,0-7,1.76c0-6.24,0-11.9.19-13.85l-13.06,2.34v1.17l1.36.2c1.76.39,2.34,1.36,2.73,3.7.39,4.68.2,29.64,0,33.73a50.77,50.77,0,0,0,10.92,1.37c10.34,0,16.57-6.44,16.57-16.57,0-8-5.07-13.85-11.69-13.85Zm-4.49,28.27a9,9,0,0,1-2.34-.19c-.19-2.73-.39-14.23-.19-24.37A8.66,8.66,0,0,1,137,35c4.29,0,6.63,5.07,6.63,11.31,0,7.8-2.92,13.84-7,13.84Z"/><path class="cls-1" d="M72.05,20.61H37.74v1.76l1.95.19c2.53.39,3.51,2,3.9,5.66a227.5,227.5,0,0,1,0,25.73c-.39,3.71-1.37,5.46-3.9,5.66L37.74,60v1.56h22V60l-2.34-.39c-2.53-.2-3.51-2-3.9-5.66-.19-2.53-.39-6.63-.39-11.69l4.68.19c2.93,0,4.29,2.34,4.88,5.66h1.75V34.26H62.7c-.59,3.32-2,5.66-4.88,5.66l-4.68.19c0-6.63.2-12.87.39-16.57h6.83c5.26,0,8,3.31,9.94,9.16l2-.58-.2-11.51Z"/><path class="cls-1" d="M83.17,31.53c9.75,0,14.62,6.63,14.62,15.41,0,8.38-5.46,15.4-15.21,15.4S68,55.71,68,46.94c0-8.39,5.46-15.41,15.21-15.41Zm-.59,1.95c-4.29,0-5.46,5.85-5.46,13.46,0,7.4,1.95,13.45,5.85,13.45,4.49,0,5.66-5.85,5.66-13.45,0-7.41-1.95-13.46-6-13.46Z"/><path class="cls-1" d="M155.31,47.13c0-8,5.07-15.6,15-15.6,8.19,0,12.09,6,12.09,14H164.28c-.2,7.21,3.31,12.48,10.33,12.48a10,10,0,0,0,6.63-2.15l.78,1a14.61,14.61,0,0,1-11.7,5.46c-8.77,0-15-6.24-15-15.21Zm9-3.7,9.16-.2c0-3.9-.58-9.75-3.9-9.75s-5.07,5.46-5.26,10Z"/><path class="cls-1" d="M205.61,33.09a24,24,0,0,0-9-1.56c-7.21,0-11.7,4.29-11.7,9.36s3.32,7.22,8,8.77c4.87,1.76,6.24,3.12,6.24,5.46a4.52,4.52,0,0,1-4.88,4.49c-3.7,0-6.43-2.15-8.58-8l-1.36.39.19,8.58a30.67,30.67,0,0,0,10.34,1.76c7.6,0,12.48-3.9,12.48-10,0-4.09-2.15-6.43-7.22-8.38-5.46-2.14-7.41-3.51-7.41-6a4.05,4.05,0,0,1,4.1-4.29c3.51,0,5.85,2.14,7.6,7.41l1.37-.39-.2-7.61Z"/><path class="cls-1" d="M123.14,32.31c-3.32-2-9.17-1-12.29,6l.2-6.83L98,34.07v1.17l1.36.19c1.76.2,2.54,1.17,2.73,3.71a162.51,162.51,0,0,1,0,17c-.19,2.34-1,3.51-2.73,3.7L98,60v1.56h18.13V60l-2.34-.2c-2-.19-2.54-1.36-2.73-3.7a140.17,140.17,0,0,1-.2-15.79c1-1.37,5.27-2.54,9.17,0l3.12-8Z"/><rect class="cls-2" width="245.11" height="83.74"/></g></g></svg>