<svg xmlns="http://www.w3.org/2000/svg" viewBox="0 0 253.53 83.74"><defs><style>.cls-1{fill:#735490;fill-rule:evenodd;}.cls-2{fill:none;}</style></defs><title>Asset 8</title><g id="Layer_2" data-name="Layer 2"><g id="Layer_1-2" data-name="Layer 1"><path class="cls-1" d="M37.41,25.15h6.48V58.09H37.41Zm24.22,7.17a24.67,24.67,0,0,1,5,0,13.41,13.41,0,0,1,4.71,1.55,8.46,8.46,0,0,1,3.24,2.7,10.3,10.3,0,0,1,1.77,3.85,11.55,11.55,0,0,1,.39,2.48l.15,15.19h-6V45.21c-.23-1.24-.5-2.47-.7-3.7A3.21,3.21,0,0,0,69,39.26a7.36,7.36,0,0,0-2.31-1.15,14.18,14.18,0,0,0-3.55-.47,19.87,19.87,0,0,0-3.85.39,9.45,9.45,0,0,0-3,1l-2.16,1.31-1,.62V58.09H47.2V32.71h5.94V35a16.17,16.17,0,0,1,2.55-1.31,33.73,33.73,0,0,1,5.94-1.32"/><path class="cls-1" d="M189.52,43.12h19.66a5.7,5.7,0,0,0-.53-1.39A8.78,8.78,0,0,0,206.87,40a10.1,10.1,0,0,0-2.55-1.46,12.81,12.81,0,0,0-3.23-.78,16.94,16.94,0,0,0-3.63,0,12.51,12.51,0,0,0-3.08.7,9.43,9.43,0,0,0-2.55,1.39,5.4,5.4,0,0,0-1.7,1.92Zm-17-10.41L153.81,66.42h-6.72L152,57.77l-13.5-25.06h6.94l10.19,19.06,10.24-19.06Zm1.7-7.55h6.17v33h-6.17Zm18.58,8.32a26.32,26.32,0,0,1,6.48-.86,30.47,30.47,0,0,1,6.41,1,11.34,11.34,0,0,1,4.86,2.69A12.8,12.8,0,0,1,214,41.12a28.31,28.31,0,0,1,2.09,6.78H189.52a8.34,8.34,0,0,0,1.39,2.47,12.21,12.21,0,0,0,2.31,1.93,7.14,7.14,0,0,0,2.85,1,25.33,25.33,0,0,0,3.24.38,36.38,36.38,0,0,0,5-.38,19.53,19.53,0,0,0,3.32-.77,13.9,13.9,0,0,0,2.46-1.17l1.78-1L215,54.46c-.93.62-2,1.24-2.93,1.78a14.78,14.78,0,0,1-3.39,1.46,27.52,27.52,0,0,1-4.09.85c-1.74.18-3.5.13-5.25.15a21.24,21.24,0,0,1-6.86-1.15,12.76,12.76,0,0,1-5-2.71,11,11,0,0,1-2.92-4,14.46,14.46,0,0,1-1-5.09,14.38,14.38,0,0,1,1.23-5.41,11.83,11.83,0,0,1,3.09-4.16,12.81,12.81,0,0,1,5-2.7M81.53,34.56a7.41,7.41,0,0,0,1.78,4.32,10.32,10.32,0,0,0,4.22,2.85,24.32,24.32,0,0,0,5.81,1.55c1.71.17,3.44.25,5.16.38,1.88.14,3.77.13,5.64.39a28.84,28.84,0,0,1,4.15,1,4.44,4.44,0,0,1,2.55,2.07,2.56,2.56,0,0,1,.24,2.16,4.47,4.47,0,0,1-1.4,2.24,7.48,7.48,0,0,1-2.93,1.54,21.59,21.59,0,0,1-4,.62A41.3,41.3,0,0,1,97,53.54a52.31,52.31,0,0,1-6-1,16.09,16.09,0,0,1-4.56-1.39l-3.55-2.09-3.09,5c1.51.73,3,1.53,4.48,2.17A32.71,32.71,0,0,0,89,57.93a35.12,35.12,0,0,0,5.4.77,45.47,45.47,0,0,0,6.17.23,50.19,50.19,0,0,0,7-.84,17.28,17.28,0,0,0,5.32-2.24,10,10,0,0,0,3.32-3.47,6.72,6.72,0,0,0,1-4.25,8.2,8.2,0,0,0-2.16-5,9.64,9.64,0,0,0-4.4-3.16,39.68,39.68,0,0,0-6.16-1.46c-2-.32-4-.3-6-.47-1-.07-1.91-.19-2.85-.31-1.24-.14-2.49-.22-3.7-.46A6.44,6.44,0,0,1,89,36c-.66-.56-1.78-.93-1.85-1.79s.94-1.33,1.54-1.84a9,9,0,0,1,2.47-1.55,17.85,17.85,0,0,1,3.71-.85,23.16,23.16,0,0,1,3.62-.3,34.83,34.83,0,0,1,5,.3,27.12,27.12,0,0,1,4.09,1,19.73,19.73,0,0,1,3.63,1.4l2.85,1.54,3.09-4.33c-1.16-.61-2.28-1.3-3.47-1.85a28,28,0,0,0-4-1.54,32.65,32.65,0,0,0-5-1,37.47,37.47,0,0,0-6.17-.39,53.29,53.29,0,0,0-6.78.77,16.11,16.11,0,0,0-5.56,1.77,10.34,10.34,0,0,0-3.63,3.24,6,6,0,0,0-1,4M118,32.71h4.23V26.15h6.17v6.56h8v5h-8c0,4.88-.63,9.82,0,14.66.1.79,1.16.79,1.86.93a16.6,16.6,0,0,0,2.31.38,8.11,8.11,0,0,0,1.77-.24c.45-.07.87-.24,1.32-.3l.46-.08.31-.3h.23L138,57.93l-.78.16c-.61.12-1.23.27-1.84.38-.77.14-1.53.29-2.31.39a12.92,12.92,0,0,1-2.55.22,19.13,19.13,0,0,1-3.46-.61A4.56,4.56,0,0,1,124.57,57c-.58-.72-1.42-1.41-1.54-2.32l-.46-3.54-.32-13.43H118Z"/><rect class="cls-2" width="253.53" height="83.74"/></g></g></svg>