<svg xmlns="http://www.w3.org/2000/svg" viewBox="0 0 342.64 83.74"><defs><style>.cls-1{fill:#fff;fill-rule:evenodd;}.cls-2{fill:none;}</style></defs><title>Asset 7</title><g id="Layer_2" data-name="Layer 2"><g id="Layer_1-2" data-name="Layer 1"><path class="cls-1" d="M59.94,21.79c-.18,3.15-.37,6.31-.56,9.57l-4.73-.17c-.11-2-.21-3.91-.32-5.9H47V39.4h3.19c.25-1,.5-2,.75-3.1h3.29V46H51l-.81-3.21H47v15h7.4c.24-2.13.47-4.24.72-6.47l5,.16c.13,3.33.25,6.6.38,9.93H36.24V57.91l3.4-.59V25.64l-3.8-.41V21.79Z"/><path class="cls-1" d="M145.65,74.81c.07-1,.12-1.83.18-2.72l2.57-.56V37.74l-3-.46V34.46l8.06-1.12.84,3a2.21,2.21,0,0,0,.32-.29A8.2,8.2,0,0,1,162,33.3c3.64.35,5.64,2.64,6.64,5.92a20.42,20.42,0,0,1,.86,4.51,35.18,35.18,0,0,1-.31,9.39,17.18,17.18,0,0,1-1,3.37,8.39,8.39,0,0,1-7.47,5.3,10.52,10.52,0,0,1-5.23-.76,3.57,3.57,0,0,0-.4-.11V71.53l2.74.56c-.06.9-.12,1.78-.18,2.72ZM155,57.15a8.4,8.4,0,0,0,6.32.22,1.08,1.08,0,0,0,.77-.8c.25-1,.57-2.09.72-3.16a44.67,44.67,0,0,0,.17-9.74,15.11,15.11,0,0,0-.62-3.27c-.72-2.3-2.28-3.19-4.66-2.8l-.36.08A2.77,2.77,0,0,0,155,40.51c0,5.28,0,10.55,0,15.83Z"/><path class="cls-1" d="M235.3,58l2.84.56c0,1-.1,1.9-.16,2.88h-9.22c0-.21,0-.41,0-.61,0-6.13,0-12.26,0-18.39a8.68,8.68,0,0,0-.45-2.47,2.56,2.56,0,0,0-2.06-1.69,4.55,4.55,0,0,0-2.76.23,2,2,0,0,0-1.38,1.84c0,5.79,0,11.59,0,17.39a1.47,1.47,0,0,0,.07.26l2.71.56c-.06,1-.12,1.89-.18,2.88H212.78V58.52l2.65-.57V38l-3-.35V34.73l7.84-1.12c.24.87.48,1.72.7,2.55.6-.45,1.21-1,1.89-1.41a9,9,0,0,1,8.23-.89,6.23,6.23,0,0,1,4.07,5.23,12,12,0,0,1,.16,2.07c0,5.26,0,10.51,0,15.76Z"/><path class="cls-1" d="M72.11,58l2.73.56c-.06,1-.11,1.9-.17,2.88h-12c.05-1,.1-1.87.15-2.87L65.36,58c.19-.65.24-18.94,0-20l-3-.34V34.74l7.86-1.13c.24.87.46,1.7.71,2.61l.73-.64a9.23,9.23,0,0,1,8.55-2,6.26,6.26,0,0,1,4.86,5.26,10.47,10.47,0,0,1,.2,2.16q0,7.92,0,15.85v1.08l2.82.56c0,.48,0,1-.07,1.42s0,.95,0,1.47H78.76v-1c0-5.79,0-11.59,0-17.38a14.57,14.57,0,0,0-.16-2.08,2.92,2.92,0,0,0-2.82-2.7,3.32,3.32,0,0,0-3.22,1,2.07,2.07,0,0,0-.5,1.39c0,4.41,0,8.82,0,13.22,0,1.09,0,2.18,0,3.26C72.07,57.32,72.09,57.62,72.11,58Z"/><path class="cls-1" d="M277.73,37.28l-3.05-.3V34.39l9-1a10.35,10.35,0,0,1,.76,3.29c0,6.73,0,13.46,0,20.19v1.09l2.79.57c-.1,1-.19,1.9-.3,2.87h-7.72c-.22-.68-.46-1.41-.72-2.23-.26.2-.44.33-.61.48a9.11,9.11,0,0,1-10.07,1.28,6.45,6.45,0,0,1-3.61-5,13,13,0,0,1-.18-2.25c0-5.07,0-10.14,0-15.21V37.3L260.9,37V34.39l8.93-1a12.48,12.48,0,0,1,.68,3c0,5.32,0,10.63,0,15.94a15.71,15.71,0,0,0,.14,2.17,3.33,3.33,0,0,0,3.46,3.14,8.45,8.45,0,0,0,2.05-.29,2.89,2.89,0,0,0,1.66-2.17V37.56A1.88,1.88,0,0,0,277.73,37.28Z"/><path class="cls-1" d="M130.72,49.28a10.23,10.23,0,0,0,1.55,6,5.27,5.27,0,0,0,4.5,2.43,12.63,12.63,0,0,0,5.19-1l.75-.3c.36.84.72,1.66,1.12,2.58a15.75,15.75,0,0,1-1.47,1,13.52,13.52,0,0,1-10.56,1.35,10.2,10.2,0,0,1-6.47-5.9,19,19,0,0,1-1.52-9.9,17.49,17.49,0,0,1,1.51-6,9.89,9.89,0,0,1,7.13-6c3.27-.69,6.32-.27,8.83,2.15a11.49,11.49,0,0,1,2.89,5.24,21.88,21.88,0,0,1,.8,6.17,7,7,0,0,1-.61,2ZM139,45.71c-.08-.84-.12-1.53-.2-2.21a12.3,12.3,0,0,0-1.33-4.66,3.07,3.07,0,0,0-4-1.52,2.07,2.07,0,0,0-1.4,1.27,21,21,0,0,0-1.46,6.95,2.9,2.9,0,0,0,.1.56Z"/><path class="cls-1" d="M259.75,49.11l-13.63.17a9.2,9.2,0,0,0,.23,2.79A8.06,8.06,0,0,0,248,55.82a5.21,5.21,0,0,0,4,1.9,11.89,11.89,0,0,0,5-.91l1.08-.41L259.22,59l-.45.29a13.74,13.74,0,0,1-9.61,2.43c-4.28-.47-7.14-3-8.68-6.88a19.61,19.61,0,0,1,.14-15.17,9.7,9.7,0,0,1,7.16-6.19,9.6,9.6,0,0,1,7.8,1.25,9.85,9.85,0,0,1,3.49,4.73A19.6,19.6,0,0,1,260.32,47,9.46,9.46,0,0,1,259.75,49.11Zm-5.44-3.39a20.57,20.57,0,0,0-.83-5.35A7.65,7.65,0,0,0,252.21,38c-1.07-1.39-4.39-1.11-4.9.79a36.84,36.84,0,0,0-1.15,4.63,8.48,8.48,0,0,0-.1,2.68Z"/><path class="cls-1" d="M211.25,49.11l-13.64.17a9.89,9.89,0,0,0,2,6.53,5.06,5.06,0,0,0,3.86,1.9,12.12,12.12,0,0,0,5.12-.89l1.07-.43L210.73,59c-.32.23-.61.48-.94.68a13.66,13.66,0,0,1-10.14,1.93,10,10,0,0,1-7.23-5.77A18.54,18.54,0,0,1,190.67,46a18.37,18.37,0,0,1,1.56-6.57,9.9,9.9,0,0,1,5.33-5.4,10.14,10.14,0,0,1,8.91.28A9.15,9.15,0,0,1,210.42,39a19.85,19.85,0,0,1,1.45,8A7.64,7.64,0,0,1,211.25,49.11Zm-5.4-3.4c-.08-.91-.12-1.71-.23-2.51a11.83,11.83,0,0,0-1.25-4.31,3.13,3.13,0,0,0-4.3-1.47,1.72,1.72,0,0,0-1,.95,18.59,18.59,0,0,0-1.43,5.57c-.09.68-.12,1.35-.19,2.16Z"/><path class="cls-1" d="M112.76,33.62c.21.83.4,1.61.61,2.45l1-.59a15.39,15.39,0,0,1,6.18-1.88,2.34,2.34,0,0,1,2.42,1.11c-.27,2.41-.54,4.86-.83,7.39l-4.44-.18c-.17-1.36-.32-2.63-.49-4a5.8,5.8,0,0,0-2.83,1V58l2.75.63c0,.92-.1,1.81-.15,2.77H105.08V58.61l2.48-.63V38l-2.85-.33v-3Z"/><path class="cls-1" d="M288.85,61.4c0-1,.09-1.87.13-2.8l2.46-.61V38l-2.91-.35V34.74l8.09-1.12c.22.85.41,1.62.6,2.33a33.91,33.91,0,0,1,3.43-1.54,29,29,0,0,1,3.61-.79,2.24,2.24,0,0,1,2.53,1.1c-.26,2.36-.53,4.81-.82,7.37l-4.43-.17c-.17-1.35-.33-2.65-.52-4.1l-2.79,1V58l2.75.62c-.06.93-.12,1.85-.18,2.8Z"/><path class="cls-1" d="M184.07,37.79l-2.82,1V58l2.8.62c-.08.95-.15,1.85-.23,2.79H172V58.62L174.5,58V38l-2.9-.33V34.74l8-1.13c.23.81.46,1.6.68,2.39.78-.41,1.54-.83,2.33-1.21a15.64,15.64,0,0,1,4.62-1.18,2.47,2.47,0,0,1,2.58,1.08c-.26,2.36-.53,4.81-.81,7.4l-4.45-.16C184.41,40.57,184.26,39.29,184.07,37.79Z"/><path class="cls-1" d="M97.6,28.33V34h4.94c-.11,1.24-.21,2.36-.31,3.52L97.79,38a6.27,6.27,0,0,0-.09.71q0,8.1,0,16.2a9.83,9.83,0,0,0,0,1.09,2,2,0,0,0,2.08,1.87c.9,0,1.8,0,2.81,0,.1,1,.2,2,.3,2.9a5.56,5.56,0,0,1-2.24.75,13.94,13.94,0,0,1-5,.15,5.24,5.24,0,0,1-4.56-4.78,12.62,12.62,0,0,1-.07-1.63c0-5.43,0-10.86,0-16.29,0-.32,0-.64-.06-1l-3.12-.52c0-1.12.1-2.22.15-3.43l3.52-.18c.52-1.75,1-3.5,1.56-5.29Z"/><rect class="cls-2" width="342.64" height="83.74"/></g></g></svg>