<svg version="1.1" id="svg-right" xmlns="http://www.w3.org/2000/svg" xmlns:xlink="http://www.w3.org/1999/xlink" x="0px" y="0px"
	 viewBox="0 0 288 288" style="enable-background:new 0 0 288 288;" xml:space="preserve">
<style type="text/css">
	.st0{fill:#FF0998;}
</style>
<g>
	<g>
		<path class="st0" d="M155.4,69.4l-1.9,2c-1.6-1.5-3.1-2.9-4.6-4.3l-0.2-0.1l2-1.9C152.1,66.5,153.7,68,155.4,69.4z M143.8,62.7
			c-1.6-1.5-3.2-3-4.8-4.4l1.9-2.1c1.6,1.4,3.2,3,4.8,4.4L143.8,62.7z M164.7,78.4l-1.9,2c-1.6-1.5-3.1-3-4.7-4.5l1.9-2
			C161.6,75.4,163,76.9,164.7,78.4z M134.2,54c-1.7-1.4-3.2-2.9-4.9-4.3l1.9-2.1c1.7,1.4,3.2,2.9,4.9,4.3L134.2,54z M173.9,87.7
			l-2,1.9c-1.5-1.6-3-3.1-4.6-4.6l1.9-2C170.7,84.5,172.3,86,173.9,87.7z M124.5,45.4c-1.6-1.4-3.2-2.9-4.9-4.2l1.8-2.2
			c1.6,1.4,3.3,2.8,4.9,4.2L124.5,45.4z M182.8,96.9l-2,1.9c-1.5-1.6-3-3.1-4.5-4.7l2-1.9C179.9,93.8,181.4,95.3,182.8,96.9z
			 M114.4,37.2c-1.7-1.4-3.3-2.8-5-4.1l1.8-2.2c1.7,1.4,3.3,2.8,5,4.1L114.4,37.2z M191.5,106l0.4,0.4l-2.1,1.9l-0.4-0.4
			c-1.3-1.5-2.7-3-4-4.3l2-1.9C188.7,103.1,190.1,104.5,191.5,106z M200.4,116.4l-2.3,1.7c-1.3-1.7-2.7-3.3-4.1-5l2.1-1.8
			C197.6,113,199,114.6,200.4,116.4z M207.8,127.3l-2.5,1.4c-1-1.8-2.1-3.6-3.4-5.4l2.3-1.6C205.5,123.5,206.7,125.5,207.8,127.3z
			 M212.9,139.5l-2.7,0.7c-0.6-1.9-1.3-3.9-2.1-5.9l2.6-1.1C211.5,135.3,212.3,137.4,212.9,139.5z M214,152.9l-2.8-0.3
			c0.2-2,0.3-4.1,0.1-6.2l2.8-0.3C214.2,148.4,214.2,150.7,214,152.9z M201.2,150.3l-2.4,1.5c-1.2-1.8-2.4-3.5-3.8-4.9l2-2
			C198.6,146.5,200,148.3,201.2,150.3z M209.6,165.6l-2.4-1.5c1.1-1.7,2-3.6,2.7-5.5l2.7,0.9C211.8,161.6,210.9,163.8,209.6,165.6z
			 M190.2,143.5c-1.8-0.9-3.7-1.5-5.7-1.6l0.2-2.9c2.3,0.1,4.6,0.8,6.7,1.9L190.2,143.5z M206,163l-2.8,0.5c-0.4-2-0.9-4.1-1.7-6
			l2.6-1C205,158.5,205.6,160.7,206,163z M178.7,142.5c-1.7,0.7-3.4,1.8-4.9,3.2l-1.9-2c1.8-1.7,3.8-2.9,5.9-3.7L178.7,142.5z
			 M206.5,176.2l-2.8-0.3c0.1-1.2,0.2-2.3,0.2-3.5c-1.2,1-2.6,1.9-3.9,2.7l-1.4-2.4c1.7-1,3.3-2.3,4.8-3.7l0.6,0.6l2.6-0.1
			C206.7,171.7,206.6,174,206.5,176.2z M203.6,189.2l-2.7-0.9c0.7-2.1,1.3-4.1,1.7-6.1l2.8,0.6C205,184.9,204.4,187.1,203.6,189.2z
			 M168.5,156.2l-2.8-0.4c0.3-2.3,1-4.5,2.1-6.6l2.5,1.3C169.3,152.3,168.7,154.3,168.5,156.2z M193.6,178c-0.7,0.2-1.2,0.3-1.9,0.4
			c-1.6,0.3-3.3,0.4-5,0.3l0.2-2.9c1.5,0.1,3-0.1,4.4-0.3c0.6-0.1,1-0.2,1.6-0.4L193.6,178z M171.3,167.5l-2.2,1.6
			c-1.4-1.9-2.4-4.1-3-6.4l2.8-0.5C169.3,164.1,170.2,165.8,171.3,167.5z M180,177.1c-2.2-0.8-4.2-1.8-6.1-3.2l1.6-2.3
			c1.7,1.2,3.4,2.2,5.4,2.8L180,177.1z M198.1,201.1l-2.5-1.4c1.1-1.9,2.1-3.7,3-5.7l2.6,1.2C200.3,197.3,199.2,199.3,198.1,201.1z
			 M190.5,212l-2.2-1.8c1.4-1.7,2.6-3.4,3.9-5.1l2.3,1.6C193.3,208.6,191.9,210.4,190.5,212z M186,216.9c-1.6,1.5-3.2,3-4.9,4.5
			l-1.8-2.2c1.6-1.4,3.2-2.8,4.7-4.3L186,216.9z M175.9,225.4c-1.8,1.2-3.6,2.5-5.5,3.6l-1.4-2.4c1.8-1.1,3.6-2.2,5.3-3.5
			L175.9,225.4z M164.6,232.2c-1.9,1-3.9,1.9-5.9,2.8l-1.1-2.6c2-0.8,4-1.7,5.8-2.7L164.6,232.2z M152.6,237.4
			c-2.1,0.7-4.2,1.4-6.3,2.1l-0.8-2.7c2.1-0.7,4.1-1.3,6.1-2L152.6,237.4z M140,241.1c-2.1,0.6-4.2,1-6.4,1.4l-0.5-2.8
			c2-0.4,4.2-0.9,6.3-1.3L140,241.1z M127.1,243.7c-2.1,0.3-4.2,0.6-6.5,0.9l-0.4-2.9c2.1-0.3,4.2-0.6,6.4-0.9L127.1,243.7z
			 M114.1,245.2c-2.1,0.2-4.3,0.4-6.5,0.5l-0.2-2.8c2.1-0.2,4.3-0.3,6.4-0.5L114.1,245.2z M101.2,246c-2.2,0.1-4.4,0.2-6.5,0.2
			l-0.1-2.8c2.1-0.1,4.3-0.1,6.4-0.2L101.2,246z"/>
	</g>
	<g>
		<polygon class="st0" points="108,30 110.1,46.8 112.8,46.5 111.1,32.7 125,31.9 124.8,29.1 		"/>
	</g>
</g>
</svg>
