<?xml version="1.0" standalone="no"?>
<!DOCTYPE svg PUBLIC "-//W3C//DTD SVG 20010904//EN"
 "http://www.w3.org/TR/2001/REC-SVG-20010904/DTD/svg10.dtd">
<svg version="1.0" class="icon-telf-black" xmlns="http://www.w3.org/2000/svg"
 width="55.000000pt" height="55.000000pt" viewBox="0 0 55.000000 55.000000"
 preserveAspectRatio="xMidYMid meet">

<g transform="translate(0.000000,55.000000) scale(0.100000,-0.100000)" stroke="none">
<path d="M180 533 c-26 -9 -66 -38 -95 -67 -80 -79 -104 -179 -70 -281 12 -33
14 -62 9 -106 l-7 -61 60 7 c44 5 73 2 107 -9 103 -35 202 -11 282 69 135 135
101 350 -70 437 -55 28 -156 33 -216 11z m29 -147 c28 -29 31 -36 20 -53 -14
-24 7 -62 54 -95 25 -18 33 -19 50 -9 17 11 24 9 56 -24 l36 -36 -27 -24 c-23
-20 -33 -22 -59 -15 -82 24 -209 160 -209 224 0 27 24 66 40 66 3 0 21 -15 39
-34z"/>
</g>
</svg>
