<?xml version="1.0" encoding="utf-8"?>
<!-- Generator: Adobe Illustrator 25.0.0, SVG Export Plug-In . SVG Version: 6.00 Build 0)  -->
<svg version="1.1" id="svg-arrow-3" xmlns="http://www.w3.org/2000/svg" xmlns:xlink="http://www.w3.org/1999/xlink" x="0px" y="0px"
	 viewBox="0 0 454.7 283" style="enable-background:new 0 0 454.7 283;" xml:space="preserve">
<style type="text/css">
	.st0{fill:#FF0898;}
</style>
<g>
	<g>
		<path class="st0" d="M197.6,130.3c-2.1,0.2-4.4,1.1-6.3,2.4l2,2.8c1.9-1.4,4.2-2.1,6.1-1.8l0.4-3.4
			C199.2,130.3,198.4,130.2,197.6,130.3z"/>
		<path class="st0" d="M207.2,135.3l-2.6,2.1c1.2,1.5,2,3.5,2.2,5.7l0,0.5l3.4-0.2l0-0.6C209.9,139.9,208.9,137.3,207.2,135.3z"/>
		<path class="st0" d="M186.4,140.1c-0.1,0.2-0.1,0.5-0.1,0.7c-0.1,1.1-0.1,2.2,0,3.3c0.1,1.5,0.5,3.1,1.1,4.6l3.1-1.2
			c-0.5-1.2-0.8-2.5-0.9-3.7c-0.1-0.8-0.1-1.7,0-2.5c0-0.2,0-0.3,0.1-0.5L186.4,140.1z"/>
		<path class="st0" d="M81.2,150.3l-0.5,3.4c2.6,0.4,5.1,0.8,7.6,1.3l0.6-3.3C86.3,151.1,83.7,150.7,81.2,150.3z"/>
		<path class="st0" d="M96.6,153.1l-0.7,3.3c2.5,0.5,5.1,1.1,7.6,1.6l0.7-3.3C101.7,154.2,99.1,153.6,96.6,153.1z"/>
		<path class="st0" d="M111.8,156.4l-0.7,3.3c2.5,0.6,5.1,1.1,7.6,1.7l0.7-3.3C116.9,157.5,114.4,157,111.8,156.4z"/>
		<path class="st0" d="M205.6,150.5c-0.6,1.3-1.3,2.5-2.2,3.6c-0.6,0.7-1.3,1.4-2,2l2.2,2.6c0.8-0.7,1.6-1.5,2.3-2.4
			c1.1-1.3,2-2.8,2.7-4.4L205.6,150.5z"/>
		<path class="st0" d="M127.1,159.7l-0.7,3.3c2.6,0.5,5.1,1,7.7,1.5l0.6-3.3C132.1,160.7,129.6,160.2,127.1,159.7z"/>
		<path class="st0" d="M194.4,153.5l-2.5,2.2c1.6,1.8,3.5,3.5,5.6,5.1l0.4,0.3l2-2.7l-0.4-0.3C197.5,156.7,195.8,155.1,194.4,153.5z
			"/>
		<path class="st0" d="M142.3,162.4l-0.5,3.3c2.6,0.4,5.2,0.7,7.8,1l0.4-3.4C147.4,163.2,144.9,162.8,142.3,162.4z"/>
		<path class="st0" d="M195.3,159.9c-2.1,0.9-4.4,1.7-7.1,2.3l0.8,3.3c2.9-0.7,5.4-1.5,7.7-2.5L195.3,159.9z"/>
		<path class="st0" d="M157.6,164.1l-0.2,3.4c2.6,0.2,5.3,0.3,7.9,0.3l0-3.4C162.8,164.4,160.2,164.3,157.6,164.1z"/>
		<path class="st0" d="M173,164.2l0.2,3.4c2.6-0.1,5.3-0.4,7.9-0.7l-0.4-3.4C178.1,163.9,175.6,164.1,173,164.2z"/>
		<path class="st0" d="M206.3,162.4l-1.6,3c2.3,1.2,4.8,2.3,7.3,3.2l1.1-3.2C210.8,164.6,208.5,163.6,206.3,162.4z"/>
		<path class="st0" d="M245.5,169.5l-0.9-3.3c-0.9,0.3-1.8,0.5-2.7,0.7c-1.5,0.3-3.1,0.6-4.7,0.8l0.4,3.4c1.7-0.2,3.3-0.5,5-0.8
			C243.6,170,244.6,169.7,245.5,169.5z"/>
		<path class="st0" d="M229.7,168.1c-2.5,0-5-0.3-7.5-0.7l-0.5,3.4c2.7,0.4,5.3,0.6,8,0.7L229.7,168.1z"/>
	</g>
	<g>
		<g>
			<path class="st0" d="M252.2,163.2c2.4-0.8,4.8-1.8,7.2-2.7l1.3,3.1c-2.4,1-4.9,2-7.4,2.8L252.2,163.2z M266.2,157.2
				c2.3-1.2,4.5-2.5,6.4-3.6l0.3-0.2l1.7,2.9c-2.2,1.4-4.5,2.7-6.9,3.9L266.2,157.2z M279.3,149.1c1.5-1.1,3.1-2.2,4.6-3.2l1.8-1.3
				l2,2.8l-1.8,1.3c-1.5,1.1-3.1,2.2-4.6,3.3L279.3,149.1z M292.1,140.1c2.4-1.6,4.6-3,6.7-4.2l1.7,3c-2,1.1-4.1,2.5-6.5,4
				L292.1,140.1z M306,132.4c0.6-0.3,1.2-0.5,1.8-0.7c1.9-0.7,3.8-1.3,5.8-1.8l0.8,3.3c-1.8,0.4-3.7,1-5.4,1.6
				c-0.6,0.2-1.2,0.5-1.7,0.7L306,132.4z M321.7,128.8c2.8-0.1,5.5,0.1,8.1,0.5l-0.6,3.3c-2.4-0.4-4.8-0.6-7.4-0.5L321.7,128.8z
				 M336.2,134.9l1.5-3.1c2.6,1.2,4.9,2.8,6.8,4.8l-2.4,2.4C340.4,137.3,338.4,135.9,336.2,134.9z"/>
		</g>
		<g>
			<polygon class="st0" points="325.4,142.4 325.1,139 341.7,137.5 339,121 342.3,120.5 345.6,140.6 			"/>
		</g>
	</g>
</g>
</svg>
