<?xml version="1.0" encoding="utf-8"?>
<!-- Generator: Adobe Illustrator 25.0.0, SVG Export Plug-In . SVG Version: 6.00 Build 0)  -->
<svg version="1.1" id="svg-arrow-4" xmlns="http://www.w3.org/2000/svg" xmlns:xlink="http://www.w3.org/1999/xlink" x="0px" y="0px"
	 viewBox="0 0 288 288" style="enable-background:new 0 0 288 288;" xml:space="preserve">
<style type="text/css">
	.st0{fill:#FF0998;}
</style>
<g>
	<g>
		<path class="st0" d="M136.4,232.2l-1.9-2.5l0.2-0.1c2-1.3,3.9-2.6,5.9-4l1.8,2.6C140.3,229.5,138.3,230.9,136.4,232.2z
			 M130.1,236.3c-2,1.3-4.1,2.7-6.1,4l-1.7-2.7c2-1.3,4.1-2.6,6.1-4L130.1,236.3z M148.3,224.1l-1.8-2.6c2-1.4,4-2.8,6-4.2l1.8,2.6
			C152.2,221.3,150.3,222.7,148.3,224.1z M117.9,244.3c-2.1,1.3-4.1,2.6-6.2,3.9l-1.7-2.7c2.1-1.3,4.1-2.6,6.2-3.9L117.9,244.3z
			 M160.2,215.6l-1.8-2.6c2-1.4,3.9-2.8,5.9-4.3l1.9,2.5C164.1,212.8,162.1,214.2,160.2,215.6z M105.5,252c-2.1,1.3-4.2,2.5-6.2,3.8
			l-1.6-2.7c2.1-1.2,4.2-2.5,6.2-3.8L105.5,252z M171.9,207l-1.9-2.5c1.9-1.5,3.9-2.9,5.8-4.4l1.9,2.5
			C175.8,204.1,173.9,205.5,171.9,207z M92.9,259.4c-2.1,1.2-4.2,2.5-6.3,3.7l-1.6-2.7c2.1-1.2,4.2-2.4,6.3-3.7L92.9,259.4z
			 M183.6,198.2l-1.9-2.5c1.7-1.3,3.5-2.7,5.2-4.1l0.5-0.4l2,2.5l-0.5,0.4C187.1,195.5,185.3,196.8,183.6,198.2z M195,189l-2-2.4
			c1.8-1.6,3.6-3.1,5.4-4.8l2.2,2.3C198.7,185.8,196.9,187.4,195,189z M205.8,178.9l-2.3-2.2c1.7-1.8,3.3-3.6,4.7-5.4l2.5,2
			C209.2,175.2,207.5,177.1,205.8,178.9z M215,167.3l-2.7-1.7c1.3-2.1,2.4-4.2,3.4-6.2l2.9,1.3C217.5,162.9,216.3,165.1,215,167.3z
			 M221,153.6l-3.1-0.8c0.6-2.3,0.9-4.6,1-6.9l3.2,0.2C222,148.5,221.6,151.1,221,153.6z M201.9,151.9l-1.9-2.6
			c1.8-1.3,3.5-2.9,5.1-4.7l2.4,2.1C205.8,148.7,203.9,150.4,201.9,151.9z M221.7,138.5l-3.1,0.5c-0.4-2.3-1.1-4.5-2-6.6l2.9-1.2
			C220.6,133.5,221.3,136,221.7,138.5z M195,155.4c-2.6,0.8-5.2,1.2-7.8,0.9l0.3-3.2c2.2,0.2,4.4-0.1,6.6-0.8L195,155.4z
			 M211.9,140.5l-2.7-1.6c1.2-2,2.1-4.2,2.9-6.4l3,1C214.2,135.9,213.1,138.3,211.9,140.5z M179.7,154.1c-2.2-1.3-4.2-3-5.9-5.2
			l2.5-1.9c1.4,1.8,3.1,3.3,4.9,4.4L179.7,154.1z M216.9,126.3l-2.9-0.6l-0.8,0.6c-1.4-1.9-3-3.6-4.7-5l2-2.4
			c1.3,1.1,2.6,2.4,3.8,3.7c0.2-1.3,0.3-2.6,0.4-3.9l3.2,0.2C217.7,121.4,217.4,123.9,216.9,126.3z M217.9,111.4l-3.2,0.2
			c-0.1-2.3-0.4-4.7-0.8-7.1l3.1-0.5C217.5,106.5,217.8,109,217.9,111.4z M173.2,141l-3,1c-0.8-2.5-1.2-5.1-1.1-7.7l3.2,0.1
			C172.2,136.5,172.5,138.8,173.2,141z M202.7,117.7c-0.6-0.3-1.1-0.5-1.7-0.7c-1.5-0.5-3.1-0.9-4.8-1.1l0.3-3.2
			c1.9,0.2,3.8,0.6,5.5,1.2c0.7,0.2,1.3,0.5,2,0.8L202.7,117.7z M173.7,127.8l-3-1.1c1.1-2.5,2.6-4.7,4.5-6.6l2.2,2.2
			C175.9,124,174.6,125.8,173.7,127.8z M189.4,116.3c-2.3,0.4-4.4,1.2-6.5,2.2l-1.4-2.8c2.3-1.2,4.7-2,7.3-2.5L189.4,116.3z
			 M215.4,96.8l-3.1,0.9c-0.6-2.3-1.4-4.5-2.3-6.8l3-1.1C214,92,214.8,94.4,215.4,96.8z M210.1,82.9l-2.8,1.4
			c-1.1-2.1-2.2-4.2-3.4-6.3l2.7-1.6C207.8,78.5,209,80.7,210.1,82.9z M199.8,72.1c-1.4-1.9-2.9-3.8-4.4-5.6l2.4-2.1
			c1.6,1.9,3.1,3.8,4.6,5.8L199.8,72.1z M190.5,61.2c-1.7-1.7-3.5-3.3-5.3-4.8l2-2.4c1.9,1.6,3.7,3.3,5.5,5L190.5,61.2z M179.6,52
			c-1.9-1.4-3.9-2.7-6-4l1.7-2.7c2.1,1.3,4.2,2.7,6.1,4.1L179.6,52z M167.5,44.4c-2.1-1.1-4.2-2.2-6.4-3.3l1.4-2.9
			c2.2,1.1,4.4,2.2,6.6,3.4L167.5,44.4z M154.5,38.1c-2.2-0.9-4.5-1.8-6.7-2.6l1.1-3c2.3,0.8,4.6,1.7,6.8,2.7L154.5,38.1z
			 M140.9,33.2c-2.3-0.7-4.6-1.4-6.9-2.1l0.9-3.1c2.4,0.7,4.7,1.4,7,2.1L140.9,33.2z M127,29.2c-2.3-0.6-4.7-1.1-7-1.7l0.7-3.1
			c2.4,0.5,4.8,1.1,7.1,1.7L127,29.2z M112.9,26c-2.4-0.5-4.8-0.9-7.1-1.4l0.6-3.1c2.4,0.4,4.8,0.9,7.2,1.4L112.9,26z"/>
	</g>
	<g>
		<polygon class="st0" points="101.4,267.5 102.1,264.4 86.8,261.1 91.2,246.1 88.2,245.2 82.9,263.5 		"/>
	</g>
</g>
</svg>
