<?xml version="1.0" encoding="utf-8"?>
<!-- Generator: Adobe Illustrator 25.0.0, SVG Export Plug-In . SVG Version: 6.00 Build 0)  -->
<svg version="1.1" id="svg-arrow-1" xmlns="http://www.w3.org/2000/svg" xmlns:xlink="http://www.w3.org/1999/xlink" x="0px" y="0px"
	 viewBox="0 0 366.7 182" style="enable-background:new 0 0 366.7 182;" xml:space="preserve">
<g>
	<g>
		<path class="st0" d="M162.7,98.5c-2.6-0.4-5.2-1.5-7.4-3.3l2.5-3.2c2.2,1.8,5,2.7,7.3,2.5l0.4,4.1
			C164.6,98.7,163.7,98.7,162.7,98.5z"/>
		<path class="st0" d="M174.6,93.1l-3-2.7c1.6-1.8,2.6-4.1,3-6.8l0.1-0.6l4.1,0.4l-0.1,0.8C178.1,87.6,176.7,90.7,174.6,93.1z"/>
		<path class="st0" d="M149.7,86.1c0-0.3-0.1-0.6-0.1-0.9c-0.1-1.3,0-2.6,0.1-4c0.3-1.8,0.8-3.7,1.6-5.5l3.7,1.7
			c-0.7,1.5-1.1,2.9-1.3,4.4c-0.1,1-0.2,2-0.1,3.1c0,0.2,0,0.4,0.1,0.6L149.7,86.1z"/>
		<path class="st0" d="M23.3,67.8l-0.4-4.1c3.1-0.3,6.2-0.7,9.3-1.1l0.5,4.1C29.6,67.1,26.5,67.4,23.3,67.8z"/>
		<path class="st0" d="M42.1,65.3l-0.6-4c3.1-0.5,6.2-1,9.3-1.5l0.7,4C48.3,64.3,45.2,64.8,42.1,65.3z"/>
		<path class="st0" d="M60.7,62.1l-0.7-4c3.1-0.5,6.2-1.1,9.3-1.6l0.7,4C66.9,61.1,63.8,61.6,60.7,62.1z"/>
		<path class="st0" d="M173.5,74.6c-0.6-1.6-1.4-3.1-2.4-4.4c-0.7-0.9-1.5-1.7-2.3-2.5l2.8-3c1,0.9,1.9,1.9,2.7,3
			c1.3,1.6,2.3,3.5,3,5.5L173.5,74.6z"/>
		<path class="st0" d="M79.2,59.1l-0.6-4c3.1-0.5,6.2-0.9,9.4-1.3l0.5,4.1C85.4,58.1,82.3,58.6,79.2,59.1z"/>
		<path class="st0" d="M160.1,70.4l-2.9-2.9c2-2.1,4.4-4.1,7.1-5.9l0.5-0.4l2.2,3.4l-0.5,0.3C164.1,66.7,161.9,68.5,160.1,70.4z"/>
		<path class="st0" d="M97.8,56.6l-0.4-4.1c3.1-0.3,6.3-0.6,9.5-0.8l0.3,4.1C104,56,100.9,56.3,97.8,56.6z"/>
		<path class="st0" d="M161.6,62.7c-2.5-1.2-5.2-2.3-8.4-3.2l1.1-3.9c3.4,1,6.4,2.1,9.1,3.5L161.6,62.7z"/>
		<path class="st0" d="M116.4,55.5l-0.1-4.1c3.2-0.1,6.4,0,9.5,0.1l-0.2,4.1C122.6,55.4,119.5,55.4,116.4,55.5z"/>
		<path class="st0" d="M135,56.2l0.4-4.1c3.2,0.3,6.3,0.8,9.5,1.3l-0.7,4C141.1,56.9,138,56.5,135,56.2z"/>
		<path class="st0" d="M175,60.3l-1.7-3.7c2.9-1.4,5.9-2.5,9-3.5l1.2,3.9C180.6,57.9,177.7,59,175,60.3z"/>
		<path class="st0" d="M222.8,54l-1.3,3.9c-1.1-0.4-2.2-0.7-3.3-1c-1.8-0.5-3.7-0.9-5.6-1.2l0.7-4c2,0.3,4,0.8,5.9,1.3
			C220.4,53.3,221.6,53.6,222.8,54z"/>
		<path class="st0" d="M203.6,54.8c-3-0.1-6.1,0-9.1,0.4l-0.4-4.1c3.2-0.3,6.5-0.5,9.7-0.4L203.6,54.8z"/>
	</g>
	<g>
		<g>
			<path class="st0" d="M231.9,58.2c3,1.2,5.9,2.5,8.8,3.8l-1.8,3.7c-2.7-1.3-5.6-2.6-8.5-3.7L231.9,58.2z M249.1,66.5
				c2.8,1.6,5.5,3.3,8.1,5.1l-2.3,3.4l-0.4-0.3c-2.2-1.5-4.8-3.1-7.5-4.7L249.1,66.5z M264.8,77.3c1.8,1.4,3.6,2.8,5.4,4.2l2,1.6
				l-2.5,3.2l-2.1-1.6c-1.8-1.4-3.5-2.8-5.3-4.2L264.8,77.3z M279.7,88.8c2.8,2,5.3,3.8,7.6,5.3l-2.2,3.5c-2.4-1.5-5-3.3-7.9-5.4
				L279.7,88.8z M295.3,98.5c0.7,0.3,1.4,0.6,2,0.9c2,0.9,4.2,1.7,6.4,2.3l-1.1,3.9c-2.4-0.7-4.7-1.5-7-2.5c-0.7-0.3-1.5-0.7-2.2-1
				L295.3,98.5z M312.6,103.4c3.1,0.3,6.1,0.2,9-0.2l0.5,4.1c-3.1,0.4-6.5,0.5-9.8,0.2L312.6,103.4z M337.5,96.3l2.7,3
				c-2.4,2.2-5.4,4-8.5,5.3l-1.6-3.8C332.9,99.8,335.4,98.2,337.5,96.3z"/>
		</g>
		<g>
			<polygon class="st0" points="317.6,91.2 317,95.3 337,98.1 332.8,117.8 336.8,118.6 341.9,94.6 			"/>
		</g>
	</g>
</g>
</svg>
