<?xml version="1.0" encoding="utf-8"?>
<!-- Generator: Adobe Illustrator 25.0.0, SVG Export Plug-In . SVG Version: 6.00 Build 0)  -->
<svg version="1.1" id="svg-arrow-2" xmlns="http://www.w3.org/2000/svg" xmlns:xlink="http://www.w3.org/1999/xlink" x="0px"
	 y="0px" viewBox="0 0 288 194.1" style="enable-background:new 0 0 288 194.1;" xml:space="preserve">
<style type="text/css">
	.st0{fill:#FF0898;}
</style>
<g>
	<g>
		<path class="st0" d="M151.9,120.9c2.5,0.5,5.3,0.2,8-0.7l-1.4-3.8c-2.6,0.9-5.5,1-7.6,0.1l-1.6,3.7
			C150.1,120.5,151,120.8,151.9,120.9z"/>
		<path class="st0" d="M142.5,112.1l3.7-1.6c-0.9-2.1-1.1-4.6-0.7-7.3l0.1-0.6l-3.9-0.9l-0.2,0.8C141,105.9,141.3,109.2,142.5,112.1
			z"/>
		<path class="st0" d="M167.9,113.4c0.1-0.3,0.3-0.5,0.4-0.8c0.5-1.2,0.9-2.4,1.1-3.7c0.3-1.8,0.4-3.7,0.2-5.6l-4,0.4
			c0.2,1.6,0.1,3.1-0.2,4.5c-0.2,1-0.5,2-0.9,2.9c-0.1,0.2-0.2,0.4-0.3,0.5L167.9,113.4z"/>
		<path class="st0" d="M149.4,95.2c1.1-1.3,2.3-2.5,3.7-3.4c0.9-0.6,1.9-1.2,2.9-1.6l-1.7-3.7c-1.2,0.6-2.4,1.2-3.5,1.9
			c-1.7,1.1-3.2,2.5-4.6,4.2L149.4,95.2z"/>
		<path class="st0" d="M163.2,95.5l3.6-1.7c-1.2-2.6-2.8-5.2-4.8-7.7l-0.4-0.5l-3.2,2.5l0.4,0.5C160.6,90.8,162.1,93.2,163.2,95.5z"
			/>
		<path class="st0" d="M225.7,102.3l1.7-3.7c-2.8-1.3-5.7-2.5-8.6-3.7l-1.5,3.7C220.1,99.8,222.9,101,225.7,102.3z"/>
		<path class="st0" d="M164.3,87.8c2.7-0.4,5.6-0.5,8.9-0.3l0.2-4c-3.5-0.2-6.7-0.1-9.6,0.3L164.3,87.8z"/>
		<path class="st0" d="M208.7,95.3l1.4-3.8c-3-1.1-5.9-2-8.9-2.9l-1.1,3.9C202.9,93.3,205.8,94.3,208.7,95.3z"/>
		<path class="st0" d="M191.1,90.2l0.9-3.9c-3.1-0.7-6.1-1.3-9.3-1.7l-0.6,4C185.2,88.9,188.2,89.5,191.1,90.2z"/>
		<path class="st0" d="M152.5,81.4l2.8-2.9c-2.3-2.2-4.8-4.2-7.4-6.1l-2.4,3.3C148,77.4,150.3,79.3,152.5,81.4z"/>
		<path class="st0" d="M109.9,60.5l0,4c1.1,0,2.2,0,3.4,0.1c1.9,0.1,3.7,0.3,5.6,0.6l0.6-4c-2-0.3-4-0.5-6-0.7
			C112.3,60.5,111.1,60.5,109.9,60.5z"/>
		<path class="st0" d="M127.5,67.2c2.8,0.9,5.7,1.9,8.4,3.2l1.7-3.7c-2.9-1.3-5.9-2.5-8.9-3.4L127.5,67.2z"/>
	</g>
	<g>
		<g>
			<polygon class="st0" points="121.4,45.7 124.2,48.6 110,62.5 124.8,75.7 122.2,78.7 104,62.6 			"/>
		</g>
	</g>
</g>
</svg>
