<?xml version="1.0" standalone="no"?>
<!DOCTYPE svg PUBLIC "-//W3C//DTD SVG 20010904//EN"
 "http://www.w3.org/TR/2001/REC-SVG-20010904/DTD/svg10.dtd">
<svg version="1.0" id="arrow-5" xmlns="http://www.w3.org/2000/svg"
 width="97.000000pt" height="70.000000pt" viewBox="0 0 97.000000 70.000000"
 preserveAspectRatio="xMidYMid meet">

<g transform="translate(0.000000,70.000000) scale(0.100000,-0.100000)" stroke="none">
<path d="M787 683 c-14 -13 -6 -21 48 -54 30 -18 55 -36 55 -40 0 -4 -12 -10
-26 -13 -33 -9 -25 -32 10 -28 l28 3 -41 -53 c-30 -39 -37 -56 -29 -65 8 -10
25 6 71 67 33 46 56 85 51 89 -11 10 -153 101 -158 101 -1 0 -6 -3 -9 -7z"/>
<path d="M728 512 c-30 -18 -34 -27 -18 -37 15 -9 69 26 63 42 -7 17 -12 16
-45 -5z"/>
<path d="M592 390 c-20 -27 -21 -31 -7 -36 10 -4 22 2 33 17 34 48 8 66 -26
19z"/>
<path d="M448 293 c-19 -5 -24 -18 -9 -27 16 -10 71 6 71 20 0 14 -26 17 -62
7z"/>
<path d="M520 270 c-13 -25 -13 -63 1 -58 6 2 17 18 24 35 11 27 11 32 -1 37
-7 3 -18 -3 -24 -14z"/>
<path d="M590 276 c0 -7 8 -16 18 -19 9 -2 25 -8 35 -12 24 -10 23 21 -2 35
-27 14 -51 13 -51 -4z"/>
<path d="M308 246 c-19 -8 -24 -16 -18 -25 7 -12 13 -12 39 -1 17 7 31 19 31
26 0 17 -15 17 -52 0z"/>
<path d="M172 177 c-31 -18 -35 -37 -8 -37 21 0 57 34 48 46 -5 7 -17 5 -40
-9z"/>
<path d="M707 183 c-11 -10 -8 -61 4 -69 18 -10 27 9 22 44 -5 31 -13 39 -26
25z"/>
<path d="M505 103 c8 -34 20 -47 33 -39 14 9 -9 66 -26 66 -10 0 -12 -7 -7
-27z"/>
<path d="M42 94 c-20 -14 -31 -44 -16 -44 15 0 64 35 61 44 -6 17 -21 17 -45
0z"/>
<path d="M633 43 c-29 -5 -30 -33 -2 -33 28 0 61 19 54 31 -6 9 -13 10 -52 2z"/>
</g>
</svg>
