<?xml version="1.0" encoding="utf-8"?>
<!-- Generator: Adobe Illustrator 25.0.0, SVG Export Plug-In . SVG Version: 6.00 Build 0)  -->
<svg version="1.1" id="svg-bringing" xmlns="http://www.w3.org/2000/svg" xmlns:xlink="http://www.w3.org/1999/xlink" x="0px" y="0px"
	 viewBox="0 0 366.7 182" style="enable-background:new 0 0 366.7 182;" xml:space="preserve">
<g>
	<path d="M28.3,138c-2-5.9,2-13.3,11.5-21.6c2.2-2.4,3.2-3.2,3.4-4c0.2-1.4,2.8-9.3,4.2-13.3C50.5,90,55.6,79,60.4,69.7
		c2.6-4.4,3.2-6.1,5-11.5c1.4-3.4,4.4-12.1,6.7-19.4c7.5-21.8,9.1-27.3,8.7-30.1c-0.2-1,0-2.2,1-2.8c0.6-0.4,1.4-0.4,2.4,0.6
		c1,0.8,1,0.6-0.6,6.3c-1,4-2.8,9.5-9.7,29.7c-2,5.5-3.6,9.9-3.6,10.1c0,0,1.4-1.8,2.8-3.8c3.4-5,8.1-11.3,12.1-15.8
		c3.8-4.4,13.5-14.3,16.6-16.8c7.1-5.5,12.5-7.9,16.2-7.5c1.4,0.6,2.8,2,3.2,3.6c1.6,5.9-7.3,21.6-21.8,38
		C95.4,54.8,84.6,66.1,80,70l-2.6,2.4L79,72c2.4-1,6.5-1.8,10.1-2c7.9-0.8,15,1.2,19.2,5.1c1.2,1.2,2.2,2.8,2.8,4
		c0.8,1.4,1.2,1.8,1.4,1.6c0.4,0,3-0.8,5.9-1.8c6.7-2.4,13.5-4.2,15-4c1.2,0.2,1.2,0.2,1.2,0.8s0,0.8-0.6,0.8c-1.2,0-8.7,2.2-16,4.4
		l-5.1,1.8v3.2c0.6,13.1-10.5,29.3-28.9,42.6c-10.9,7.7-23.4,13.7-34.3,15.8c-3.8,0.8-10.5,1-13.1,0.4c-4.2-1-7.3-3.4-8.5-6.5
		L28.3,138z M41,118.2c0.2-0.8-0.2-0.6-2.4,1.6c-5,5.1-7.7,9.9-7.9,13.7c-0.2,1.8,0,2.4,0.4,3.2c2,3.2,8.7,4.4,17.6,3
		c19.4-3.4,44.7-20,55.8-36.8c2.4-3.6,3.4-5.9,4.6-9.7c1-2.6,1-3.6,1.2-6.5c0.2-1.8,0.2-3.4,0-3.4s-11.3,3.8-15,5.3
		c-17.4,6.5-31.7,13.5-42.6,20.4l-3.2,2l-1.4,3.2c-3,7.5-4.8,10.7-6.1,10.7c-1.6,0-1.6-1.8-0.8-6.3L41,118.2z M43.8,116.4
		c-0.2,1,0.2,1,0.8-0.6c0.4-1,0.4-1.2,0-0.8c-0.2,0.2-0.6,0.8-0.6,1.4H43.8z M50.5,96c-1.8,4.8-5.1,14.5-5.1,15.2c0,0,0.4,0,0.8-0.4
		c0.4-0.4,1.2-1.8,2.4-4.6c3.4-8.9,9.9-26.7,9.5-26.9c-0.2-0.2-4.6,9.7-7.1,16.4L50.5,96z M60.6,84.1c-0.8-0.2-0.4-0.8-2.8,5.9
		c-1.2,3.6-5.3,14.3-6.3,16.8c0,0.6,0,0.6,0.8,0c0.4-0.2,2.4-1.4,4.2-2.6C61,101.5,72.3,96,79,93.2c6.5-2.8,15.4-6.1,24.6-9.3
		c3.8-1.2,6.9-2.4,6.9-2.4s-0.4-0.8-0.8-1.6c-1.6-3.2-4.8-5.5-9.3-6.7c-1.8-0.4-3.2-0.6-6.5-0.6c-5.9,0-11.1,1-17.4,3.6
		c-4.2,1.4-6.5,2.8-9.5,5.1c-3.8,2.8-5.3,3.6-6.3,3.2V84.1z M61.4,80.1c-0.4,0.6,0.2,0.2,4-2.6C80,66.9,95.8,51.2,106.9,36.4
		c7.7-10.1,12.3-18.2,12.7-22.6c0.2-1.6,0.2-1.8-0.6-2.4c-0.6-0.8-0.8-0.8-2.4-0.8c-7.3,0.6-23.2,14.7-36.8,33.1
		c-3.4,4.4-8.9,12.7-11.3,16.8c-1,1.6-2.2,4.2-4.4,10.7c-1.6,4.6-2.8,8.7-3,8.7L61.4,80.1z"/>
	<path d="M159.2,89.3c-0.6,0-1.2,0.4-2.4,1.2c-5.5,2.8-7.3,3.2-8.9,2.2c-0.8-0.2-1.2-0.6-1.8-1.6c-0.6-1.4-0.6-1.8-0.6-5
		c0-1.8-0.2-3.4-0.4-3.4c-0.6,0-3.4,2.8-5.5,5.5c-4.6,5.1-8.9,11.3-11.1,15.4c-0.6,1.6-1.6,3-2,3.4c-0.6,0.6-1.4,0.6-2,0
		c-1-1-1-1,2.6-10.3c0.8-2.4,2-5.3,2.4-6.9c0.6-1.4,1-2.8,1.2-3c0-0.4,0.6-2.6,1-3.8c0.8-1.8,2.8-2,3.8-0.4c0.6,1.2,0.4,2.8-0.8,5.9
		c-0.4,1.4-0.6,2.4-0.4,2.4c0.2-0.4,1.2-1.4,2.2-2.8c3.6-4.2,7.5-7.5,9.1-7.5c1.8,0,2,0.6,2.2,5.7c0.2,4.6,0.2,4.6,0.6,4.9
		c1.2,1.2,3,0.6,9.3-2.4c0.8-0.4,0.8-0.4,1.4-0.8c0.2,0,0.4,0,0.4,0C159.6,88.5,159.4,88.9,159.2,89.3z"/>
	<path d="M181,89.3c0.6,0,1.2,0.6,0.6,1.2l-2.8,3.4c-10.5,12.7-12.5,14.9-16.4,16.2c-2,0.8-3.4,0.6-4.9-0.2c-3-1.8-4-5.5-2.6-11.7
		c0.2-1.2,0.4-2.4,0.4-2.6s2.2-6.3,3-8.7c2.2-5.7,3.2-7.5,4-8.1c1-0.6,1.8-0.6,2.8,0.2c1,0.6,1,0.8,1.2,2.2c0.2,1.6-0.2,2-3,8.9
		c-2,5.3-3,8.5-3.6,10.7c-1,4.6-1,5.1-0.2,5.7c0.6,0.4,1,0.4,2.2,0.2c3.4-0.8,7.9-5,18.8-17.6c0.2-0.2,0.4-0.4,0.6-0.4V89.3z
		 M164.1,72.2c0-1.6,1.4-3,3.2-3c1.6,0,2.8,1.4,2.8,3c0,1.8-1.2,3.2-2.8,3.2C165.5,75.4,164.1,74,164.1,72.2z"/>
	<path d="M216.2,90.2c0.2,0.4,0.2,0.8-0.2,1c-0.6,0.2-1,0.8-1.8,1.4c-2.8,2.4-7.7,6.3-9.3,7.1c-4,2.8-6.5,3.2-8.1,1.8
		c-1.8-1.8-2.2-3.8-1.4-10.1c0.6-4.6,0.6-4.9,0.2-4.9c-0.4,0-3,1.8-5.1,3.6c-3.4,3.4-7.1,7.5-10.5,12.9c-1,1.6-1.6,2.2-2,2.4
		c-0.8,0.6-1.8,0-2.2-0.8c-0.4-0.8-0.4-1,0-2c0.2-1.8,1.6-5.9,3.6-11.1c1-2.6,1.6-4.6,1.6-4.8c0,0,1.2-2.6,1.8-3.6
		c0.8-1.8,1.6-2.6,2.4-2.6c1,0,1.4,0.6,1.4,1.8c0,0.4-0.8,3-1.6,5.3c-1,2.4-1.8,4.8-1.8,5c-0.2,0.2,0,0,0.6-0.6
		c5-5.3,7.9-7.9,10.5-9.1c1.2-0.6,1.6-0.6,2.6-0.6c3,0.4,3.6,3.2,2.6,11.3c-0.8,4-0.8,4.8,0,5.1c0.6,0.2,2.4-0.2,4.2-1.2
		s6.9-4.4,11.5-7.7c0.4,0,0.6,0,1,0.2L216.2,90.2z"/>
	<path d="M248.3,89.6c0.8,0,1.2,1,0.6,1.4c-0.6,0.4-1,1-1.6,1.4c-5,4.2-11.7,10.1-12.3,10.7c0,0.4-0.4,2-0.6,4
		c-1.8,23-7.9,40.4-18.6,53.5c-5.1,5.9-10.7,9.7-15.2,10.1c-2.4,0.2-3.8-0.2-5.3-1.6c-1.6-1.6-2-3.2-2.2-6.3
		c-0.4-10.7,7.9-26.1,23.8-44.5c1.6-1.8,5.3-5.5,8.3-8.7l5.5-5.1v-5.9c0-3.2,0-7.1,0-8.5l-0.2-2.8l-2.2,3
		c-5.5,8.5-10.5,14.3-12.5,14.8c-1.4,0.4-2.4,0.2-3.2-1c-1-1.8-0.6-4.4-0.4-6.3c0.4-3,1.2-6.1,2.2-8.9c1.2-3,2.8-5.9,4.4-8.7
		c1.6-2.4,3.6-5.3,6.3-6.7c3.2-1.6,6.3,0.2,7.1,4.2c0.4,1.4,0.6,1.4,1.2,1.4c0.4,0,1,0,1.4-0.2c0.2-0.4,0.4-0.4,0.4-0.2
		c0.2,0.2,0.2,4.8,0,11.3c0,5.9,0,10.9,0,11.1c0,0,0.4-0.2,0.6-0.4c0.4-0.6,3.4-2.8,6.7-5.5c2-1.6,3.8-3.2,5.5-4.4
		c0-0.2,0.2-0.4,0.6-0.4L248.3,89.6z M230.1,107.7l-3.6,3.4c-12.1,11.9-22,25.1-26.9,35.4c-4.9,9.9-5.9,18.2-2.2,20
		c1,0.6,2.2,0.4,4.4-0.4c2.2-0.8,5.7-3.4,8.5-6.1c9.7-9.7,15.8-24.2,18.6-44c0.4-3,0.8-6.1,1-6.9L230.1,107.7z M229.7,83.7
		c0,0-0.2-0.4-0.4-0.6c-0.6-0.2-1.2-1.4-1.4-2.8c-0.6-2-1.2-3.2-1.8-3.2c-1,0-4,3.8-6.1,7.9c-3.2,5.7-6.5,17-5.1,17
		c0.2,0,1-0.6,2-1.6c1-0.8,2.8-3,4-4.4C223.7,92.2,229.7,84.1,229.7,83.7z"/>
	<path d="M270.7,89.3c0.6,0,1.2,0.6,0.6,1.2l-2.8,3.4C258,106.5,256,108.7,252.1,110c-2,0.8-3.4,0.6-5-0.2c-3-1.8-4-5.5-2.6-11.7
		c0.2-1.2,0.4-2.4,0.4-2.6s2.2-6.3,3-8.7c2.2-5.7,3.2-7.5,4-8.1c1-0.6,1.8-0.6,2.8,0.2c1,0.6,1,0.8,1.2,2.2c0.2,1.6-0.2,2-3,8.9
		c-2,5.3-3,8.5-3.6,10.7c-1,4.6-1,5.1-0.2,5.7c0.6,0.4,1,0.4,2.2,0.2c3.4-0.8,7.9-5,18.8-17.6c0.2-0.2,0.4-0.4,0.6-0.4V89.3z
		 M253.8,72.2c0-1.6,1.4-3,3.2-3c1.6,0,2.8,1.4,2.8,3c0,1.8-1.2,3.2-2.8,3.2C255.2,75.4,253.8,74,253.8,72.2z"/>
	<path d="M305.9,90.2c0.2,0.4,0.2,0.8-0.2,1c-0.6,0.2-1,0.8-1.8,1.4c-2.8,2.4-7.7,6.3-9.3,7.1c-4,2.8-6.5,3.2-8.1,1.8
		c-1.8-1.8-2.2-3.8-1.4-10.1c0.6-4.6,0.6-4.9,0.2-4.9c-0.4,0-3,1.8-5.1,3.6c-3.4,3.4-7.1,7.5-10.5,12.9c-1,1.6-1.6,2.2-2,2.4
		c-0.8,0.6-1.8,0-2.2-0.8c-0.4-0.8-0.4-1,0-2c0.2-1.8,1.6-5.9,3.6-11.1c1-2.6,1.6-4.6,1.6-4.8c0,0,1.2-2.6,1.8-3.6
		c0.8-1.8,1.6-2.6,2.4-2.6c1,0,1.4,0.6,1.4,1.8c0,0.4-0.8,3-1.6,5.3c-1,2.4-1.8,4.8-1.8,5c-0.2,0.2,0,0,0.6-0.6
		c5-5.3,7.9-7.9,10.5-9.1c1.2-0.6,1.6-0.6,2.6-0.6c3,0.4,3.6,3.2,2.6,11.3c-0.8,4-0.8,4.8,0,5.1c0.6,0.2,2.4-0.2,4.2-1.2
		c1.8-1,6.9-4.4,11.5-7.7c0.4,0,0.6,0,1,0.2L305.9,90.2z"/>
	<path d="M338,89.6c0.8,0,1.2,1,0.6,1.4c-0.6,0.4-1,1-1.6,1.4c-5,4.2-11.7,10.1-12.3,10.7c0,0.4-0.4,2-0.6,4
		c-1.8,23-7.9,40.4-18.6,53.5c-5.1,5.9-10.7,9.7-15.2,10.1c-2.4,0.2-3.8-0.2-5.3-1.6c-1.6-1.6-2-3.2-2.2-6.3
		c-0.4-10.7,7.9-26.1,23.8-44.5c1.6-1.8,5.3-5.5,8.3-8.7l5.5-5.1v-5.9c0-3.2,0-7.1,0-8.5l-0.2-2.8l-2.2,3
		c-5.5,8.5-10.5,14.3-12.5,14.8c-1.4,0.4-2.4,0.2-3.2-1c-1-1.8-0.6-4.4-0.4-6.3c0.4-3,1.2-6.1,2.2-8.9c1.2-3,2.8-5.9,4.4-8.7
		c1.6-2.4,3.6-5.3,6.3-6.7c3.2-1.6,6.3,0.2,7.1,4.2c0.4,1.4,0.6,1.4,1.2,1.4c0.4,0,1,0,1.4-0.2c0.2-0.4,0.4-0.4,0.4-0.2
		c0.2,0.2,0.2,4.8,0,11.3c0,5.9,0,10.9,0,11.1c0,0,0.4-0.2,0.6-0.4c0.4-0.6,3.4-2.8,6.7-5.5c2-1.6,3.8-3.2,5.5-4.4
		c0-0.2,0.2-0.4,0.6-0.4L338,89.6z M319.8,107.7l-3.6,3.4c-12.1,11.9-22,25.1-26.9,35.4c-5,9.9-5.9,18.2-2.2,20
		c1,0.6,2.2,0.4,4.4-0.4c2.2-0.8,5.7-3.4,8.5-6.1c9.7-9.7,15.8-24.2,18.6-44c0.4-3,0.8-6.1,1-6.9L319.8,107.7z M319.4,83.7
		c0,0-0.2-0.4-0.4-0.6c-0.6-0.2-1.2-1.4-1.4-2.8c-0.6-2-1.2-3.2-1.8-3.2c-1,0-4,3.8-6.1,7.9c-3.2,5.7-6.5,17-5.1,17
		c0.2,0,1-0.6,2-1.6c1-0.8,2.8-3,4-4.4C313.4,92.2,319.4,84.1,319.4,83.7z"/>
</g>
</svg>
