<?xml version="1.0" encoding="utf-8"?>
<!-- Generator: Adobe Illustrator 25.0.0, SVG Export Plug-In . SVG Version: 6.00 Build 0)  -->
<svg version="1.1" id="svg-divine-woman" xmlns="http://www.w3.org/2000/svg" xmlns:xlink="http://www.w3.org/1999/xlink" x="0px" y="0px"
	 viewBox="0 0 524.7 197" style="enable-background:new 0 0 524.7 197;" xml:space="preserve">
<style type="text/css">
	.st0{fill:#FF0998;}
</style>
<g>
	<g>
		<path class="st0" d="M16.4,161.6c-2.4,0-2.8-2.6-1.4-8C17.8,142,25.2,124,33.2,110c1.6-2.8,2.8-6,6.2-16
			c6.6-18.6,9.2-28.8,8.8-32.8c-0.2-2.2,0.2-3.4,1.8-4c1-0.4,2.6,0.4,3,1.8c0.4,1.4-0.2,4.2-2.2,11.6C49.4,75.8,45,90,44.6,91.2
			c-0.2,0.4,1.4-1.4,3.2-3.6c7.4-9.8,17.6-20.6,25-26.2c13-10.6,25.4-15.8,34-14.4c3.2,0.6,5.6,1.8,7.6,3.6c7.2,6.8,7,21.6-0.6,39.4
			c-3,7.4-9,18.2-14.6,26.2c-1.4,2.2-2.6,4-2.6,4s1.8-0.6,4-1.2c8.2-2.4,18.6-4.4,20.6-4c1.4,0,2.4,1.2,2,2c0,0.4-0.4,0.6-2.2,0.8
			c-3,0.2-15.6,3.6-25.2,6.6l-3.6,1.2l-3.8,4.6c-15.8,19-33.8,35.2-50.6,45.2c-12,7-22.8,11-27.4,10c-2.2-0.6-3.6-2.2-3.8-4.2
			c-0.6-4.2,5-12.4,13.6-20c17.4-15.4,41-28.8,68-38.4l2.6-1l2.2-3c12.8-17.2,21.4-35.4,23.2-48.6c0.6-4.2,0.4-9.8-0.6-12.6
			c-6.6-19.6-40-3-67,33.2c-7.2,9.4-7,8.6-12.2,24.8c-7.4,21.8-12,33.6-16,41c-2,3.4-3,4.6-4.4,4.6L16.4,161.6z M86.4,128l-3.4,1
			c-28.6,10.6-55,27-68,42.6c-2.4,2.8-5.2,7.6-5.2,8.8c0,1.6,2.4,1.8,6.6,0.6c4-1,6.6-2.2,12.6-5.2c18.4-9.4,39.6-27,55.6-46
			L86.4,128z M22,140.2c-2.4,6.2-4.6,14-4.2,14c0.2,0,0.8-1.2,1.4-2.8c2-3.6,5-11.2,7.4-18.4c2.6-8.2,3.8-11.8,3.8-11.8
			c-0.6,0-6.6,13.8-8.4,19.2V140.2z"/>
		<path class="st0" d="M137.8,125.2c0.6,0,1.2,0.6,0.6,1.2l-2.8,3.4c-10.6,12.8-12.6,15-16.6,16.4c-2,0.8-3.4,0.6-5-0.2
			c-3-1.8-4-5.6-2.6-11.8c0.2-1.2,0.4-2.4,0.4-2.6c0-0.2,2.2-6.4,3-8.8c2.2-5.8,3.2-7.6,4-8.2c1-0.6,1.8-0.6,2.8,0.2
			c1,0.6,1,0.8,1.2,2.2c0.2,1.6-0.2,2-3,9c-2,5.4-3,8.6-3.6,10.8c-1,4.6-1,5.2-0.2,5.8c0.6,0.4,1,0.4,2.2,0.2c3.4-0.8,8-5,19-17.8
			c0.2-0.2,0.4-0.4,0.6-0.4V125.2z M120.8,108c0-1.6,1.4-3,3.2-3c1.6,0,2.8,1.4,2.8,3c0,1.8-1.2,3.2-2.8,3.2
			C122.2,111.2,120.8,109.8,120.8,108z"/>
		<path class="st0" d="M174.6,121.8c0.4,0.6,0,1.4-0.6,1.6c-0.4,0.2-0.6,0.2-1,0.4c-5.2,2.6-6.8,3.2-8.8,3.2c-1.4,0-1.8-0.2-2.4-0.6
			c-1.4-1-2-2-2.2-3.4v-1.2l-3.4,4c-5.6,7-13,15.4-15.8,18.4c-3.8,3.8-5.4,4.2-7,1.8c-0.4-0.6-0.6-1.2-0.6-3.2c0-2.8,0.6-5.8,2.4-13
			c0.6-2.4,1-4.4,1-4.6c0,0,1.4-4.6,1.4-5c0.2-0.2,0.6-1,1.2-1.6c0.6-0.6,1.2-1,1.6-1c2,0,2.4,1.6,1.2,4.8
			c-1.2,3.4-3.6,11.6-4.4,15.6c-1.2,4.8-1.4,6.2-1,6.2c1,0,7.4-7.6,16.8-19.2c4.2-5.4,5.6-7.4,7-9.8c0.4-0.8,1-1.8,1.4-2.2
			c0.8-0.4,1-0.4,1.8,0.2c0.6,0.2,1,0.8,1.4,1.2c0.2,0.8,0.2,1-0.6,2.6c-1.2,2.6-1.6,4.8-1.2,5.8c0.6,1.4,3.4,2.2,10-0.6
			c0.8-0.4,1.4-1.2,1.6-0.4H174.6z"/>
		<path class="st0" d="M194.2,125.2c0.6,0,1.2,0.6,0.6,1.2l-2.8,3.4c-10.6,12.8-12.6,15-16.6,16.4c-2,0.8-3.4,0.6-5-0.2
			c-3-1.8-4-5.6-2.6-11.8c0.2-1.2,0.4-2.4,0.4-2.6c0-0.2,2.2-6.4,3-8.8c2.2-5.8,3.2-7.6,4-8.2c1-0.6,1.8-0.6,2.8,0.2
			c1,0.6,1,0.8,1.2,2.2c0.2,1.6-0.2,2-3,9c-2,5.4-3,8.6-3.6,10.8c-1,4.6-1,5.2-0.2,5.8c0.6,0.4,1,0.4,2.2,0.2c3.4-0.8,8-5,19-17.8
			c0.2-0.2,0.4-0.4,0.6-0.4V125.2z M177.2,108c0-1.6,1.4-3,3.2-3c1.6,0,2.8,1.4,2.8,3c0,1.8-1.2,3.2-2.8,3.2
			C178.6,111.2,177.2,109.8,177.2,108z"/>
		<path class="st0" d="M229.8,126.2c0.2,0.4,0.2,0.8-0.2,1c-0.6,0.2-1,0.8-1.8,1.4c-2.8,2.4-7.8,6.4-9.4,7.2c-4,2.8-6.6,3.2-8.2,1.8
			c-1.8-1.8-2.2-3.8-1.4-10.2c0.6-4.6,0.6-5,0.2-5c-0.4,0-3,1.8-5.2,3.6c-3.4,3.4-7.2,7.6-10.6,13c-1,1.6-1.6,2.2-2,2.4
			c-0.8,0.6-1.8,0-2.2-0.8c-0.4-0.8-0.4-1,0-2c0.2-1.8,1.6-6,3.6-11.2c1-2.6,1.6-4.6,1.6-4.8c0,0,1.2-2.6,1.8-3.6
			c0.8-1.8,1.6-2.6,2.4-2.6c1,0,1.4,0.6,1.4,1.8c0,0.4-0.8,3-1.6,5.4c-1,2.4-1.8,4.8-1.8,5c-0.2,0.2,0,0,0.6-0.6c5-5.4,8-8,10.6-9.2
			c1.2-0.6,1.6-0.6,2.6-0.6c3,0.4,3.6,3.2,2.6,11.4c-0.8,4-0.8,4.8,0,5.2c0.6,0.2,2.4-0.2,4.2-1.2c1.8-1,7-4.4,11.6-7.8
			c0.4,0,0.6,0,1,0.2L229.8,126.2z"/>
		<path class="st0" d="M255,126.8c0,0.2-0.4,0.4-0.6,0.6c-3.2,4-13,13.6-16.2,16c-5.2,3.8-9.4,5.6-12.8,5.4
			c-2.4-0.2-3.8-1.2-4.8-3.2c-0.6-1.2-0.6-1.8-0.6-3.8s0-3,0.8-5c3.4-10.6,13-22,17.6-21.4c2.6,0.4,3.2,3.2,1.6,6.6
			c-1.8,3.8-6,9.6-9.2,12.2c-1.8,1.6-3,2.2-4.4,2.6c-1.4,0.2-1.4,0.2-2,1.6c-0.8,2.4-1.4,5-1,6c0.4,1.4,1.2,1.8,3,1.8
			c5,0,12.6-5.2,24.8-17.8c1-1,1.8-1.6,2.6-2.4c0.4-0.4,0.8-0.4,1.2,0C255.2,126.2,255.2,126.6,255,126.8z M230.2,128
			c-2,2.8-3.8,6.4-3.6,6.4s0.8-0.4,1.2-0.8c4.2-3.4,10.4-11.8,9.8-13.6c0-1-4.8,3.8-7.6,8H230.2z"/>
		<path class="st0" d="M329,115.4c0.8,0.8,0.8,4.2,0.2,6.4c-1.6,5.6-5.2,11.8-10.4,17.6c-4.8,5.4-8.2,7.8-11.2,8.2
			c-1.4,0-1.6,0-2.6-1c-3.2-2.8-2.6-8.8,2.4-20.2c2-4.6,2-4.6,1-3.4c-2.2,2.6-8,10-11.6,15.2c-5.2,7-6.2,7.8-8,7.4
			c-2.4-0.4-2.2-6.2,0.6-16.8c0.8-2.4,1.2-4.4,1.2-4.4s1.4-3.4,1.4-4.2c0.4-1.2,1.8-2.2,2.6-2.2c1.2,0,2,1,2,2.2
			c0,0.6-0.6,3.4-1.4,6.2c-1.8,5.2-4.2,13.6-3.8,13.8c0.2,0,1.4-1.6,3-3.8c8.4-11.2,16-20.4,18.2-21.6c1.4-0.8,2.6-0.2,2.4,1.6
			c0,0.6-1,3.6-2.4,6.8c-3,6.6-4.8,11-5.6,14.8c-1.2,4.2-0.8,6.8,1,6.6c1.2-0.2,4.4-2.2,6.4-4.4c6.2-6,12.6-17.2,13-22.2
			c0-1.2,0-1.2-0.8-1.2c-1,0.2-1.4,0-1.2-1c0.2-1.2,2.6-1.6,3.6-0.6V115.4z"/>
		<path class="st0" d="M359.4,124c0.2,0.6,0,1.2-0.6,1.2c-1,0.4-2.4,0.6-3.6,1c-4.2,0.8-0.4,0.8-5.6,1.2c-5.2,0.4-4.8,0.2-5.6,1.8
			c-2.4,4.8-8,10.6-11.2,11.8c-2.8,1-4.6-0.6-5.2-4c0-1.2,0.2-5.6,0.6-6.8c0.2-0.4,1-4,1.8-5.6c1-1.8,2.4-3,3.4-3
			c0.4,0,0.8-0.2,1.2-0.6c2.8-2,7.2-3,9-2s2.2,1.8,2.2,4.2v2.2h1c1.8,0-0.8,0.2,2.6-0.2c2.6-0.4,3.8-0.6,9.4-1.8
			c0.6-0.2,1,0,1.2,0.4L359.4,124z M339.6,130.4c1-1.2,1.6-2.2,1.4-2.2c-0.2,0-1.8-0.2-3.6-0.2h-3.6l-1,2.2c-1,2.4-1.8,6.8-1.6,7.4
			c0.2,0.6,1.6,0.2,2.8-0.8c1.6-1.4,4-4,5.6-6.2V130.4z M342.8,124.2c0.6-1.8,0.2-2.8-1-2.8c-1,0-3,1-4.6,2c-1.6,1-1.8,1.2-1.8,1.8
			s0.6,0.6,4,0.6h2.8l0.4-1.4L342.8,124.2z"/>
		<path class="st0" d="M409.6,127.8c0.6,0,1,0.8,0.6,1.2c-3.2,2.6-5,4.2-6.6,5.4c-2.8,2-6.4,4-8,4.2c-2.2,0.6-4.2-0.8-5-3.6
			c-0.4-1.4-0.4-2.4-0.2-6.2c0.2-3,0.2-4.4-0.2-4.6c-0.6-0.4-2.8,1-10.4,6.6c-4.2,3.2-5.2,3.4-6.2,2.8c-0.8-0.6-0.8-0.8-0.8-2.4
			c0-1.4,0.4-2.8,1-5c0.6-1.6,1-3,0.8-3.2c0,0-0.8,0.6-1.8,1.2c-1.8,1.4-13.4,12.6-15.6,15.4c-1.6,1.8-3.6,3.2-4.2,3.2
			c-1,0-1.6-0.8-1.6-2.4c0-1.2,0.8-4.4,1.8-6.4c0.4-0.4,0.6-1,0.4-1c0,0,2-4,3.6-7.8c1.2-2.4,2.4-5.6,3-7c1-2.6,2-4,3.2-4
			c1,0,1.8,0.6,2.2,1.4c1,1.6,0.8,2-4.4,13c-1.2,2.2-2,4-2.2,4.2s0.6-0.6,1.6-1.6c4.2-4.8,9.4-9.4,12.6-11.2c3.4-2,5.2-1.4,5.2,2
			c0,1.6-1,5-1.8,6.6c-0.2,0.4-0.2,0.4,0.2,0.2c7.2-5.6,10.4-7.4,13-7.4c1.2,0,2.2,0.4,2.6,1.6c0.4,0.8,0.4,1.6,0.4,5.8
			c-0.4,5.8,0,6.8,1.2,7.4c2.2,1,6.4-1.4,15.2-8.8c0,0,0-0.2,0.2-0.2L409.6,127.8z"/>
		<path class="st0" d="M449.6,129.8c0.6,0,1,0.4,1,1c-0.2,0.6-0.6,1.2-1,1.8c-0.8,0.6-1.8,1.4-2.6,2.2c-3.2,2.8-6.8,5.2-10.4,7.6
			c-1.6,0.8-3,1.8-4.8,1.8c-1.4,0.2-3,0-4.2-1c-1-1.2-1.2-3-1.2-4.6c-0.2-3.2,0.4-5.8,3-14.4c0.6-1.4,1-2.8,1-2.8
			c-0.2-0.4-3.4,3.2-7,7.6c-11,13.8-15,18.6-17,19.4c-2.2,1-4,0.4-5-1.8c-1.8-3.2,0.6-11.6,5.2-20c3.8-6.8,8-11,12.2-12.6
			c2.2-0.6,5-0.2,7,1.4c0.8,0.8,1.8,2.6,1.8,3.4c0,0.2,0,0.6,0,0.6c0.2,0,1-0.4,1.6-1c2.2-1.6,3.6-1.2,3.6,1.2
			c0,0.4-0.8,3.4-1.6,6.4c-2.8,10.8-3,15-1,15.4c2,0.6,5.8-1.4,12-6c2.2-1.8,4-3.4,6-5.2c0.2-0.2,0.6-0.4,1-0.4H449.6z M425.8,121.8
			c0,0-0.8-0.4-1.4-1c-2-1.2-3.4-1.2-5.2-0.4c-4.2,2-9.4,10.4-12.8,20c-0.4,1.4-0.8,3-1,3.4c-0.2,0.8-0.2,0.8,0.4,0.4
			c0.2,0,1.2-0.8,2-1.6c0.8-0.6,4.6-4.8,8.2-9c3.6-4.4,7.2-8.8,8.4-9.8C425.2,122.8,426,121.8,425.8,121.8z"/>
		<path class="st0" d="M486.4,126.2c0.2,0.4,0.2,0.8-0.2,1c-0.6,0.2-1,0.8-1.8,1.4c-2.8,2.4-7.8,6.4-9.4,7.2c-4,2.8-6.6,3.2-8.2,1.8
			c-1.8-1.8-2.2-3.8-1.4-10.2c0.6-4.6,0.6-5,0.2-5c-0.4,0-3,1.8-5.2,3.6c-3.4,3.4-7.2,7.6-10.6,13c-1,1.6-1.6,2.2-2,2.4
			c-0.8,0.6-1.8,0-2.2-0.8c-0.4-0.8-0.4-1,0-2c0.2-1.8,1.6-6,3.6-11.2c1-2.6,1.6-4.6,1.6-4.8c0,0,1.2-2.6,1.8-3.6
			c0.8-1.8,1.6-2.6,2.4-2.6c1,0,1.4,0.6,1.4,1.8c0,0.4-0.8,3-1.6,5.4c-1,2.4-1.8,4.8-1.8,5c-0.2,0.2,0,0,0.6-0.6c5-5.4,8-8,10.6-9.2
			c1.2-0.6,1.6-0.6,2.6-0.6c3,0.4,3.6,3.2,2.6,11.4c-0.8,4-0.8,4.8,0,5.2c0.6,0.2,2.4-0.2,4.2-1.2s7-4.4,11.6-7.8c0.4,0,0.6,0,1,0.2
			L486.4,126.2z"/>
		<path class="st0" d="M501.1,136.7c-1.1,1.1-1.7,1.2-2.4,0.3c-0.5-0.3-0.9-0.9-1.1-1.1c-0.3-0.8-0.3-2.4,0.1-3.5
			c0.5-1.1,1.1-1.5,2.3-1.4c1.4,0.3,1.8,0.5,2.3,1.2C502.9,133.5,502.4,135.2,501.1,136.7z"/>
	</g>
</g>
</svg>
