<?xml version="1.0" encoding="utf-8"?>
<!-- Generator: Adobe Illustrator 25.0.0, SVG Export Plug-In . SVG Version: 6.00 Build 0)  -->
<svg version="1.1" id="svg-manifest" xmlns="http://www.w3.org/2000/svg" xmlns:xlink="http://www.w3.org/1999/xlink" x="0px" y="0px"
	 viewBox="0 0 414.7 197" style="enable-background:new 0 0 414.7 197;" xml:space="preserve">
<style type="text/css">
	.st0{fill:#FF0998;}
</style>
<g>
	<g>
		<path class="st0" d="M22.1,111.4c0.6,4-2.8,6.3-5.3,3.8c-2-2-0.8-6.3,4-16.2C33,73.2,60.1,40,71.2,37c1.4-0.4,2.2-0.4,3.4,0.2
			c4.4,1.6,4.2,8.5-0.4,24c-0.8,3-3.6,12.1-5.9,20c-6.7,22-17,57.4-16.8,57.6c0,0.2,1.4-2.6,3-5.9c6.5-14.8,17-35.2,24.2-47.1
			c13.3-22.8,28.7-42.8,34.5-44.4c0.6-0.2,1.2,0,1.8,0.4c1,1,1.2,1.4,1,4.2c0,4.2-1.2,9.1-6.5,27.1c-2.2,7.9-4.6,16.4-5.3,19.2
			c-3.2,11.9-4.4,19.8-3.2,19.8c1.2,0,7.3-6.9,12.3-13.9c2.8-3.6,8.7-11.7,13.1-17.6c19.4-26.9,30.5-40.6,43.6-53.7
			c3.8-3.6,7.9-7.7,9.5-8.9c2.4-2,3-2.4,4.4-2.2c1.2,0,1.6,0.4,2,1.4c0.6,1.6-0.4,4-5.9,16c-8.5,18.2-13.3,29.7-17.8,45.5
			c-5.9,20-12.9,50.1-13.9,59.6c0,3.6,0,3.8,0.8,4.2c2,1.2,0.6,5.5-1.8,5.5c-1.8,0-3.6-2.2-4.6-4.9c-4.2-10.3,1.6-37.2,15.2-72.3
			c5.7-14.8,9.5-23.2,16.4-37c5-10.1,6.1-12.3,5-11.5c-2,1.4-15.8,15.8-21.6,22.6c-8.9,10.3-16.6,20.4-31.9,40.6
			c-15.4,20.8-19.8,26.1-22.4,27.9c-3.6,2.2-5.3,1.4-6.1-2.8c-0.8-4.4,2.4-17.8,9.1-38.4c2.6-7.9,5.1-16.2,5.7-18.4
			c1.4-5,2.4-9.7,1.8-10.3c-2.4-2.2-23,25.5-36.2,48.5c-7.5,13.3-16.4,31.1-23.8,47.1c-1.8,4.2-3.8,8.1-4.2,8.9
			c-1,1.8-2.4,1.8-3.2,0.4c-1.4-3.2,5.1-29.1,17-65.1C73,52.8,74.2,48.7,74,41.9c-0.2-1.2-0.4-1.4-1.4-1.4c-2.4,0-5.7,2.6-12.5,9.3
			C53.2,57,46.8,64.3,40.7,73.2c-11.1,16-19.6,33.3-18.8,38.2H22.1z"/>
		<path class="st0" d="M209.4,107.9c0.6,0,1,0.4,1,1c-0.2,0.6-0.6,1.2-1,1.8c-0.8,0.6-1.8,1.4-2.6,2.2c-3.2,2.8-6.7,5.1-10.3,7.5
			c-1.6,0.8-3,1.8-4.8,1.8c-1.4,0.2-3,0-4.2-1c-1-1.2-1.2-3-1.2-4.6c-0.2-3.2,0.4-5.7,3-14.3c0.6-1.4,1-2.8,1-2.8
			c-0.2-0.4-3.4,3.2-6.9,7.5c-10.9,13.7-14.8,18.4-16.8,19.2c-2.2,1-4,0.4-4.9-1.8c-1.8-3.2,0.6-11.5,5.1-19.8
			c3.8-6.7,7.9-10.9,12.1-12.5c2.2-0.6,4.9-0.2,6.9,1.4c0.8,0.8,1.8,2.6,1.8,3.4c0,0.2,0,0.6,0,0.6c0.2,0,1-0.4,1.6-1
			c2.2-1.6,3.6-1.2,3.6,1.2c0,0.4-0.8,3.4-1.6,6.3c-2.8,10.7-3,14.8-1,15.2c2,0.6,5.7-1.4,11.9-5.9c2.2-1.8,4-3.4,5.9-5.1
			c0.2-0.2,0.6-0.4,1-0.4H209.4z M185.8,99.9c0,0-0.8-0.4-1.4-1c-2-1.2-3.4-1.2-5.1-0.4c-4.2,2-9.3,10.3-12.7,19.8
			c-0.4,1.4-0.8,3-1,3.4c-0.2,0.8-0.2,0.8,0.4,0.4c0.2,0,1.2-0.8,2-1.6c0.8-0.6,4.6-4.8,8.1-8.9c3.6-4.4,7.1-8.7,8.3-9.7
			C185.2,100.9,186,99.9,185.8,99.9z"/>
		<path class="st0" d="M245.8,104.3c0.2,0.4,0.2,0.8-0.2,1c-0.6,0.2-1,0.8-1.8,1.4c-2.8,2.4-7.7,6.3-9.3,7.1c-4,2.8-6.5,3.2-8.1,1.8
			c-1.8-1.8-2.2-3.8-1.4-10.1c0.6-4.6,0.6-4.9,0.2-4.9c-0.4,0-3,1.8-5.1,3.6c-3.4,3.4-7.1,7.5-10.5,12.9c-1,1.6-1.6,2.2-2,2.4
			c-0.8,0.6-1.8,0-2.2-0.8c-0.4-0.8-0.4-1,0-2c0.2-1.8,1.6-5.9,3.6-11.1c1-2.6,1.6-4.6,1.6-4.8c0,0,1.2-2.6,1.8-3.6
			c0.8-1.8,1.6-2.6,2.4-2.6c1,0,1.4,0.6,1.4,1.8c0,0.4-0.8,3-1.6,5.3c-1,2.4-1.8,4.8-1.8,5c-0.2,0.2,0,0,0.6-0.6
			c5-5.3,7.9-7.9,10.5-9.1c1.2-0.6,1.6-0.6,2.6-0.6c3,0.4,3.6,3.2,2.6,11.3c-0.8,4-0.8,4.8,0,5.1c0.6,0.2,2.4-0.2,4.2-1.2
			c1.8-1,6.9-4.4,11.5-7.7c0.4,0,0.6,0,1,0.2L245.8,104.3z"/>
		<path class="st0" d="M266.8,103.3c0.6,0,1.2,0.6,0.6,1.2l-2.8,3.4c-10.5,12.7-12.5,14.9-16.4,16.2c-2,0.8-3.4,0.6-5-0.2
			c-3-1.8-4-5.5-2.6-11.7c0.2-1.2,0.4-2.4,0.4-2.6s2.2-6.3,3-8.7c2.2-5.7,3.2-7.5,4-8.1c1-0.6,1.8-0.6,2.8,0.2c1,0.6,1,0.8,1.2,2.2
			c0.2,1.6-0.2,2-3,8.9c-2,5.3-3,8.5-3.6,10.7c-1,4.6-1,5.1-0.2,5.7c0.6,0.4,1,0.4,2.2,0.2c3.4-0.8,7.9-5,18.8-17.6
			c0.2-0.2,0.4-0.4,0.6-0.4V103.3z M250,86.3c0-1.6,1.4-3,3.2-3c1.6,0,2.8,1.4,2.8,3c0,1.8-1.2,3.2-2.8,3.2
			C251.4,89.5,250,88.1,250,86.3z"/>
		<path class="st0" d="M276.5,86.1c-2.8,5.7-3.4,7.3-4.4,10.9c-1.4,5.3-4.2,17.2-4,17.4c0,0,1.6-1,3.2-2.2c4.2-2.6,7.5-5.1,10.7-8.3
			c0.2-0.2,0.4-0.2,0.8-0.2c0.8,0,1.4,1,0.6,1.6c-3.2,2.6-9.3,7.5-13.1,9.9c-3.2,2-3.4,2.4-2.2,4.2c2.2,4.2,1.8,13.9-1.2,26.5
			c-1.4,5.1-4.2,13.7-5.1,15c-1,1.6-2,1.8-3,1.2c-0.8-0.8-1-1.6-1.2-4c-0.4-5.5,1.4-17,5.1-35.4l0.8-3l-0.8-0.6
			c-0.8-0.6-1.2-1.2-0.8-2c0.4-0.6,0.6-0.8,1.4-1h0.8l1.6-6.9c0.8-3.8,1.8-6.9,1.8-7.3c0-0.2,1-4.2,2.2-8.1
			c4.6-17.6,11.5-35,18.2-46.5c2.8-4.6,4-5.7,5.3-5c0.6,0.4,0.8,0.6,1,1.6s0,1.8-0.8,4c-2.4,7.7-7.7,19.8-16.6,38.4L276.5,86.1z
			 M266.4,123.1c-0.6,1-5.5,31.1-5.3,32.3c0,0.4,1.8-4.9,2.8-8.7c1.8-7.1,3-13.5,3.2-18C267,126.1,266.8,122.7,266.4,123.1z
			 M278.7,76.2c-2,5.1-1.6,5,1.6-2.2c2.8-6.5,5.1-12.3,7.7-18.8c2.2-6.1,2.4-7.1,1.2-5.1c-2.8,4.8-7.7,16.8-10.7,25.9L278.7,76.2z"
			/>
		<path class="st0" d="M306.2,104.9c0,0.2-0.4,0.4-0.6,0.6c-3.2,4-12.9,13.5-16,15.8c-5.1,3.8-9.3,5.5-12.7,5.3
			c-2.4-0.2-3.8-1.2-4.8-3.2c-0.6-1.2-0.6-1.8-0.6-3.8c0-2,0-3,0.8-4.9c3.4-10.5,12.9-21.8,17.4-21.2c2.6,0.4,3.2,3.2,1.6,6.5
			c-1.8,3.8-5.9,9.5-9.1,12.1c-1.8,1.6-3,2.2-4.4,2.6c-1.4,0.2-1.4,0.2-2,1.6c-0.8,2.4-1.4,4.9-1,5.9c0.4,1.4,1.2,1.8,3,1.8
			c5,0,12.5-5.1,24.6-17.6c1-1,1.8-1.6,2.6-2.4c0.4-0.4,0.8-0.4,1.2,0C306.4,104.3,306.4,104.7,306.2,104.9z M281.7,106.1
			c-2,2.8-3.8,6.3-3.6,6.3s0.8-0.4,1.2-0.8c4.2-3.4,10.3-11.7,9.7-13.5c0-1-4.8,3.8-7.5,7.9H281.7z"/>
		<path class="st0" d="M327.6,103.7c-1.4,1.2-4.2,4.2-5.5,5.1c-1.8,1.6-4.2,3.6-5.3,4.6c-1.2,1-2.2,1.8-2.2,1.8s0.2,0.6,0.6,1.2
			c2.8,4,2.8,7.7,0.4,12.9c-3.2,6.5-9.1,11.9-16.4,14.3c-6.5,2.2-10.1-1.4-7.1-7.5c0.4-0.8,1.4-2.6,2.4-3.8
			c2.2-2.8,8.5-9.1,12.7-12.9l3-2.6l-0.8-0.8c-1.4-1.8-2.8-4.2-3.4-5.9c-0.6-1.8-0.8-5.5-0.4-7.3c0.2-0.6,0.2-1,0-1l1-1.8
			c0-0.6,1.4-3.2,2.2-4.2c1-0.8,1.4-0.8,2.6-1c1.2-0.2,1.4,0,2.4,0.8c0.6,0.6,1.2,1.2,1.2,2c0.2,1.6,0,2.4-1.4,4
			c-2.6,3-3.4,6.5-1.8,9.5c0.4,1,1.2,2,1.4,2.4l0.6,0.8l4.4-3.6c3.8-2.8,5.1-4,8.9-7.9c0.2,0,0.4,0,0.6,0
			C327.6,102.9,327.8,103.3,327.6,103.7z M311,130c1.4-2,2.4-4.9,2.4-6.5c0-1.4-1-3.6-2-4.6l-0.6-0.6l-4.2,3.8
			c-6.7,6.1-10.9,11.1-12.5,14.7c-0.8,1.8-1.2,3.8-0.6,4c0.4,0.2,1.2,0.2,2.2,0c1.4,0,2.4-0.4,4.4-1.4c4.4-2.2,8.7-5.9,11.1-9.3H311
			z"/>
		<path class="st0" d="M382.8,71.6c-0.6,0.8-2.2,1.6-3.4,1.4c-0.6-0.2-0.8-0.2-1-0.8c-0.2-0.4-0.2-0.6-1.2-0.8
			c-1.4-0.4-22.2-0.2-27.7,0c-6.9,0.4-7.7,0.6-7.7,1.2c0,0.2-1,2.2-2,4.4c-8.7,19.8-16.4,42.4-23.6,69.7c-4.2,17-7.5,33.7-7.7,39.4
			c0,3.8,0,4.4,0.8,5.1c2,2.2-0.4,3.8-2.2,1.6c-2-2-2.2-6.3-0.6-17.4c3.6-24.2,29.1-102.4,29.1-102.8c-0.6,0.2-12.3,1.4-16,2
			c-5,0.6-5.5,0.8-5.3,1c0.8,0.6,0.8,2.2,0,2.8c-0.2,0.2-2.2,0.4-4.2,0.6c-4,0.2-12.3,1.2-20.4,2.6c-6.5,1-7.7,0.8-7.7-1
			c0-1.4,0.6-1.8,4.2-2.8c19-3.8,31.5-5.9,44.5-7.7c3.2-0.4,5.9-0.8,5.9-1c0.2,0,2-3.2,4.2-6.7c5.5-9.5,18-29.9,18.8-30.9
			c1-1.2,3.2,0,2.6,1.6c0,0.2-1.2,2.6-2.8,5c-1.4,2.4-3.8,6.9-5.3,9.9c-3.6,6.3-10.5,20.4-10.3,20.6c0.2,0.2,2.2,0,4.4-0.2
			c5.7-0.4,25.9-0.6,29.7-0.4c3.4,0.4,4.6,0.8,5,2.2C383.2,70.6,383,71,382.8,71.6z"/>
	</g>
</g>
</svg>
