<?xml version="1.0" standalone="no"?>
<!DOCTYPE svg PUBLIC "-//W3C//DTD SVG 20010904//EN"
 "http://www.w3.org/TR/2001/REC-SVG-20010904/DTD/svg10.dtd">
<svg version="1.0" id="svg-christmas" xmlns="http://www.w3.org/2000/svg"
 width="378.000000pt" height="176.000000pt" viewBox="0 0 378.000000 176.000000"
 preserveAspectRatio="xMidYMid meet">

<g transform="translate(0.000000,176.000000) scale(0.100000,-0.100000)"
fill="#000000" stroke="none">
<path d="M922 1744 c-272 -73 -596 -393 -777 -769 -216 -448 -185 -764 75
-765 172 0 479 189 856 528 l101 90 -38 -102 c-44 -118 -79 -247 -79 -288 0
-40 26 -36 44 7 24 56 129 204 200 280 l65 70 -6 -77 -6 -78 30 0 c23 0 48 15
103 65 40 36 74 64 76 62 2 -1 -6 -29 -18 -60 -14 -39 -18 -61 -11 -68 7 -7
31 22 76 88 36 54 85 118 109 143 l43 45 5 -45 c7 -60 15 -70 53 -69 29 2 29
2 6 6 -28 4 -39 31 -39 94 0 46 -32 36 -96 -28 -43 -44 -55 -52 -49 -33 15 42
11 74 -7 78 -12 2 -20 -7 -28 -37 -6 -22 -22 -54 -36 -70 -38 -46 -178 -155
-182 -142 -2 6 4 44 13 86 19 86 16 105 -19 105 -26 0 -89 -66 -190 -200 -27
-36 -53 -69 -58 -75 -5 -5 4 26 20 70 72 193 93 237 145 298 103 121 279 380
337 495 53 105 24 134 -54 54 -102 -106 -225 -290 -325 -490 -60 -120 -62
-122 -178 -226 -261 -232 -502 -415 -638 -484 -374 -188 -515 55 -314 543 144
351 419 670 688 799 121 58 226 70 266 30 21 -21 19 -90 -5 -143 -22 -47 -19
-61 10 -61 34 0 80 89 80 154 0 17 -8 47 -18 65 -36 67 -116 86 -230 55z m668
-331 c-87 -158 -255 -406 -291 -428 -21 -14 141 273 209 370 54 75 114 146
119 141 3 -3 -14 -40 -37 -83z"/>
<path d="M2732 1623 c-10 -16 -69 -112 -131 -215 -62 -104 -115 -188 -119
-188 -4 0 -79 -11 -166 -25 -352 -55 -487 -90 -432 -111 9 -4 74 1 144 10 70
9 146 19 170 22 32 4 42 10 42 23 0 15 15 20 94 29 52 7 106 12 120 12 l24 0
-60 -180 -60 -181 -61 -49 c-34 -28 -65 -50 -70 -50 -4 0 -14 15 -23 33 -14
30 -14 36 0 68 9 19 21 42 28 52 16 22 0 51 -30 55 -26 4 -58 -43 -67 -99 -5
-30 -22 -53 -86 -113 -57 -55 -86 -76 -105 -76 -25 0 -26 2 -20 41 4 23 23 84
42 136 37 100 40 136 11 141 -13 3 -25 -12 -47 -60 -16 -38 -38 -69 -52 -76
l-23 -12 24 6 c20 5 23 4 17 -12 -21 -53 -29 -133 -16 -163 28 -69 95 -49 191
58 l63 71 18 -34 c10 -19 22 -37 27 -41 6 -3 -30 -44 -79 -91 -101 -98 -139
-160 -121 -200 30 -66 193 11 255 120 34 59 40 97 21 142 l-16 39 48 42 c26
23 51 42 55 43 3 0 -4 -35 -18 -77 -80 -256 -132 -473 -141 -592 -5 -67 -3
-79 15 -101 23 -28 39 -22 23 8 -26 50 -1 197 84 491 102 353 220 656 262 672
35 13 376 12 390 -2 15 -15 55 -1 51 19 -5 28 -58 33 -250 26 -104 -3 -188 -3
-188 0 0 9 122 248 169 332 37 65 41 84 20 84 -4 0 -16 -12 -27 -27z m-517
-984 c16 -29 15 -33 -9 -83 -34 -69 -135 -146 -192 -146 -19 0 -18 40 2 70 15
22 175 190 181 190 1 0 10 -14 18 -31z"/>
<path d="M1991 1046 c-16 -20 -3 -46 24 -46 25 0 38 21 29 45 -8 19 -38 19
-53 1z"/>
<path d="M2508 838 c-103 -228 -90 -244 68 -88 63 62 117 111 119 108 3 -3 0
-26 -7 -52 -20 -77 -3 -79 94 -13 46 32 86 57 91 57 4 0 7 -27 7 -61 0 -97 24
-118 91 -83 17 8 33 13 35 11 3 -2 0 -24 -5 -47 -13 -57 0 -90 35 -90 30 0 54
23 186 188 50 61 93 110 95 108 2 -2 -5 -37 -17 -77 -23 -83 -26 -139 -8 -157
32 -32 123 5 209 84 14 13 28 24 31 24 3 0 15 -14 26 -32 l21 -32 -84 -81
c-90 -87 -125 -136 -125 -176 0 -108 204 -21 270 115 24 50 25 90 5 130 -9 16
-14 30 -13 31 55 43 148 129 144 133 -3 3 -27 -15 -54 -40 -26 -24 -60 -53
-75 -63 -27 -17 -28 -17 -42 1 -21 27 -18 74 6 113 28 47 22 76 -16 76 -24 0
-33 -7 -47 -35 -10 -19 -18 -51 -18 -71 0 -31 -7 -41 -57 -82 -74 -60 -140
-94 -155 -79 -16 16 -12 75 12 162 11 41 20 81 20 88 0 15 -32 16 -48 0 -9 -9
-12 -9 -12 3 0 26 -34 49 -74 49 -48 0 -111 -57 -155 -140 -23 -44 -44 -67
-75 -85 -75 -44 -86 -34 -86 70 0 35 -5 67 -11 70 -17 11 -53 -2 -109 -40 -29
-19 -54 -35 -56 -35 -2 0 1 12 6 26 13 33 13 71 0 79 -16 10 -72 -26 -138 -88
l-62 -60 35 77 c37 80 42 119 14 124 -11 2 -31 -30 -71 -120z m747 49 c17 -13
13 -20 -58 -103 -41 -49 -94 -107 -117 -129 -38 -36 -42 -38 -35 -15 12 42 65
153 92 193 25 36 65 66 89 67 5 0 18 -6 29 -13z m365 -279 c0 -56 -83 -149
-163 -183 -109 -45 -85 29 56 173 l72 73 18 -22 c9 -12 17 -30 17 -41z"/>
</g>
</svg>
