<?xml version="1.0" standalone="no"?>
<!DOCTYPE svg PUBLIC "-//W3C//DTD SVG 20010904//EN"
 "http://www.w3.org/TR/2001/REC-SVG-20010904/DTD/svg10.dtd">
<svg version="1.0" id="svg-this-is-for-you" xmlns="http://www.w3.org/2000/svg"
 width="341.000000pt" height="126.000000pt" viewBox="0 0 341.000000 126.000000"
 preserveAspectRatio="xMidYMid meet">

<g transform="translate(0.000000,126.000000) scale(0.100000,-0.100000)"
fill="#000000" stroke="none">
<path d="M567 1198 c-18 -29 -57 -94 -87 -143 l-54 -90 -200 -33 c-189 -31
-229 -42 -213 -59 12 -11 231 18 243 33 13 16 154 32 154 18 0 -5 -18 -68 -41
-139 -68 -220 -146 -496 -164 -582 -18 -89 -17 -184 2 -190 8 -3 10 8 6 34
-10 80 90 476 180 713 66 172 69 177 117 182 22 2 40 2 40 0 0 -3 -27 -59 -59
-126 -58 -118 -123 -294 -136 -368 -6 -31 -4 -38 9 -38 9 0 16 4 16 9 0 15 95
151 143 205 l44 50 -5 -57 c-6 -70 5 -73 72 -22 l46 36 0 -30 c0 -29 22 -61
41 -61 23 0 57 25 100 73 l46 51 17 -32 17 -32 -66 -67 c-65 -65 -83 -98 -71
-129 5 -13 15 -15 42 -11 48 8 96 42 128 91 28 43 32 75 16 107 -9 17 -3 27
42 70 l53 51 -57 -47 -58 -47 -12 27 c-10 22 -9 32 6 60 20 36 16 65 -8 65
-18 0 -46 -38 -46 -62 0 -22 -112 -138 -134 -138 -23 0 -20 38 10 119 42 113
10 143 -36 34 -18 -46 -38 -72 -74 -102 -28 -22 -52 -39 -54 -36 -2 2 2 29 9
60 9 39 9 59 2 66 -18 18 -45 -4 -113 -90 -35 -45 -65 -81 -67 -81 -3 0 34 99
61 165 9 22 30 54 45 70 16 17 52 63 81 103 50 70 53 72 94 72 23 0 47 -5 54
-12 9 -9 15 -9 23 -1 20 20 -1 33 -52 33 -27 0 -49 2 -49 5 0 2 20 37 44 77
48 79 64 122 47 132 -16 10 -71 -46 -131 -133 l-55 -80 -48 -1 -49 0 71 135
c39 74 71 137 71 140 0 19 -24 -3 -53 -47z m134 -126 c-35 -70 -64 -106 -79
-101 -16 5 86 159 105 159 2 0 -10 -26 -26 -58z m-81 -131 c0 -10 -88 -131
-95 -131 -7 0 19 51 52 103 22 34 43 49 43 28z m308 -395 c3 -23 -6 -38 -46
-76 -55 -53 -102 -70 -102 -38 0 23 118 150 134 145 6 -2 12 -16 14 -31z"/>
<path d="M1967 1113 c-59 -103 -120 -268 -162 -440 -9 -40 -22 -73 -27 -73 -6
0 -7 -7 -4 -16 3 -9 -3 -68 -14 -131 -24 -140 -26 -203 -6 -203 34 0 83 203
72 295 -5 48 -4 54 18 68 23 15 24 15 30 -8 10 -39 39 -30 88 24 35 39 53 51
91 59 53 11 53 12 21 -67 -33 -79 -9 -81 39 -3 19 31 51 75 71 97 l35 40 1
-31 c0 -17 6 -37 14 -43 15 -12 62 -6 72 10 3 5 -7 4 -21 -1 -40 -15 -45 -13
-45 25 0 50 -23 55 -65 15 l-34 -33 2 28 c3 35 -20 45 -28 12 -5 -19 -15 -26
-43 -31 -56 -9 -62 -8 -62 14 0 29 -24 35 -72 19 -33 -11 -44 -21 -59 -55 -10
-24 -27 -48 -39 -54 -19 -10 -20 -9 -14 17 18 85 39 140 92 248 73 147 115
252 107 265 -12 19 -25 9 -58 -47z m-18 -107 c-18 -42 -34 -75 -35 -73 -2 2
10 38 27 81 18 42 34 75 36 72 2 -2 -10 -38 -28 -80z m41 -291 c0 -10 -10 -15
-32 -15 -31 1 -32 1 -14 15 25 19 46 19 46 0z m-26 -47 c-12 -22 -47 -58 -56
-58 -14 0 -9 38 8 54 19 19 59 22 48 4z m-169 -256 c-10 -45 -19 -81 -22 -79
-2 2 4 51 14 108 10 57 19 93 21 79 2 -14 -4 -62 -13 -108z"/>
<path d="M767 854 c-15 -15 -7 -45 11 -42 9 2 17 12 17 22 0 20 -16 31 -28 20z"/>
<path d="M1317 854 c-15 -15 -7 -45 11 -42 9 2 17 12 17 22 0 20 -16 31 -28
20z"/>
<path d="M1269 743 c-28 -66 -43 -135 -35 -166 13 -55 79 -39 136 33 17 22 35
40 39 40 4 0 13 -12 19 -26 11 -24 8 -29 -53 -91 -65 -65 -83 -98 -71 -129 5
-13 15 -15 42 -11 48 8 96 42 128 91 28 43 32 75 16 107 -9 17 -3 27 42 70
l53 51 -57 -47 -58 -47 -12 27 c-10 22 -9 32 6 60 20 36 16 65 -8 65 -20 0
-46 -39 -46 -68 0 -15 -19 -43 -54 -78 -89 -88 -109 -66 -60 65 25 68 27 101
4 101 -6 0 -20 -21 -31 -47z m199 -197 c3 -23 -6 -38 -46 -76 -55 -53 -102
-70 -102 -38 0 23 118 150 134 145 6 -2 12 -16 14 -31z"/>
<path d="M3093 751 c-12 -30 -22 -40 -45 -45 -49 -10 -58 -7 -58 14 0 11 -7
23 -16 27 -24 9 -95 -19 -106 -41 -10 -23 -121 -100 -126 -87 -1 4 4 36 12 71
8 35 13 67 10 71 -2 4 -35 -22 -72 -57 -77 -74 -155 -130 -160 -114 -2 5 15
44 38 86 31 58 39 79 30 88 -8 8 -15 6 -27 -9 -29 -38 -74 -144 -71 -167 6
-43 39 -32 132 42 48 39 89 70 91 68 1 -2 -7 -31 -19 -65 -20 -59 -26 -66
-116 -134 -193 -147 -310 -293 -310 -388 0 -53 26 -81 76 -81 53 0 98 25 157
90 68 73 125 182 177 342 l42 126 59 42 59 41 0 -30 c0 -76 31 -80 93 -11 35
39 53 51 85 56 l40 6 -10 -42 c-9 -34 -8 -44 5 -57 15 -15 23 -9 103 68 66 63
85 78 80 59 -22 -82 -28 -120 -23 -134 13 -32 49 -16 116 51 l66 66 -68 -61
c-100 -91 -117 -81 -77 46 38 120 25 121 -93 5 -95 -94 -103 -91 -45 19 17 31
27 61 23 67 -13 23 -37 10 -52 -28z m-123 -36 c0 -10 -10 -15 -32 -15 -31 1
-32 1 -14 15 25 19 46 19 46 0z m-26 -47 c-12 -22 -47 -58 -56 -58 -11 0 -10
27 2 51 6 11 21 19 36 19 17 0 23 -4 18 -12z m-298 -232 c-67 -185 -144 -304
-231 -358 -34 -21 -85 -24 -103 -6 -33 33 5 138 79 223 77 88 281 263 287 246
1 -4 -13 -52 -32 -105z"/>
</g>
</svg>
