<?xml version="1.0" standalone="no"?>
<!DOCTYPE svg PUBLIC "-//W3C//DTD SVG 20010904//EN"
 "http://www.w3.org/TR/2001/REC-SVG-20010904/DTD/svg10.dtd">
<svg version="1.0" id="svg-about" xmlns="http://www.w3.org/2000/svg"
 width="248.000000pt" height="161.000000pt" viewBox="0 0 248.000000 161.000000"
 preserveAspectRatio="xMidYMid meet">

<g transform="translate(0.000000,161.000000) scale(0.100000,-0.100000)"
fill="#000000" stroke="none">
<path d="M955 1574 c-185 -95 -446 -412 -611 -741 -32 -65 -59 -119 -60 -120
-1 -3 -220 -69 -257 -77 -42 -10 -24 -23 40 -31 50 -6 63 -13 96 -46 40 -43
43 -59 26 -139 -12 -58 -6 -100 16 -100 23 0 36 45 34 114 -2 84 61 253 100
268 87 33 486 154 489 148 1 -4 -11 -56 -28 -115 -57 -205 -85 -395 -60 -410
6 -4 10 10 10 34 0 52 41 249 83 394 l32 112 65 17 c36 9 87 17 114 17 42 1
47 -1 40 -16 -4 -10 -29 -80 -55 -157 -63 -188 -84 -316 -51 -316 4 0 13 26
20 58 16 79 104 250 157 307 47 51 75 56 85 15 5 -21 -4 -35 -56 -85 -33 -33
-71 -79 -83 -103 -25 -49 -25 -95 0 -100 38 -7 131 107 159 193 15 48 30 67
30 39 0 -24 18 -44 41 -44 9 0 41 26 69 58 44 47 62 59 101 68 54 12 54 13 39
-50 -5 -25 -5 -46 1 -58 14 -26 37 -12 147 95 50 50 92 86 92 81 0 -5 -9 -38
-20 -72 -48 -154 0 -182 110 -66 l45 48 -58 -52 c-64 -57 -97 -67 -97 -29 0
13 11 61 25 108 42 139 28 139 -120 -3 -53 -50 -98 -89 -100 -86 -6 6 53 129
72 150 19 21 8 60 -15 56 -10 -2 -27 -23 -39 -48 -21 -45 -40 -57 -93 -59 -20
-1 -28 6 -37 29 -14 36 -37 39 -93 10 -27 -14 -45 -32 -56 -58 l-16 -37 -14
32 c-19 45 -46 58 -83 39 -31 -17 -78 -72 -105 -123 -27 -53 -36 -47 -16 11
24 71 34 89 84 151 23 28 96 132 163 230 165 246 188 295 141 295 -51 0 -213
-206 -308 -392 l-45 -88 -57 0 c-31 0 -80 -5 -108 -11 -28 -6 -53 -9 -55 -7
-2 2 39 118 91 256 116 307 131 383 86 420 -23 18 -51 14 -107 -14z m98 -70
c-1 -51 -17 -102 -91 -295 -49 -129 -95 -251 -101 -271 -7 -21 -16 -40 -19
-42 -4 -2 -115 -39 -247 -81 -132 -42 -246 -78 -252 -80 -28 -9 105 226 210
375 181 255 401 467 477 458 24 -3 25 -6 23 -64z m353 -220 c-56 -105 -200
-324 -250 -379 l-37 -40 55 110 c60 123 150 262 221 343 26 28 49 52 52 52 2
0 -16 -39 -41 -86z m24 -434 c0 -17 -7 -20 -37 -20 l-38 1 24 19 c30 26 51 25
51 0z m-20 -48 c0 -13 -67 -82 -80 -82 -18 0 -3 52 22 73 21 17 58 23 58 9z
m-189 -130 c-26 -50 -110 -142 -111 -121 0 27 101 159 122 159 5 0 0 -17 -11
-38z m-979 -59 c-14 -38 -27 -70 -28 -72 -2 -2 -17 13 -34 33 -18 20 -43 39
-57 42 -13 4 -21 9 -18 12 6 7 134 49 152 51 7 1 1 -25 -15 -66z"/>
<path d="M2207 1413 c-29 -49 -77 -127 -106 -175 -45 -75 -56 -88 -84 -93 -18
-3 -75 -12 -127 -20 -117 -19 -299 -54 -322 -61 -10 -3 -18 -12 -18 -21 0 -12
7 -14 28 -10 15 3 72 10 127 17 133 16 145 18 142 32 -1 8 30 17 92 25 52 7
96 12 97 10 2 -2 -18 -70 -45 -153 -163 -507 -247 -860 -221 -928 15 -42 27
-30 22 22 -12 125 140 687 265 977 l38 90 188 0 c161 0 187 2 185 15 -3 13
-32 15 -181 18 l-177 2 36 72 c20 40 58 112 85 160 27 49 49 93 49 98 0 27
-24 2 -73 -77z"/>
</g>
</svg>
