<?xml version="1.0" encoding="utf-8"?>
<!-- Generator: Adobe Illustrator 25.0.0, SVG Export Plug-In . SVG Version: 6.00 Build 0)  -->
<svg version="1.1" id="svg-this-is-how" xmlns="http://www.w3.org/2000/svg" xmlns:xlink="http://www.w3.org/1999/xlink" x="0px" y="0px"
	 viewBox="0 0 481.3 288" style="enable-background:new 0 0 481.3 288;" xml:space="preserve">
<g>
	<path d="M171.6,89.9c1,0.9,0.5,3-2.5,10.9c-0.5,1.5-0.8,2.6-0.6,2.6c0.1,0,2.5-0.6,5.2-1.5c14.2-4.4,24-6.9,32.2-8.2
		c14.7-2.4,23.7-2.1,27.1,1.3c2.2,2.1,2.2,4.5,0.5,8.2c-1.3,2.7-1.8,3.5-2.5,3.3c-0.9-0.3-0.8-1,0.5-3.5c2-4,1.3-6-2.2-7
		c-1.3-0.4-2.7-0.6-7.5-0.6c-8.4,0-15.9,1.2-30.4,5c-8.7,2.1-23.8,6.4-24.3,6.7c-0.3,0.5-4.2,11.7-6.8,19.2
		c-3.3,10.2-6.3,21.7-8.5,32.2c-0.8,3.8-0.8,4-0.5,6.5c0.6,3.4,0.5,11.2-0.1,15.6c-0.6,4.7-2,11.2-3,14.7c-0.8,2.2-1,2.7-1.4,2.7
		c-0.3-0.1-0.9,0-1.2,0.2s-0.6,0.2-1.2-0.5c-0.9-1-1-2.4-0.9-7.6c0.3-6.9,2.1-19.8,3.9-28.8c0.3-1.7,0.6-3.3,0.6-3.9
		c0-2.4-4.9-12.9-8.8-18.7c-7.2-10.8-14.4-15.1-27.3-16.2c-3.8-0.5-4.5-0.6-4.5-1.5s0.5-1,3.6-1c3.7-0.2,11.7-2.1,26.4-6.3
		c6-1.7,24.1-7.2,25.8-7.6c0.8-0.5,2.1-3.5,5-11.7c0.8-2.2,1.6-4,1.8-4.2c0.6-0.5,1.8-0.3,2.1,0.1L171.6,89.9z M160.6,113.3
		c0.9-2.5,1.6-4.7,1.5-4.8c0-0.2-3.3,0.8-7.3,1.9c-8,2.1-27.3,7-34.2,8.7l-4.5,1l2.5,0.6c9.5,2.5,16.2,7.5,22.2,16.6
		c2,3.2,5.5,10,6.8,13.8c0.6,1.6,0.9,2.1,1.2,1.8c0-0.3,0.8-3.1,1.3-6.4c2.5-10.5,6.3-22.9,10.2-33.4L160.6,113.3z M148,176.1
		c-1.7,10.8-2.5,18.8-2,19.5c0.3,0.3,0.3,0.6,1.5-5.5c1.5-7.3,2-10.5,2.1-16.6C149.8,167.1,149.7,167.4,148,176.1z"/>
	<path d="M172.6,148.4c-1.8,1.9-1.8,1.9-3.3,5.5c-2.2,5.4-7.2,18.4-7,18.6c0,0,0.5-0.6,0.8-1.2c2.8-4.2,10.5-13.8,13.2-16.3
		c2.4-2.4,3.6-2.9,4.8-1.7c1,1,0.9,2.7-0.5,8.2c-1.2,4.2-1.3,4.6-0.8,4.6c1,0,4.8-2.8,9.8-7.3c0.5-0.5,1.6-1.8,2.5-2.7
		c0.5-0.5,1.2-0.2,1.3,0.3c0,0.3,0,0.6-0.1,0.8c-0.9,0.9-3,3-3.9,3.8c-4.9,4.8-7.8,7.2-9.6,7.3c-1.2,0.1-1.8-0.2-2.1-1.1
		c-0.6-0.8-0.3-3.7,0.5-7c0.3-1.5,0.6-2.9,0.6-3c0-0.5-5.5,5.7-8.7,9.4c-2.4,3-3.6,4.8-5.9,8.2c-2.5,3.9-3.3,4.9-4,7
		c-0.4,1.3-0.4,1.3-1,1.5c-0.6,0.1-1,0-1.3-0.2c-0.3-0.5-0.5-0.6-0.5-1.8c0.2-4.2,4.7-18.4,9.1-28.9c0.5-1,2-4.5,3.2-7
		c4.6-9.7,9.6-18.3,15.7-26.5c4.8-6.7,9.5-11.7,11.1-12.3c0.8-0.3,0.9-0.3,1.3,0.1c1.4,0.9,1.2,2.2-0.7,6.2c-1.7,3.4-4.4,7.6-8,13.2
		c-6.8,10.2-13.2,18.9-16.3,22.2H172.6z M174.9,141.3c-1.8,3.9-2.2,4.9-1.7,4.2c0.2-0.1,1.2-1.3,2.2-2.8c5.7-6.9,10.9-15,15.6-23.1
		c1.6-2.7,3.9-7.3,4.5-8.7l0.3-1l-1.4,1.5c-5.4,5.5-13.6,18.4-19.3,30H174.9z"/>
	<path d="M210.6,154.7c0.5,0,0.9,0.4,0.5,0.9l-2.1,2.5c-7.9,9.6-9.4,11.2-12.4,12.3c-1.5,0.6-2.5,0.5-3.8-0.2
		c-2.2-1.3-3-4.2-1.9-8.8c0.1-0.9,0.3-1.8,0.3-1.9c0-0.2,1.6-4.8,2.2-6.6c1.6-4.3,2.4-5.7,3-6.1c0.8-0.5,1.3-0.5,2.1,0.2
		c0.8,0.4,0.8,0.6,0.9,1.6c0.2,1.2-0.1,1.5-2.2,6.8c-1.5,4-2.2,6.4-2.7,8.1c-0.8,3.5-0.8,3.9-0.2,4.3c0.5,0.3,0.8,0.3,1.7,0.2
		c2.5-0.6,6-3.8,14.2-13.3c0.2-0.2,0.3-0.3,0.5-0.3V154.7z M197.8,141.8c0-1.2,1-2.2,2.4-2.2c1.2,0,2.1,1,2.1,2.2
		c0,1.3-0.9,2.4-2.1,2.4C198.9,144.2,197.8,143.1,197.8,141.8z"/>
	<path d="M225,155c-1,0.9-3.1,3.1-4.2,3.9c-1.4,1.2-3.2,2.7-4,3.5c-0.9,0.8-1.7,1.3-1.7,1.3s0.2,0.5,0.5,0.9c2.1,3,2.1,5.8,0.3,9.7
		c-2.4,5-6.9,9-12.4,10.8c-5,1.7-7.6-1-5.4-5.7c0.3-0.6,1.1-2,1.8-2.9c1.6-2.1,6.4-6.9,9.6-9.7l2.2-2l-0.6-0.6
		c-1-1.4-2.1-3.2-2.5-4.5c-0.5-1.4-0.6-4.2-0.3-5.5c0.1-0.5,0.1-0.8,0-0.8l0.8-1.4c0-0.4,1-2.4,1.6-3.1c0.8-0.6,1.1-0.6,2-0.8
		c0.9-0.2,1,0,1.8,0.6c0.5,0.5,0.9,0.9,0.9,1.5c0.1,1.2,0,1.8-1,3c-2,2.2-2.5,5-1.4,7.2c0.3,0.8,0.9,1.5,1,1.8l0.5,0.6l3.3-2.7
		c2.9-2.1,3.9-3,6.8-6c0.2,0,0.3,0,0.5,0C225,154.4,225.1,154.7,225,155z M212.4,174.9c1.1-1.5,1.8-3.8,1.8-5c0-1-0.8-2.7-1.5-3.5
		l-0.5-0.4l-3.2,2.8c-5.1,4.6-8.2,8.4-9.4,11.1c-0.6,1.3-0.9,2.8-0.5,3c0.3,0.2,0.9,0.2,1.7,0c1,0,1.8-0.3,3.3-1
		c3.3-1.7,6.6-4.5,8.4-7H212.4z"/>
	<path d="M264.4,154.7c0.4,0,0.9,0.4,0.4,0.9l-2.1,2.5c-7.9,9.6-9.4,11.2-12.4,12.3c-1.5,0.6-2.5,0.5-3.8-0.2c-2.2-1.3-3-4.2-2-8.8
		c0.2-0.9,0.3-1.8,0.3-1.9c0-0.2,1.6-4.8,2.2-6.6c1.7-4.3,2.4-5.7,3-6.1c0.8-0.5,1.4-0.5,2.1,0.2c0.8,0.4,0.8,0.6,0.9,1.6
		c0.2,1.2-0.1,1.5-2.2,6.8c-1.5,4-2.2,6.4-2.7,8.1c-0.8,3.5-0.8,3.9-0.2,4.3c0.5,0.3,0.8,0.3,1.7,0.2c2.5-0.6,6-3.8,14.2-13.3
		c0.2-0.2,0.3-0.3,0.5-0.3V154.7z M251.7,141.8c0-1.2,1-2.2,2.4-2.2c1.2,0,2.1,1,2.1,2.2c0,1.3-0.9,2.4-2.1,2.4
		C252.7,144.2,251.7,143.1,251.7,141.8z"/>
	<path d="M278.8,155c-1.1,0.9-3.2,3.1-4.2,3.9c-1.3,1.2-3.1,2.7-4,3.5s-1.7,1.3-1.7,1.3s0.2,0.5,0.5,0.9c2.1,3,2.1,5.8,0.3,9.7
		c-2.4,5-6.9,9-12.4,10.8c-4.9,1.7-7.6-1-5.4-5.7c0.3-0.6,1-2,1.8-2.9c1.6-2.1,6.4-6.9,9.6-9.7l2.2-2l-0.6-0.6
		c-1-1.4-2.1-3.2-2.5-4.5c-0.4-1.4-0.6-4.2-0.3-5.5c0.2-0.5,0.2-0.8,0-0.8l0.8-1.4c0-0.4,1-2.4,1.7-3.1c0.8-0.6,1-0.6,1.9-0.8
		c0.9-0.2,1,0,1.8,0.6c0.5,0.5,0.9,0.9,0.9,1.5c0.2,1.2,0,1.8-1,3c-2,2.2-2.5,5-1.4,7.2c0.3,0.8,0.9,1.5,1.1,1.8l0.4,0.6l3.3-2.7
		c2.8-2.1,3.9-3,6.7-6c0.2,0,0.3,0,0.5,0C278.8,154.4,279,154.7,278.8,155z M266.2,174.9c1-1.5,1.8-3.8,1.8-5c0-1-0.8-2.7-1.5-3.5
		l-0.5-0.4l-3.1,2.8c-5.1,4.6-8.2,8.4-9.5,11.1c-0.6,1.3-0.9,2.8-0.5,3c0.3,0.2,0.9,0.2,1.7,0c1,0,1.8-0.3,3.3-1
		c3.3-1.7,6.6-4.5,8.4-7H266.2z"/>
	<path d="M307.5,148.4c-1.8,1.9-1.8,1.9-3.3,5.5c-2.2,5.4-7.2,18.4-7,18.6c0,0,0.5-0.6,0.8-1.2c2.8-4.2,10.5-13.8,13.2-16.3
		c2.4-2.4,3.6-2.9,4.8-1.7c1,1,0.9,2.7-0.5,8.2c-1.2,4.2-1.3,4.6-0.8,4.6c1.1,0,4.8-2.8,9.8-7.3c0.5-0.5,1.7-1.8,2.5-2.7
		c0.5-0.5,1.2-0.2,1.4,0.3c0,0.3,0,0.6-0.2,0.8c-0.9,0.9-3,3-3.9,3.8c-4.9,4.8-7.8,7.2-9.6,7.3c-1.2,0.1-1.8-0.2-2.1-1.1
		c-0.6-0.8-0.3-3.7,0.5-7c0.3-1.5,0.6-2.9,0.6-3c0-0.5-5.5,5.7-8.7,9.4c-2.4,3-3.6,4.8-5.8,8.2c-2.5,3.9-3.3,4.9-4,7
		c-0.5,1.3-0.5,1.3-1,1.5c-0.6,0.1-1.1,0-1.4-0.2c-0.3-0.5-0.5-0.6-0.5-1.8c0.2-4.2,4.7-18.4,9.2-28.9c0.4-1,1.9-4.5,3.1-7
		c4.7-9.7,9.6-18.3,15.7-26.5c4.8-6.7,9.5-11.7,11.1-12.3c0.8-0.3,0.9-0.3,1.4,0.1c1.3,0.9,1.2,2.2-0.8,6.2c-1.7,3.4-4.3,7.6-8,13.2
		c-6.7,10.2-13.2,18.9-16.3,22.2H307.5z M309.7,141.3c-1.8,3.9-2.2,4.9-1.7,4.2c0.2-0.1,1.2-1.3,2.2-2.8c5.7-6.9,11-15,15.6-23.1
		c1.7-2.7,3.9-7.3,4.5-8.7l0.3-1l-1.3,1.5c-5.4,5.5-13.6,18.4-19.3,30H309.7z"/>
	<path d="M347.2,153.8c0.1,0.5,0,0.9-0.5,0.9c-0.8,0.3-1.8,0.4-2.7,0.8c-3.1,0.6-0.3,0.6-4.2,0.9c-3.9,0.3-3.6,0.2-4.2,1.3
		c-1.8,3.6-6,8-8.4,8.8c-2.1,0.8-3.5-0.4-3.9-3c0-0.9,0.2-4.2,0.5-5.1c0.2-0.3,0.8-3,1.4-4.2c0.8-1.4,1.8-2.2,2.5-2.2
		c0.3,0,0.6-0.2,0.9-0.5c2.1-1.5,5.4-2.2,6.8-1.5s1.6,1.4,1.6,3.2v1.6h0.8c1.4,0-0.6,0.2,2-0.1c2-0.3,2.8-0.5,7-1.4
		c0.5-0.1,0.8,0,0.9,0.3L347.2,153.8z M332.4,158.6c0.8-0.9,1.2-1.7,1-1.7c-0.1,0-1.3-0.1-2.7-0.1H328l-0.8,1.6
		c-0.8,1.8-1.3,5.1-1.2,5.5c0.2,0.5,1.2,0.2,2.1-0.6c1.2-1,3-3,4.2-4.6V158.6z M334.8,153.9c0.4-1.4,0.1-2.1-0.8-2.1
		c-0.8,0-2.2,0.8-3.5,1.5s-1.3,0.9-1.3,1.4c0,0.4,0.4,0.4,3,0.4h2.1l0.3-1L334.8,153.9z"/>
	<path d="M373.6,147.3c0.6,0.6,0.6,3.2,0.2,4.8c-1.2,4.2-3.9,8.9-7.8,13.2c-3.6,4-6.1,5.8-8.4,6.1c-1,0-1.2,0-2-0.8
		c-2.4-2.1-2-6.6,1.8-15.1c1.5-3.5,1.5-3.5,0.8-2.5c-1.6,2-6,7.5-8.7,11.4c-3.9,5.2-4.7,5.8-6,5.5c-1.8-0.3-1.7-4.6,0.5-12.6
		c0.6-1.8,0.9-3.3,0.9-3.3s1-2.5,1-3.1c0.3-0.9,1.4-1.7,2-1.7c0.9,0,1.5,0.8,1.5,1.7c0,0.5-0.5,2.5-1,4.6
		c-1.3,3.9-3.1,10.2-2.8,10.3c0.1,0,1-1.2,2.2-2.8c6.3-8.4,12-15.3,13.6-16.2c1-0.6,1.9-0.2,1.8,1.2c0,0.5-0.8,2.7-1.8,5.1
		c-2.2,4.9-3.6,8.2-4.2,11.1c-0.9,3.1-0.6,5.1,0.8,4.9c0.9-0.1,3.3-1.6,4.8-3.3c4.6-4.5,9.4-12.9,9.8-16.6c0-0.9,0-0.9-0.6-0.9
		c-0.8,0.1-1,0-0.9-0.8c0.1-0.9,1.9-1.2,2.7-0.5V147.3z"/>
</g>
</svg>
