<?xml version="1.0" encoding="utf-8"?>
<!-- Generator: Adobe Illustrator 25.0.0, SVG Export Plug-In . SVG Version: 6.00 Build 0)  -->
<svg version="1.1" id="svg-what" xmlns="http://www.w3.org/2000/svg" xmlns:xlink="http://www.w3.org/1999/xlink" x="0px" y="0px"
	 viewBox="0 0 414.7 197" style="enable-background:new 0 0 414.7 197;" xml:space="preserve">
<g>
	<path d="M249.9,29.6c3.6,6.1,3.2,20.2-0.9,35.6c-7.2,27.9-28.1,65.9-42.8,77.8c-4,3.2-7.9,5-11,4.7c-6.8-0.7-10.6-9-10.8-23.4
		c-0.4-12.4,1.6-26.6,7-55.8c0.2-2.3,0.5-4.7,0.9-6.7c0.4-2.2,0.4-4.1,0.4-4.5c0-0.2-2,5-7.6,20.5c-13.9,38.2-20.7,54-26.8,62.1
		c-3.2,4.3-5.4,5.6-8.1,4.7c-5.9-1.8-9.2-13.9-8.6-32.6c0.4-9,1.6-20.7,4.1-37.6c0.7-4.9,1.6-12.2,2.2-16.6s1.3-8.1,1.4-8.5
		c0.5-1.1,1.8-1.8,3.1-1.4c0.9,0,2,1.3,2,2.2c0,0.4-1.1,8.1-2.7,17.3c-4,24.3-5.4,35.6-5.6,47.2c-0.4,13.3,1.4,23.9,4.3,26.3
		s8.3-5.6,16-23.9c4.5-10.1,7.9-19.3,14.2-36.7c1.6-4.7,4.3-11.9,5.8-15.8c4.3-11.5,8.3-22.9,9.7-26.8c1.4-4.1,2.2-5,3.6-4.3
		c1.1,0.2,1.4,1.3,1.4,2.5c0,0.4-0.4,1.8-0.5,3.2c-0.7,3.1-2.7,12.6-4.5,22.1c-1.6,8.1-3.1,16.2-3.8,19.8
		c-2.7,16.6-3.8,26.5-4.1,36.9c0,0.4,0,0.7,0,1.3c-0.4,8.6,0,12.8,0.7,17.1c0.5,2.5,1.3,4.7,2.2,5.9c1.3,2.2,2.9,3.1,5,2.9
		c0,0,0.4,0,0.5,0c7-1.1,17.6-13.3,29.3-33.5c16.4-29,25.4-59.9,22.1-75.6c-0.5-2.7-0.7-3.4-2-5c-2.2-2.9-3.8-3.8-6.7-3.4
		c-4,0.4-7,2.9-11.9,9.4c-2.5,3.2-3.1,3.8-3.4,3.6c-0.4-0.4-0.7-0.5-0.7-0.7c0-0.7,3.6-6.3,5.9-8.8c3.2-3.6,6.1-5.6,9.2-6.3
		c4.7-1.1,8.3,0.7,11.2,5.8L249.9,29.6z"/>
	<path d="M255.7,96c-2.2,2.3-2.2,2.3-4,6.7c-2.7,6.5-8.6,22.1-8.5,22.3c0,0,0.5-0.7,0.9-1.4c3.4-5,12.6-16.6,15.8-19.6
		c2.9-2.9,4.3-3.4,5.8-2c1.3,1.3,1.1,3.2-0.5,9.9c-1.4,5-1.6,5.6-0.9,5.6c1.3,0,5.8-3.4,11.7-8.8c0.5-0.5,2-2.2,3.1-3.2
		c0.5-0.5,1.4-0.2,1.6,0.4c0,0.4,0,0.7-0.2,0.9c-1.1,1.1-3.6,3.6-4.7,4.5c-5.9,5.8-9.4,8.6-11.5,8.8c-1.4,0.2-2.2-0.2-2.5-1.3
		c-0.7-0.9-0.4-4.5,0.5-8.5c0.4-1.8,0.7-3.4,0.7-3.6c0-0.5-6.7,6.8-10.4,11.3c-2.9,3.6-4.3,5.8-7,9.9c-3.1,4.7-4,5.9-4.9,8.5
		c-0.5,1.6-0.5,1.6-1.3,1.8c-0.7,0.2-1.3,0-1.6-0.2c-0.4-0.5-0.5-0.7-0.5-2.2c0.2-5,5.6-22.1,11-34.7c0.5-1.3,2.3-5.4,3.8-8.5
		c5.6-11.7,11.5-22,18.9-31.9c5.8-8.1,11.3-14,13.3-14.8c0.9-0.4,1.1-0.4,1.6,0.2c1.6,1.1,1.4,2.7-0.9,7.4c-2,4.1-5.2,9.2-9.5,15.8
		c-8.1,12.2-15.8,22.7-19.6,26.6H255.7z M258.4,87.6c-2.2,4.7-2.7,5.9-2,5c0.2-0.2,1.4-1.6,2.7-3.4c6.8-8.3,13.1-18,18.7-27.7
		c2-3.2,4.7-8.8,5.4-10.4l0.4-1.3l-1.6,1.8c-6.5,6.7-16.4,22.1-23.2,36H258.4z"/>
	<path d="M314.9,107.7c0.5,0,0.9,0.4,0.9,0.9c-0.2,0.5-0.5,1.1-0.9,1.6c-0.7,0.5-1.6,1.3-2.3,2c-2.9,2.5-6.1,4.7-9.4,6.8
		c-1.4,0.7-2.7,1.6-4.3,1.6c-1.3,0.2-2.7,0-3.8-0.9c-0.9-1.1-1.1-2.7-1.1-4.1c-0.2-2.9,0.4-5.2,2.7-13c0.5-1.3,0.9-2.5,0.9-2.5
		c-0.2-0.4-3.1,2.9-6.3,6.8c-9.9,12.4-13.5,16.7-15.3,17.5c-2,0.9-3.6,0.4-4.5-1.6c-1.6-2.9,0.5-10.4,4.7-18
		c3.4-6.1,7.2-9.9,11-11.3c2-0.5,4.5-0.2,6.3,1.3c0.7,0.7,1.6,2.3,1.6,3.1c0,0.2,0,0.5,0,0.5c0.2,0,0.9-0.4,1.4-0.9
		c2-1.4,3.2-1.1,3.2,1.1c0,0.4-0.7,3.1-1.4,5.8c-2.5,9.7-2.7,13.5-0.9,13.9c1.8,0.5,5.2-1.3,10.8-5.4c2-1.6,3.6-3.1,5.4-4.7
		c0.2-0.2,0.5-0.4,0.9-0.4H314.9z M293.5,100.5c0,0-0.7-0.4-1.3-0.9c-1.8-1.1-3.1-1.1-4.7-0.4c-3.8,1.8-8.5,9.4-11.5,18
		c-0.4,1.3-0.7,2.7-0.9,3.1c-0.2,0.7-0.2,0.7,0.4,0.4c0.2,0,1.1-0.7,1.8-1.4c0.7-0.5,4.1-4.3,7.4-8.1c3.2-4,6.5-7.9,7.6-8.8
		C292.9,101.4,293.6,100.5,293.5,100.5z"/>
	<path d="M366.4,74.8c-0.5,0.7-2,1.4-3.1,1.3c-0.5-0.2-0.7-0.2-0.9-0.7c-0.2-0.4-0.2-0.5-1.1-0.7c-1.3-0.4-20.2-0.2-25.2,0
		c-6.3,0.4-7,0.5-7,1.1c0,0.2-0.9,2-1.8,4c-7.9,18-14.9,38.5-21.4,63.4c-3.8,15.5-6.8,30.6-7,35.8c0,3.4,0,4,0.7,4.7
		c1.8,2-0.4,3.4-2,1.4c-1.8-1.8-2-5.8-0.5-15.8c3.2-22,26.5-93.1,26.5-93.4c-0.5,0.2-11.2,1.3-14.6,1.8c-4.5,0.5-5,0.7-4.9,0.9
		c0.7,0.5,0.7,2,0,2.5c-0.2,0.2-2,0.4-3.8,0.5c-3.6,0.2-11.2,1.1-18.5,2.3c-5.9,0.9-7,0.7-7-0.9c0-1.3,0.5-1.6,3.8-2.5
		c17.3-3.4,28.6-5.4,40.5-7c2.9-0.4,5.4-0.7,5.4-0.9c0.2,0,1.8-2.9,3.8-6.1c5-8.6,16.4-27.2,17.1-28.1c0.9-1.1,2.9,0,2.3,1.4
		c0,0.2-1.1,2.3-2.5,4.5c-1.3,2.2-3.4,6.3-4.9,9c-3.2,5.8-9.5,18.5-9.4,18.7c0.2,0.2,2,0,4-0.2c5.2-0.4,23.6-0.5,27-0.4
		c3.1,0.4,4.1,0.7,4.5,2C366.7,73.9,366.5,74.3,366.4,74.8z"/>
</g>
</svg>
