<?xml version="1.0" encoding="utf-8"?>
<!-- Generator: Adobe Illustrator 25.0.0, SVG Export Plug-In . SVG Version: 6.00 Build 0)  -->
<svg version="1.1" id="svg-you-to" xmlns="http://www.w3.org/2000/svg" xmlns:xlink="http://www.w3.org/1999/xlink" x="0px" y="0px"
	 viewBox="0 0 414.7 229" style="enable-background:new 0 0 414.7 229;" xml:space="preserve">
<g>
	<path d="M155,103.1c0.8,0.3,1.1,1.1,0.6,1.4c-0.6,0.3-1.1,0.6-1.7,0.8c-7.5,4.7-26.3,17.2-28.3,18.8c0,0.3-1.4,4.2-2.8,8.9
		c-8.9,31.3-18.3,52.6-28.8,67.6c-11.6,16.6-23.8,25.5-35.7,26c-1.7,0.3-3.6,0-4.7,0c-2.5-0.6-5.5-2.5-7.2-3.9
		c-7.8-8.9-3-25.5,12.2-44.6c4.4-5.3,15.5-16.3,22.2-22.2c8.6-7.5,20.5-16.9,34.1-26.6l3.6-2.8l1.4-4.2c0.8-2.5,2.2-7.5,3.3-11.6
		c1.4-4.2,2.5-7.5,2.5-8.3c0-0.6,0-0.6-1.1,0.6c-0.8,0.6-4.4,3.6-8,6.6c-16.6,13.8-22.7,18.6-26.6,19.4c-3,0.8-5.5-0.3-6.1-3.3
		c-0.8-3.9,0.6-8.3,5.8-19.4l2.5-5.3c0,0,2.8-4.4,3.6-5.5c3-4.7,5-5.5,7.2-3.9c1.4,1.4,0.8,3-2.2,8.6c-6.9,11.9-11.9,21.6-11.9,24.1
		c0,0.8,0.3,0.8,1.1,0.6c5-1.4,13-6.9,25.2-18.3c9.7-8.6,12.7-11.9,13.6-13.3c0.8-2.5,3.6-2.5,4.2-0.6c0,0.8-1.4,8-4.7,21.3
		l-1.7,7.2l0.6-0.6c10.2-6.6,21.1-13.6,27.7-17.5h0.3V103.1z M109.3,156c2.8-8.3,8-25.2,8-25.5c-0.3,0-14.7,10.8-21.1,16.1
		c-9.4,7.8-16.3,13.8-23.5,20.8c-14.1,14.4-22.2,26-25.2,37.7c-0.6,2.2-0.8,3.9-0.6,6.4c0,5,1.4,7.5,5,9.1c1.7,0.8,5.8,0.8,8.9,0
		c3.3-0.8,8.6-3.6,11.9-6.1c14.4-11.1,27.1-31,36.3-58.7L109.3,156z"/>
	<path d="M191.9,101.8c0.3,0.8,0,1.7-0.8,1.7c-1.4,0.6-3.3,0.8-5,1.4c-5.8,1.1-0.6,1.1-7.8,1.7c-7.2,0.6-6.6,0.3-7.8,2.5
		c-3.3,6.6-11.1,14.7-15.5,16.3c-3.9,1.4-6.4-0.8-7.2-5.5c0-1.7,0.3-7.8,0.8-9.4c0.3-0.6,1.4-5.5,2.5-7.8c1.4-2.5,3.3-4.2,4.7-4.2
		c0.6,0,1.1-0.3,1.7-0.8c3.9-2.8,10-4.2,12.5-2.8c2.5,1.4,3,2.5,3,5.8v3h1.4c2.5,0-1.1,0.3,3.6-0.3c3.6-0.6,5.3-0.8,13-2.5
		c0.8-0.3,1.4,0,1.7,0.6L191.9,101.8z M164.4,110.6c1.4-1.7,2.2-3,1.9-3s-2.5-0.3-5-0.3h-5l-1.4,3c-1.4,3.3-2.5,9.4-2.2,10.2
		c0.3,0.8,2.2,0.3,3.9-1.1c2.2-1.9,5.5-5.5,7.8-8.6V110.6z M168.9,102c0.8-2.5,0.3-3.9-1.4-3.9c-1.4,0-4.2,1.4-6.4,2.8
		c-2.2,1.4-2.5,1.7-2.5,2.5s0.8,0.8,5.5,0.8h3.9l0.6-1.9L168.9,102z"/>
	<path d="M249.5,103.4c0.3,0,0.6,0.6,0,0.8c-0.6,0.8-1.7,1.9-2.5,3c-6.6,6.9-14.1,14.1-16.9,16.3c-6.4,5-10.2,5.5-12.5,1.7
		c-1.9-3.3-1.1-8.6,3.3-22.2c1.4-4.4,2.8-8.3,2.5-8.6c-0.3-0.3-6.1,5.5-13.6,12.7c-14.1,14.1-16.3,16.1-19.1,17.2
		c-1.4,0.6-1.7,0.6-2.5,0c-1.9-1.1-2.5-2.5-2.5-5.8c0-5.3,2.5-13,6.9-23c2.5-6.1,3.3-7.8,5-8.6c1.7-0.6,2.2-0.6,3.6,0
		c2.5,1.7,3,5.8,1.1,7.8c-2.8,3.3-8.3,13.6-10.5,20.2c-1.7,4.4-1.7,5-1.1,5c0.3,0,6.4-5.8,13.6-13c13.3-13.3,16.6-16.3,19.4-17.7
		c1.7-0.8,2.5-0.8,3.3,0.3c1.7,1.4,1.4,3-2.2,13.8c-4.7,14.4-5.5,18.6-4.2,21.1c0.8,0.8,1.1,0.8,2.5,0.8c3.9-0.6,9.1-5,20.8-16.3
		c2.5-2.5,3.9-4.2,5.3-5.5c0.3,0,0.3,0,0.8,0H249.5z"/>
	<path d="M371.6,59.1c-0.8,1.1-3,2.2-4.7,1.9c-0.8-0.3-1.1-0.3-1.4-1.1c-0.3-0.6-0.3-0.8-1.7-1.1c-1.9-0.6-31-0.3-38.8,0
		c-9.7,0.6-10.8,0.8-10.8,1.7c0,0.3-1.4,3-2.8,6.1c-12.2,27.7-23,50.3-33,88.5c-5.8,23.8-10.5,43.1-10.8,51.1c0,5.3,0,6.1,1.1,7.2
		c2.8,3-0.6,5.3-3,2.2c-2.8-2.8-3-8.9-0.8-24.4c5-33.8,40.7-130.2,40.7-130.8c-0.8,0.3-17.2,1.9-22.4,2.8c-6.9,0.8-7.8,1.1-7.5,1.4
		c1.1,0.8,1.1,3,0,3.9c-0.3,0.3-3,0.6-5.8,0.8c-5.5,0.3-17.2,1.7-28.5,3.6c-9.1,1.4-10.8,1.1-10.8-1.4c0-1.9,0.8-2.5,5.8-3.9
		c26.6-5.3,44-8.3,62.3-10.8c4.4-0.6,8.3-1.1,8.3-1.4c0.3,0,2.8-4.4,5.8-9.4c7.8-13.3,25.2-41.8,26.3-43.2c1.4-1.7,4.4,0,3.6,2.2
		c0,0.3-1.7,3.6-3.9,6.9c-1.9,3.3-5.3,9.7-7.5,13.8c-5,8.9-14.7,28.5-14.4,28.8c0.3,0.3,3,0,6.1-0.3c8-0.6,36.3-0.8,41.5-0.6
		c4.7,0.6,6.4,1.1,6.9,3C372.2,57.7,371.9,58.3,371.6,59.1z"/>
	<path d="M343.6,101.8c0.3,0.8,0,1.7-0.8,1.7c-1.4,0.6-3.3,0.8-5,1.4c-5.8,1.1-0.6,1.1-7.8,1.7c-7.2,0.6-6.6,0.3-7.8,2.5
		c-3.3,6.6-11.1,14.7-15.5,16.3c-3.9,1.4-6.4-0.8-7.2-5.5c0-1.7,0.3-7.8,0.8-9.4c0.3-0.6,1.4-5.5,2.5-7.8c1.4-2.5,3.3-4.2,4.7-4.2
		c0.6,0,1.1-0.3,1.7-0.8c3.9-2.8,10-4.2,12.5-2.8c2.5,1.4,3,2.5,3,5.8v3h1.4c2.5,0-1.1,0.3,3.6-0.3c3.6-0.6,5.3-0.8,13-2.5
		c0.8-0.3,1.4,0,1.7,0.6L343.6,101.8z M316.2,110.6c1.4-1.7,2.2-3,1.9-3s-2.5-0.3-5-0.3h-5l-1.4,3c-1.4,3.3-2.5,9.4-2.2,10.2
		c0.3,0.8,2.2,0.3,3.9-1.1c2.2-1.9,5.5-5.5,7.8-8.6V110.6z M320.7,102c0.8-2.5,0.3-3.9-1.4-3.9c-1.4,0-4.2,1.4-6.4,2.8
		c-2.2,1.4-2.5,1.7-2.5,2.5s0.8,0.8,5.5,0.8h3.9l0.6-1.9L320.7,102z"/>
</g>
</svg>
