<?xml version="1.0" encoding="utf-8"?>
<!-- Generator: Adobe Illustrator 25.0.0, SVG Export Plug-In . SVG Version: 6.00 Build 0)  -->
<svg version="1.1" id="svg-your" xmlns="http://www.w3.org/2000/svg" xmlns:xlink="http://www.w3.org/1999/xlink" x="0px" y="0px"
	 viewBox="0 0 414.7 197" style="enable-background:new 0 0 414.7 197;" xml:space="preserve">
<style type="text/css">
	.st0{fill:#FF0998;}
</style>
<g>
	<g>
		<path class="st0" d="M138.8,51.5c-9,22.2-12.9,34.4-15,45.7c-0.7,3.9-0.9,9.9-0.2,12c3,9,13.9-0.5,37.4-31.9
			c15-19.9,32.1-43.9,34.7-48.5c1.6-3.2,2.1-3.7,3-3.9c0.9-0.2,1.2,0.2,1.6,0.7c0.5,0.7,0,1.6-1.8,6c-6.2,14.1-11.3,29.1-21.3,63.1
			c-14.1,48-21,67.5-28.2,78.3c-5.5,8.5-11.8,12.5-18,11.3c-2.1-0.2-3-0.7-5.1-2.8c-2.1-1.6-3.2-4.4-4.6-8.5
			c-0.7-3.7-0.7-5.1,1.2-5.1c0.7,0.2,0.9,1.2,1.8,3.9c2.1,5.8,3.9,7.9,7.6,7.9c5.3,0,9.5-4.6,15.7-17.1c5.8-12.5,12-30,22.2-63.5
			c6.7-21.5,11.8-36.3,17.8-50.8c1.4-3,2.3-5.5,2.1-5.8c0,0-5.5,7.6-12.5,17.1c-21,29.8-28.6,39.5-37.2,48.3
			c-6.7,6.5-9.5,8.3-12.9,8.5c-2.1,0.2-2.8,0-4.2-0.7c-3.5-2.1-5.1-6.5-4.6-15c0.5-10.4,3-19.2,14.3-46.4c2.5-6.2,5.3-14.6,5.5-17.3
			c0.2-1.2,0.5-2.8,0.7-3.5c0.7-1.4,2.5-2.1,3.9-1.8c0.7,0.5,2.1,2.3,2.1,3.2c0,0.5-2.8,8.1-6.5,16.6H138.8z"/>
		<path class="st0" d="M211.1,118.2c0.2,0.7,0,1.4-0.7,1.4c-1.2,0.5-2.8,0.7-4.2,1.2c-4.9,0.9-0.5,0.9-6.5,1.4
			c-6,0.5-5.5,0.2-6.5,2.1c-2.8,5.5-9.2,12.2-12.9,13.6c-3.2,1.2-5.3-0.7-6-4.6c0-1.4,0.2-6.5,0.7-7.9c0.2-0.5,1.2-4.6,2.1-6.5
			c1.2-2.1,2.8-3.5,3.9-3.5c0.5,0,0.9-0.2,1.4-0.7c3.2-2.3,8.3-3.5,10.4-2.3c2.1,1.2,2.5,2.1,2.5,4.9v2.5h1.2c2.1,0-0.9,0.2,3-0.2
			c3-0.5,4.4-0.7,10.9-2.1c0.7-0.2,1.2,0,1.4,0.5L211.1,118.2z M188.2,125.6c1.2-1.4,1.8-2.5,1.6-2.5c-0.2,0-2.1-0.2-4.2-0.2h-4.2
			l-1.2,2.5c-1.2,2.8-2.1,7.9-1.8,8.5c0.2,0.7,1.8,0.2,3.2-0.9c1.8-1.6,4.6-4.6,6.5-7.2V125.6z M191.9,118.5
			c0.7-2.1,0.2-3.2-1.2-3.2c-1.2,0-3.5,1.2-5.3,2.3c-1.8,1.2-2.1,1.4-2.1,2.1c0,0.7,0.7,0.7,4.6,0.7h3.2l0.5-1.6L191.9,118.5z"/>
		<path class="st0" d="M259.1,119.6c0.2,0,0.5,0.5,0,0.7c-0.5,0.7-1.4,1.6-2.1,2.5c-5.5,5.8-11.8,11.8-14.1,13.6
			c-5.3,4.2-8.5,4.6-10.4,1.4c-1.6-2.8-0.9-7.2,2.8-18.5c1.2-3.7,2.3-6.9,2.1-7.2c-0.2-0.2-5.1,4.6-11.3,10.6
			c-11.8,11.8-13.6,13.4-15.9,14.3c-1.2,0.5-1.4,0.5-2.1,0c-1.6-0.9-2.1-2.1-2.1-4.9c0-4.4,2.1-10.9,5.8-19.2
			c2.1-5.1,2.8-6.5,4.2-7.2c1.4-0.5,1.8-0.5,3,0c2.1,1.4,2.5,4.9,0.9,6.5c-2.3,2.8-6.9,11.3-8.8,16.9c-1.4,3.7-1.4,4.2-0.9,4.2
			c0.2,0,5.3-4.9,11.3-10.9c11.1-11.1,13.9-13.6,16.2-14.8c1.4-0.7,2.1-0.7,2.8,0.2c1.4,1.2,1.2,2.5-1.8,11.5
			c-3.9,12-4.6,15.5-3.5,17.6c0.7,0.7,0.9,0.7,2.1,0.7c3.2-0.5,7.6-4.2,17.3-13.6c2.1-2.1,3.2-3.5,4.4-4.6c0.2,0,0.2,0,0.7,0H259.1z
			"/>
		<path class="st0" d="M292.2,119.6c-0.7,0-1.4,0.5-2.8,1.4c-6.5,3.2-8.5,3.7-10.4,2.5c-0.9-0.2-1.4-0.7-2.1-1.8
			c-0.7-1.6-0.7-2.1-0.7-5.8c0-2.1-0.2-3.9-0.5-3.9c-0.7,0-3.9,3.2-6.5,6.5c-5.3,6-10.4,13.2-12.9,18c-0.7,1.8-1.8,3.5-2.3,3.9
			c-0.7,0.7-1.6,0.7-2.3,0c-1.2-1.2-1.2-1.2,3-12c0.9-2.8,2.3-6.2,2.8-8.1c0.7-1.6,1.2-3.2,1.4-3.5c0-0.5,0.7-3,1.2-4.4
			c0.9-2.1,3.2-2.3,4.4-0.5c0.7,1.4,0.5,3.2-0.9,6.9c-0.5,1.6-0.7,2.8-0.5,2.8c0.2-0.5,1.4-1.6,2.5-3.2c4.2-4.9,8.8-8.8,10.6-8.8
			c2.1,0,2.3,0.7,2.5,6.7c0.2,5.3,0.2,5.3,0.7,5.8c1.4,1.4,3.5,0.7,10.9-2.8c0.9-0.5,0.9-0.5,1.6-0.9c0.2,0,0.5,0,0.5,0
			C292.6,118.7,292.4,119.2,292.2,119.6z"/>
	</g>
</g>
</svg>
