<svg id="svg-left" data-name="Layer 1" xmlns="http://www.w3.org/2000/svg" viewBox="0 0 132 361.63"><defs><style>.cls-1{fill:#ff0898;}</style></defs><path class="cls-1" d="M54.31,249.75l1.8,2.47a28.43,28.43,0,0,0-4.88,4.55l-2.32-2A32.88,32.88,0,0,1,54.31,249.75ZM61,246.3a19.1,19.1,0,0,1,7.53-.91l-.25,3.05a16.25,16.25,0,0,0-6.34.77ZM44.7,260.77l2.65,1.51a36,36,0,0,0-2.8,6.14l-2.89-1A39.39,39.39,0,0,1,44.7,260.77Zm31.11-13.13a19.09,19.09,0,0,1,5.67,5l-2.43,1.86a16.08,16.08,0,0,0-4.76-4.25Zm-36,26.79,2.78.54.79-.57a26.85,26.85,0,0,0,4.53,4.85l-2,2.35a30.17,30.17,0,0,1-3.64-3.6c-.17,1.25-.29,2.53-.38,3.8l-3.05-.2A53.23,53.23,0,0,1,39.82,274.43Zm-1,14.39,3-.18a61.39,61.39,0,0,0,.78,6.82l-3,.51A64.93,64.93,0,0,1,38.86,288.82Zm43.2-28.52,2.91-.95a21.92,21.92,0,0,1,1.1,7.44L83,266.71A18.82,18.82,0,0,0,82.06,260.3ZM53.52,282.74c.54.24,1.11.47,1.68.67a20.25,20.25,0,0,0,4.62,1l-.32,3a23.39,23.39,0,0,1-5.31-1.18c-.65-.22-1.29-.47-1.91-.75ZM81.61,273,84.47,274a21,21,0,0,1-4.37,6.37l-2.16-2.17A17.78,17.78,0,0,0,81.61,273ZM66.39,284.15A22.87,22.87,0,0,0,72.63,282L74,284.77A26.62,26.62,0,0,1,67,287.16ZM41.25,303l3-.83c.61,2.18,1.35,4.38,2.18,6.53l-2.85,1.11C42.65,307.56,41.89,305.27,41.25,303Zm5.17,13.37L49.16,315c1,2,2.14,4.07,3.33,6.05l-2.62,1.59C48.63,320.6,47.47,318.49,46.42,316.37Zm9.9,10.45c1.35,1.86,2.79,3.68,4.28,5.43l-2.32,2c-1.55-1.8-3-3.69-4.44-5.62Zm9,10.49c1.63,1.62,3.35,3.19,5.09,4.67l-2,2.35c-1.81-1.53-3.59-3.16-5.28-4.84Zm10.56,8.92c1.85,1.34,3.78,2.64,5.76,3.88L80,352.7c-2-1.27-4-2.62-5.91-4Zm11.74,7.39q3.06,1.67,6.2,3.17l-1.32,2.75c-2.14-1-4.26-2.09-6.34-3.24Zm12.55,6q3.21,1.35,6.49,2.54L105.6,365c-2.23-.81-4.43-1.67-6.62-2.59Zm13.09,4.82q3.31,1.06,6.68,2l-.83,2.94c-2.27-.65-4.54-1.32-6.79-2Zm13.44,3.82q3.39.86,6.81,1.62l-.67,3c-2.3-.52-4.6-1.05-6.89-1.63Zm13.67,3.08c2.29.47,4.59.9,6.88,1.32l-.55,3q-3.48-.63-6.94-1.33Z" transform="translate(-15.24 -14.05)"/><path class="cls-1" d="M29.87,125.65l3,.54,0,.18c-.54,2.22-1.07,4.43-1.59,6.65l-3-.69Q29.06,129,29.87,125.65Z" transform="translate(-15.24 -14.05)"/><path class="cls-1" d="M31.61,118.62c.57-2.28,1.16-4.56,1.75-6.83l3,.78q-.89,3.39-1.75,6.8Z" transform="translate(-15.24 -14.05)"/><path class="cls-1" d="M26.7,139.2l3,.67c-.52,2.29-1,4.57-1.51,6.86l-3-.65C25.68,143.78,26.19,141.49,26.7,139.2Z" transform="translate(-15.24 -14.05)"/><path class="cls-1" d="M35.16,105c.61-2.27,1.24-4.54,1.87-6.8L40,99q-.94,3.39-1.86,6.78Z" transform="translate(-15.24 -14.05)"/><path class="cls-1" d="M23.73,153l3,.62c-.47,2.3-.93,4.59-1.39,6.89l-3-.59C22.78,157.59,23.26,155.28,23.73,153Z" transform="translate(-15.24 -14.05)"/><path class="cls-1" d="M39,91.39c.65-2.26,1.31-4.51,2-6.77l2.93.87c-.67,2.25-1.33,4.49-2,6.74Z" transform="translate(-15.24 -14.05)"/><path class="cls-1" d="M21,166.81l3,.57c-.43,2.31-.86,4.61-1.27,6.91l-3-.54C20.12,171.44,20.56,169.13,21,166.81Z" transform="translate(-15.24 -14.05)"/><path class="cls-1" d="M43,77.87q1-3.37,2.1-6.73l2.92.92q-1.06,3.34-2.09,6.72Z" transform="translate(-15.24 -14.05)"/><path class="cls-1" d="M18.49,180.7l3,.52c-.36,2.09-.71,4.19-1.05,6.28l-.11.63-3-.47.09-.61C17.77,184.91,18.13,182.8,18.49,180.7Z" transform="translate(-15.24 -14.05)"/><path class="cls-1" d="M16.31,194.67l3,.39c-.28,2.29-.54,4.61-.72,6.92l-3-.23C15.77,199.38,16,197,16.31,194.67Z" transform="translate(-15.24 -14.05)"/><path class="cls-1" d="M15.25,208.88l3.06,0c0,2.4,0,4.73.18,6.9l-3,.22C15.28,213.78,15.22,211.37,15.25,208.88Z" transform="translate(-15.24 -14.05)"/><path class="cls-1" d="M46.65,64.23c.57-2.28,1.16-4.56,1.75-6.83l3,.78q-.88,3.39-1.74,6.8Z" transform="translate(-15.24 -14.05)"/><path class="cls-1" d="M50.21,50.58q.91-3.4,1.87-6.8l2.94.83c-.62,2.25-1.25,4.51-1.85,6.77Z" transform="translate(-15.24 -14.05)"/><path class="cls-1" d="M54,37q1-3.37,2-6.77l2.93.88q-1,3.36-2,6.74Z" transform="translate(-15.24 -14.05)"/><path class="cls-1" d="M58,23.48c.7-2.25,1.39-4.49,2.1-6.73l2.92.93c-.71,2.22-1.4,4.47-2.09,6.71Z" transform="translate(-15.24 -14.05)"/><polygon class="cls-1" points="31.49 9.29 33.03 11.93 46.05 4.3 52.72 17.85 55.46 16.49 47.34 0 31.49 9.29"/><path class="cls-1" d="M16.15,223l3-.67c.46,2.08.94,4.15,1.41,6.22l.14.62-3,.71-.15-.59C17.09,227.17,16.62,225.08,16.15,223Z" transform="translate(-15.24 -14.05)"/><path class="cls-1" d="M19.45,236.76l3-.8c.61,2.23,1.25,4.47,2,6.68l-2.92.94C20.74,241.32,20.07,239,19.45,236.76Z" transform="translate(-15.24 -14.05)"/><path class="cls-1" d="M23.87,250.3l2.84-1.12c.89,2.23,1.83,4.36,2.79,6.32l-2.74,1.35C25.76,254.82,24.78,252.62,23.87,250.3Z" transform="translate(-15.24 -14.05)"/><path class="cls-1" d="M30.3,263.14l2.57-1.65A49.09,49.09,0,0,0,36.93,267l-2.33,2A52,52,0,0,1,30.3,263.14Z" transform="translate(-15.24 -14.05)"/></svg>